<svg width="65" height="65" viewBox="0 0 65 65" fill="none" xmlns="http://www.w3.org/2000/svg">
<path d="M64.147 32.8467C64.147 41.3337 60.7738 49.473 54.7694 55.4742C48.7649 61.4753 40.6212 64.8467 32.1297 64.8467C23.6381 64.8467 15.4944 61.4753 9.48997 55.4742C3.48555 49.473 0.112305 41.3337 0.112305 32.8467C0.112305 24.3598 3.48555 16.2205 9.48997 10.2193C15.4944 4.21819 23.6381 0.846771 32.1297 0.846771C40.6212 0.846771 48.7649 4.21819 54.7694 10.2193C60.7738 16.2205 64.147 24.3598 64.147 32.8467ZM63.346 32.8446C63.346 24.57 60.0571 16.6343 54.2029 10.7833C48.3487 4.93227 40.4087 1.6452 32.1297 1.6452C23.8506 1.6452 15.9106 4.93227 10.0564 10.7833C4.20219 16.6343 0.913336 24.57 0.913336 32.8446C0.913336 41.1192 4.20219 49.0549 10.0564 54.9059C15.9106 60.7569 23.8506 64.044 32.1297 64.044C40.4087 64.044 48.3487 60.7569 54.2029 54.9059C60.0571 49.0549 63.346 41.1192 63.346 32.8446Z" fill="#009379"/>
<path d="M29.1274 3.49156C28.809 3.50458 28.5442 3.66151 28.3329 3.96237C28.2142 4.13016 28.1542 4.11135 28.1527 3.90596C28.1513 3.78012 28.1708 3.64488 28.2113 3.50024C28.2214 3.46279 28.2427 3.42937 28.2722 3.40452C28.3017 3.37968 28.3381 3.36461 28.3763 3.36138L30.634 3.15743C30.6962 3.15165 30.7454 3.17407 30.7816 3.22469C30.9147 3.41128 30.9733 3.59208 30.9574 3.7671C30.9458 3.89439 30.9024 3.90668 30.8272 3.80399C30.5927 3.49011 30.2924 3.35776 29.9263 3.40694C29.8409 3.41851 29.8018 3.46697 29.8091 3.55231L30.0044 6.06258C30.013 6.1605 30.0483 6.25366 30.1065 6.33161L30.1846 6.43793C30.2628 6.54352 30.236 6.60137 30.1043 6.6115L29.4661 6.65706C29.3734 6.66429 29.3481 6.62668 29.3901 6.54424C29.4813 6.36922 29.5153 6.18119 29.4921 5.98013C29.4053 5.19906 29.3373 4.41655 29.2881 3.63259C29.2808 3.53278 29.2273 3.48577 29.1274 3.49156Z" fill="#009379"/>
<path d="M35.1449 4.70656L36.3671 4.87796C36.3929 4.88144 36.419 4.87535 36.4403 4.8609C36.4615 4.84644 36.4765 4.82467 36.4821 4.79985C36.5921 4.35146 36.6008 3.94574 36.5082 3.58268C36.4879 3.50024 36.5198 3.46263 36.6037 3.46986L37.179 3.52193C37.3121 3.53351 37.3367 3.59064 37.2528 3.69334C37.1703 3.79314 37.0965 3.92332 37.0791 4.05133C36.9605 4.88013 36.8642 5.71254 36.7904 6.54858C36.7846 6.61945 36.8056 6.68165 36.8534 6.73517C36.8693 6.75397 36.8787 6.77639 36.8816 6.80243C36.8874 6.84727 36.8678 6.86896 36.823 6.86751L36.2021 6.85884C36.1008 6.85739 36.0711 6.81038 36.1131 6.71781C36.3172 6.2752 36.4149 5.77908 36.4062 5.22944C36.4047 5.15567 36.3671 5.113 36.2933 5.10143L35.1102 4.93003C35.0393 4.9199 34.9944 4.94956 34.9756 5.01898C34.8265 5.56139 34.8063 6.07704 34.9148 6.56593C34.9322 6.6426 34.9025 6.67442 34.8258 6.6614L34.1312 6.55509C33.985 6.53194 33.9835 6.48927 34.1268 6.42708C34.163 6.41117 34.1934 6.38947 34.218 6.36199C34.273 6.30124 34.3048 6.23036 34.3135 6.14936C34.4032 5.36396 34.5002 4.5771 34.6044 3.7888C34.6261 3.63476 34.5914 3.49156 34.5306 3.35053C34.524 3.33476 34.5217 3.31755 34.5238 3.3006C34.526 3.28365 34.5326 3.26756 34.5429 3.25394C34.5532 3.24033 34.5669 3.22966 34.5827 3.223C34.5984 3.21635 34.6156 3.21394 34.6326 3.21602L35.2687 3.29412C35.3352 3.30135 35.3519 3.3339 35.3186 3.39176C35.1276 3.7172 35.0277 4.10557 35.019 4.55685C35.0161 4.64508 35.0581 4.69498 35.1449 4.70656Z" fill="#009379"/>
<path d="M25.3437 7.03241L24.992 6.49434C24.9428 6.41623 24.8741 6.39092 24.7858 6.4184L24.0325 6.65272C23.9602 6.67586 23.9088 6.72215 23.8784 6.79158C23.7496 7.09243 23.806 7.34556 24.0477 7.55095C24.0682 7.56781 24.0836 7.59003 24.0922 7.61512C24.1008 7.64022 24.1023 7.66721 24.0964 7.69308C24.0905 7.71896 24.0776 7.7427 24.0591 7.76166C24.0405 7.78062 24.017 7.79405 23.9913 7.80046L23.479 7.92847C23.4657 7.93158 23.4518 7.93085 23.4389 7.92634C23.4261 7.92184 23.4147 7.91376 23.4063 7.90305C23.3979 7.89234 23.3927 7.87945 23.3913 7.86589C23.39 7.85233 23.3925 7.83866 23.3986 7.8265C23.5347 7.5806 23.6121 7.32531 23.6309 7.06061C23.6816 6.32294 23.7062 5.57152 23.7047 4.80636C23.7047 4.04699 23.916 3.98262 24.3386 4.61326L25.8278 6.83497C25.8687 6.89559 25.9279 6.9419 25.9971 6.96732L26.0905 7.00203C26.199 7.04253 26.2012 7.08882 26.097 7.14089C25.8452 7.26528 25.6027 7.3376 25.3697 7.35785C25.2236 7.37087 25.2026 7.32603 25.3068 7.22334C25.3227 7.20887 25.3365 7.19079 25.348 7.16909C25.3741 7.12281 25.3726 7.07725 25.3437 7.03241ZM23.8567 6.40538C23.8566 6.41595 23.8589 6.42639 23.8636 6.43586C23.8683 6.44534 23.8751 6.45358 23.8836 6.45992C23.8921 6.46626 23.9019 6.47052 23.9123 6.47235C23.9227 6.47418 23.9334 6.47354 23.9435 6.47047L24.7315 6.23181C24.7415 6.22858 24.7505 6.22308 24.758 6.21573C24.7654 6.20839 24.7711 6.19942 24.7744 6.18952C24.7778 6.17962 24.7788 6.16907 24.7774 6.15871C24.776 6.14835 24.7722 6.13847 24.7663 6.12984L23.9934 4.99295C23.9855 4.98076 23.9739 4.97147 23.9602 4.96645C23.9466 4.96144 23.9317 4.96097 23.9178 4.96512C23.9038 4.96927 23.8916 4.97782 23.883 4.98949C23.8743 5.00115 23.8697 5.0153 23.8697 5.02983L23.8567 6.40538Z" fill="#009379"/>
<path d="M41.0931 8.1524C40.9103 8.07373 40.7475 7.95363 40.614 7.79894C40.4805 7.64424 40.3789 7.45799 40.315 7.25082C40.2511 7.04365 40.2261 6.81962 40.2415 6.59151C40.2568 6.3634 40.3123 6.13568 40.4046 5.92136C40.497 5.70704 40.6244 5.51031 40.7797 5.34241C40.9349 5.1745 41.115 5.03871 41.3095 4.94279C41.504 4.84687 41.7093 4.79269 41.9134 4.78335C42.1176 4.77401 42.3168 4.80969 42.4995 4.88835C42.6823 4.96701 42.8451 5.08712 42.9786 5.24181C43.1121 5.3965 43.2137 5.58275 43.2776 5.78992C43.3416 5.99709 43.3665 6.22113 43.3512 6.44924C43.3358 6.67735 43.2803 6.90507 43.188 7.11939C43.0956 7.33371 42.9682 7.53044 42.8129 7.69834C42.6577 7.86624 42.4776 8.00204 42.2831 8.09796C42.0886 8.19388 41.8834 8.24806 41.6792 8.2574C41.475 8.26674 41.2758 8.23106 41.0931 8.1524ZM41.2528 8.06437C41.496 8.15043 41.7869 8.07005 42.0615 7.84094C42.3362 7.61183 42.5721 7.25274 42.7174 6.84267C42.7893 6.63963 42.8369 6.43018 42.8572 6.22628C42.8776 6.02239 42.8705 5.82804 42.8363 5.65433C42.802 5.48063 42.7413 5.33097 42.6576 5.2139C42.5739 5.09683 42.4689 5.01464 42.3485 4.97203C42.1053 4.88598 41.8144 4.96635 41.5398 5.19547C41.2651 5.42458 41.0292 5.78367 40.8839 6.19373C40.812 6.39678 40.7644 6.60623 40.744 6.81013C40.7237 7.01402 40.7308 7.20837 40.765 7.38208C40.7993 7.55578 40.86 7.70544 40.9437 7.82251C41.0274 7.93958 41.1324 8.02176 41.2528 8.06437Z" fill="#009379"/>
<path d="M20.6743 8.40579C20.6135 8.93229 20.4 9.30257 20.0339 9.51664C17.6308 10.9139 16.1134 6.14503 19.337 6.25351C19.4152 6.2564 19.4695 6.29328 19.4999 6.36416C19.5635 6.51748 19.5766 6.67152 19.5389 6.82629C19.5143 6.93043 19.463 6.94562 19.3848 6.87185C18.9007 6.4184 17.9716 6.45311 17.8826 7.23201C17.8117 7.8424 18.0049 8.39639 18.4622 8.89396C19.2046 9.70106 20.2271 9.42769 20.5549 8.37541C20.5592 8.36095 20.5686 8.35444 20.5831 8.35588L20.6395 8.36022C20.667 8.36312 20.6786 8.37831 20.6743 8.40579Z" fill="#009379"/>
<path d="M46.2009 10.2413C46.6061 10.6174 47.0641 10.7381 47.575 10.6036C47.698 10.5704 47.7291 10.6101 47.6684 10.723C47.5859 10.8719 47.4665 10.9934 47.3102 11.0875C47.2335 11.1323 47.1582 11.1309 47.0844 11.0831L45.5279 10.1024C45.4266 10.0374 45.4158 9.95997 45.4954 9.87029C45.5243 9.83992 45.5605 9.81967 45.6039 9.80954C45.6513 9.79847 45.6926 9.76886 45.719 9.7271C46.1039 9.08633 46.52 8.42676 46.9672 7.74839C47.0728 7.58784 47.1126 7.41643 47.0866 7.23418C47.0721 7.13004 47.1097 7.10473 47.1995 7.15825L47.7291 7.47935C47.8623 7.55891 47.8587 7.63123 47.7183 7.69632C47.5982 7.75273 47.5019 7.83807 47.4296 7.95233C46.994 8.64517 46.5721 9.31776 46.164 9.9701C46.1379 10.0129 46.1273 10.0633 46.134 10.1128C46.1407 10.1622 46.1644 10.2076 46.2009 10.2413Z" fill="#009379"/>
<path d="M57.8213 32.8467C57.8213 39.6563 55.1147 46.187 50.297 51.0021C45.4793 55.8171 38.9451 58.5222 32.1318 58.5222C25.3186 58.5222 18.7844 55.8171 13.9667 51.0021C9.14896 46.187 6.4424 39.6563 6.4424 32.8467C6.4424 26.0372 9.14896 19.5065 13.9667 14.6914C18.7844 9.87635 25.3186 7.17126 32.1318 7.17126C38.9451 7.17126 45.4793 9.87635 50.297 14.6914C55.1147 19.5065 57.8213 26.0372 57.8213 32.8467ZM57.0202 32.8467C57.0202 26.2495 54.3981 19.9225 49.7306 15.2575C45.0631 10.5926 38.7326 7.97186 32.1318 7.97186C25.531 7.97186 19.2006 10.5926 14.5331 15.2575C9.8656 19.9225 7.24343 26.2495 7.24343 32.8467C7.24343 39.444 9.8656 45.771 14.5331 50.436C19.2006 55.1009 25.531 57.7216 32.1318 57.7216C38.7326 57.7216 45.0631 55.1009 49.7306 50.436C54.3981 45.771 57.0202 39.444 57.0202 32.8467Z" fill="#009379"/>
<path d="M56.1714 32.8489C56.1714 39.2212 53.6387 45.3324 49.1304 49.8383C44.6221 54.3441 38.5075 56.8755 32.1318 56.8755C25.7561 56.8755 19.6416 54.3441 15.1333 49.8383C10.625 45.3324 8.09222 39.2212 8.09222 32.8489C8.09222 26.4767 10.625 20.3654 15.1333 15.8596C19.6416 11.3537 25.7561 8.82236 32.1318 8.82236C38.5075 8.82236 44.6221 11.3537 49.1304 15.8596C53.6387 20.3654 56.1714 26.4767 56.1714 32.8489ZM29.7439 9.37778C26.4877 10.1198 23.7156 12.2374 21.6468 14.9516C21.599 15.0152 21.5875 15.0854 21.6121 15.162L22.259 17.169C22.298 17.2919 22.382 17.3534 22.5108 17.3534L31.9061 17.3599C31.9268 17.3599 31.9467 17.3517 31.9613 17.337C31.976 17.3224 31.9842 17.3025 31.9842 17.2818L31.9799 9.30619C31.9799 9.22953 31.9415 9.18975 31.8648 9.18686C31.1094 9.16371 30.4024 9.22736 29.7439 9.37778ZM42.2609 14.4981C40.9497 12.8593 39.4178 11.5561 37.6652 10.5884C37.1413 10.2992 36.5791 10.0402 35.9785 9.81171C35.3099 9.55859 34.6883 9.38936 34.1138 9.30402C33.5624 9.22157 32.985 9.17962 32.3815 9.17818C32.3221 9.17818 32.2925 9.20783 32.2925 9.26713V17.2883C32.2925 17.3165 32.3037 17.3435 32.3236 17.3635C32.3436 17.3834 32.3706 17.3946 32.3988 17.3946H38.3773C38.4627 17.3946 38.5184 17.3541 38.5444 17.2731C39.1016 15.52 40.3715 14.6811 42.3542 14.7563C42.3679 14.7571 42.3816 14.754 42.3936 14.7474C42.4057 14.7408 42.4157 14.7309 42.4224 14.719C42.4292 14.707 42.4325 14.6934 42.4319 14.6797C42.4314 14.666 42.427 14.6527 42.4193 14.6413C42.4005 14.6138 42.3774 14.5921 42.3499 14.5762C42.3151 14.5545 42.2855 14.5285 42.2609 14.4981ZM20.8544 14.6977L21.3841 14.676C21.4521 14.6731 21.5093 14.6457 21.5556 14.5936C22.01 14.07 22.4695 13.5637 22.9341 13.0748C24.4566 11.4765 26.2337 10.3042 28.2656 9.55786C28.2815 9.55208 28.2866 9.54123 28.2808 9.52532L28.2656 9.46674C28.2598 9.44794 28.2475 9.43998 28.2287 9.44287C22.6714 10.4626 18.0338 13.0553 14.3159 17.221C14.3052 17.2336 14.2983 17.2489 14.296 17.2653C14.2936 17.2816 14.296 17.2983 14.3029 17.3134C14.3097 17.3284 14.3207 17.3412 14.3346 17.3502C14.3484 17.3592 14.3646 17.3641 14.3811 17.3642L19.5324 17.3512C19.6112 17.3513 19.6882 17.3285 19.7542 17.2858C19.8201 17.243 19.872 17.1821 19.9036 17.1104C20.2162 16.4089 20.4789 15.648 20.6916 14.8279C20.7133 14.744 20.7676 14.7006 20.8544 14.6977ZM36.8859 9.62729C36.5885 9.61861 36.3649 9.43854 36.0675 9.5123C35.8823 9.55859 35.883 9.60126 36.0697 9.64031C36.4633 9.72276 36.8418 9.8551 37.205 10.0374C39.4424 11.1685 41.3079 12.7414 42.8014 14.7563C42.8491 14.82 42.9107 14.8648 42.9859 14.8908C44.1871 15.2958 44.9491 16.0928 45.2718 17.2818C45.2812 17.315 45.301 17.3442 45.328 17.365C45.3551 17.3857 45.3879 17.3969 45.4216 17.3968L49.926 17.4098C49.9437 17.4095 49.961 17.4042 49.9759 17.3945C49.9907 17.3848 50.0025 17.371 50.0097 17.3548C50.017 17.3387 50.0196 17.3208 50.017 17.3032C50.0145 17.2857 50.007 17.2692 49.9955 17.2557C46.5569 13.3865 42.2985 10.8589 37.2202 9.67286C37.1088 9.64682 36.9974 9.63163 36.8859 9.62729ZM39.9967 17.4033H43.7913C43.8004 17.4033 43.8094 17.4015 43.8179 17.398C43.8263 17.3945 43.834 17.3894 43.8404 17.3829C43.8469 17.3765 43.852 17.3688 43.8555 17.3604C43.859 17.352 43.8608 17.343 43.8608 17.3338V17.2991C43.8608 16.7329 43.6538 16.1899 43.2853 15.7895C42.9169 15.3891 42.4172 15.1642 41.8962 15.1642H41.8918C41.6338 15.1642 41.3784 15.2194 41.14 15.3267C40.9016 15.434 40.6851 15.5913 40.5026 15.7895C40.3202 15.9878 40.1755 16.2231 40.0768 16.4821C39.978 16.7412 39.9272 17.0188 39.9272 17.2991V17.3338C39.9272 17.343 39.929 17.352 39.9325 17.3604C39.936 17.3688 39.9411 17.3765 39.9476 17.3829C39.954 17.3894 39.9617 17.3945 39.9701 17.398C39.9785 17.4015 39.9876 17.4033 39.9967 17.4033ZM20.3747 17.2102C20.37 17.2263 20.3691 17.2434 20.3721 17.26C20.3751 17.2765 20.382 17.2922 20.3921 17.3056C20.4022 17.3191 20.4153 17.33 20.4304 17.3376C20.4454 17.3451 20.462 17.349 20.4789 17.349L21.0455 17.3534C21.0625 17.3537 21.0794 17.35 21.0947 17.3427C21.1101 17.3353 21.1235 17.3244 21.1338 17.3109C21.1442 17.2973 21.1512 17.2816 21.1543 17.2648C21.1575 17.2481 21.1566 17.2309 21.1518 17.2145L20.874 16.2382C20.8676 16.2156 20.8541 16.1956 20.8355 16.1813C20.8169 16.1671 20.7941 16.1592 20.7706 16.159C20.7471 16.1587 20.7242 16.1661 20.7052 16.18C20.6863 16.1939 20.6724 16.2135 20.6656 16.236L20.3747 17.2102ZM31.2917 37.7697C31.7954 38.2904 32.2643 39.1452 33.0175 39.3079C33.0527 39.3156 33.0893 39.3148 33.1241 39.3056C33.159 39.2964 33.1912 39.279 33.2183 39.255C33.2453 39.2309 33.2664 39.2008 33.2798 39.167C33.2932 39.1333 33.2985 39.0968 33.2954 39.0606C33.2751 38.8306 33.2122 38.5992 33.1065 38.3663C33.0646 38.2723 33.0031 38.2578 32.922 38.3229L32.7353 38.4726C32.7063 38.4958 32.6701 38.5085 32.6327 38.5085C32.5952 38.5085 32.5587 38.4958 32.5291 38.4726C32.2223 38.2253 31.9654 37.9338 31.7585 37.5983C31.6181 37.3697 31.6463 37.3459 31.8431 37.5267C32.0645 37.7306 32.3475 37.8441 32.6919 37.8673C32.749 37.8715 32.8063 37.862 32.859 37.8396C32.9118 37.8172 32.9585 37.7826 32.9953 37.7386C33.0322 37.6946 33.0581 37.6424 33.071 37.5863C33.084 37.5302 33.0835 37.4719 33.0696 37.416C32.9633 36.9951 32.8004 36.5503 32.7766 36.1207C32.7679 35.9587 32.7368 35.8069 32.6832 35.6651C32.3988 34.9231 32.5551 33.7732 32.7223 32.9986C32.7556 32.8453 32.7483 32.6247 32.7006 32.3369C32.689 32.2617 32.697 32.1886 32.7245 32.1178C32.7578 32.0368 32.8106 31.9717 32.8829 31.9225C33.1434 31.7511 33.2889 31.3779 33.3909 31.0937C33.3983 31.0741 33.4017 31.0532 33.4008 31.0322C33.3999 31.0112 33.3947 30.9906 33.3856 30.9716C33.3765 30.9526 33.3636 30.9355 33.3477 30.9215C33.3319 30.9074 33.3133 30.8966 33.2932 30.8897L32.1166 30.497C32.0197 30.4652 31.9611 30.4992 31.9408 30.599C31.8569 30.9953 31.9365 31.3909 32.1796 31.7858C32.2216 31.8523 32.2035 31.8856 32.1253 31.8856C31.9705 31.8856 31.8156 31.8509 31.6608 31.7815L31.6469 31.7707L31.64 31.7546L31.6419 31.7372L31.6521 31.7229L31.715 31.673C31.7758 31.6252 31.8026 31.5631 31.7954 31.4864L31.7107 30.5187C31.7035 30.4291 31.655 30.382 31.5652 30.3777C31.4929 30.3734 31.4256 30.3538 31.3634 30.3191C31.2867 30.2757 31.2903 30.2396 31.3742 30.2106L31.6369 30.1195C31.7425 30.0819 31.7773 30.0103 31.7411 29.9047C31.731 29.8729 31.7367 29.8461 31.7585 29.8244C31.8163 29.768 31.8757 29.7659 31.9365 29.8179C32.3272 30.1578 32.8511 30.3697 33.5081 30.4536C33.5747 30.4609 33.6333 30.4435 33.684 30.4016C34.129 30.0197 34.7021 29.2734 35.3663 29.3883C36.362 29.5605 37.4648 29.6762 38.6747 29.7355C39.3606 29.768 39.9555 30.0197 40.6718 29.8982C42.1089 29.6552 43.4765 29.3016 44.855 29.1649C45.2052 29.1302 45.5388 29.1374 45.8557 29.1866C46.4911 29.2849 47.1061 29.546 47.7009 29.9698C47.7405 29.9982 47.7893 30.0106 47.8376 30.0046C47.8858 29.9985 47.9301 29.9745 47.9614 29.9373C48.0627 29.8187 48.0562 29.7254 47.9419 29.6574C47.5526 29.4288 47.2016 29.1996 46.889 28.9696C46.8311 28.9277 46.7928 28.8713 46.774 28.8004C46.7306 28.6398 46.7255 28.4691 46.7588 28.2883C46.763 28.2645 46.7607 28.2401 46.7522 28.2174C46.7437 28.1948 46.7292 28.1749 46.7103 28.1598C46.6915 28.1447 46.6689 28.135 46.6449 28.1317C46.621 28.1283 46.5966 28.1315 46.5743 28.1408C45.9252 28.4207 45.3716 28.8069 44.6336 28.8394C43.3557 28.8987 42.1219 28.8814 40.9323 28.7874C40.1487 28.7244 39.4301 29.0672 38.6464 29.0998C37.2065 29.1591 36.0089 29.0224 35.0538 28.6897C33.964 28.3079 32.9546 28.7266 31.88 28.668C31.8033 28.6637 31.7541 28.6246 31.7324 28.5509C31.7136 28.4901 31.7295 28.4395 31.7802 28.399C31.8453 28.344 31.8793 28.2746 31.8822 28.1907C31.8967 27.7886 31.9198 27.3945 31.9517 27.0083C31.9994 26.4463 31.9104 25.9343 32.1123 25.381C32.1342 25.3209 32.1361 25.2554 32.1177 25.1943C32.0993 25.1333 32.0616 25.08 32.0103 25.0426C31.4719 24.6477 31.778 24.0337 31.2309 23.6128C31.1908 23.5822 31.1446 23.5608 31.0955 23.5499C31.0464 23.5391 30.9956 23.539 30.9466 23.5499C30.6861 23.6077 30.4357 23.641 30.1955 23.6497C29.8416 23.6605 29.5269 23.5195 29.1839 23.5086C29.0435 23.5043 29.0283 23.5455 29.1383 23.6323L29.6506 24.0402C29.7128 24.0879 29.741 24.1508 29.7353 24.2289L29.6832 25.0751C29.6774 25.1532 29.6976 25.2241 29.7439 25.2877C29.906 25.5148 30.0428 25.7766 30.1542 26.0731C30.2411 26.3046 30.3655 26.4666 30.5276 26.5591C30.914 26.7826 31.1289 26.5244 31.5197 26.4875C31.6181 26.4789 31.6325 26.5092 31.5631 26.5787L31.3438 26.7956C31.3157 26.823 31.2936 26.8559 31.2786 26.8925C31.2637 26.929 31.2563 26.9684 31.257 27.0083C31.2765 27.5767 31.4936 29.2885 30.3127 28.8741C29.2468 28.501 28.2135 28.6745 27.1303 28.8828C26.1426 29.0716 25.0094 28.8763 24.026 28.6854C23.5672 28.5957 23.0072 28.5509 22.3458 28.5509C21.5368 28.5494 20.6699 28.5567 19.7452 28.5726C18.8356 28.5878 18.117 28.2732 17.4484 27.6939C17.3109 27.5753 17.2429 27.6064 17.2444 27.7872C17.2466 27.9195 17.1944 28.0519 17.0924 28.1365C16.8753 28.3173 16.6619 28.5082 16.452 28.7093C15.9962 29.1475 15.3102 29.2517 14.7327 29.4556C14.5229 29.5308 14.4925 29.486 14.6416 29.3211C15.0084 28.9154 15.5316 28.7114 15.9853 28.4207C16.0446 28.3816 16.0844 28.3281 16.1047 28.2601C16.261 27.7394 16.2473 27.2368 16.0635 26.7522C16.0553 26.7308 16.0531 26.7075 16.0572 26.6849C16.0613 26.6623 16.0715 26.6413 16.0867 26.6241C16.1019 26.6069 16.1216 26.5942 16.1435 26.5873C16.1654 26.5804 16.1888 26.5797 16.2111 26.5852C16.3326 26.6141 16.405 26.5671 16.4282 26.4442C17.0186 23.3083 18.0259 20.4285 19.4499 17.8047C19.5425 17.634 19.4955 17.5747 19.3088 17.6267C19.1279 17.6774 18.9492 17.702 18.7726 17.7005C17.1807 17.6933 15.6083 17.6846 14.0555 17.6745C13.9599 17.673 13.8818 17.7099 13.821 17.7851C10.3578 22.0391 8.54882 26.9424 8.39397 32.4953C8.38962 32.6573 8.4685 32.7383 8.63058 32.7383L15.6315 32.7404C15.7443 32.7404 15.8037 32.6848 15.8095 32.5734L15.9375 29.8722C15.9419 29.7724 15.8941 29.7275 15.7943 29.7377L14.9737 29.8223C14.9477 29.8252 14.9325 29.8158 14.9325 29.8158L14.9194 29.7615C14.9159 29.7469 14.9179 29.7314 14.9252 29.7182C14.9324 29.705 14.9443 29.6949 14.9585 29.6899C15.6025 29.4614 16.2791 29.2777 16.9882 29.1388C17.2704 29.0824 17.4984 28.9783 17.7523 28.8503C18.2039 28.6246 18.6901 28.9653 19.1395 29.0499C20.0049 29.209 20.8942 29.3327 21.8074 29.4209C22.3849 29.4773 22.9428 29.3883 23.505 29.3601C23.9348 29.3399 24.3668 29.3493 24.801 29.3883C26.1122 29.5084 27.3828 29.5778 28.6129 29.5966C29.0949 29.6031 29.4726 29.8657 29.8286 30.1521C30.1151 30.3864 30.5167 30.4189 30.8749 30.4319C30.9212 30.4348 30.9596 30.4529 30.99 30.4862C31.0421 30.5455 31.0421 30.6149 30.99 30.6945C30.9663 30.7294 30.9309 30.7548 30.8901 30.7661C30.7411 30.8051 30.6159 30.8738 30.5146 30.9722C30.4567 31.0286 30.4437 31.093 30.4755 31.1653C30.6361 31.5269 30.7317 31.8842 30.762 32.2371C30.8301 33.0442 30.9683 33.8325 31.1767 34.602C31.3764 35.331 31.3503 36.1012 31.1159 36.841C30.8076 37.8087 30.6948 38.7785 30.4495 39.7505C30.1911 40.7811 30.1499 41.8225 30.2215 42.8575C30.2374 43.0715 30.3474 43.2111 30.5515 43.2762C31.291 43.5149 32.0088 43.8085 32.7049 44.1571C33.2389 44.4239 33.634 44.0182 33.6666 43.4671C33.7028 42.8582 33.7107 42.2109 33.6905 41.5253L33.7013 41.5144H33.7578C33.7896 41.5144 33.8055 41.5304 33.8055 41.5622C33.8243 42.5819 33.9799 43.4859 34.2723 44.2742C34.3678 44.5317 34.4539 44.5288 34.5306 44.2655C34.6145 43.9849 34.621 43.6913 34.5501 43.3847C34.2592 42.1321 34.006 40.912 33.7903 39.7245C33.7862 39.7007 33.7755 39.6786 33.7595 39.6606C33.7435 39.6425 33.7228 39.6292 33.6995 39.622C33.6763 39.6149 33.6514 39.6142 33.6277 39.62C33.6039 39.6258 33.5821 39.638 33.5646 39.6551C33.498 39.7216 33.4437 39.7968 33.4018 39.8807C33.3807 39.9232 33.3509 39.9607 33.3142 39.9907C33.2775 40.0207 33.2349 40.0426 33.1891 40.055C33.1433 40.0673 33.0954 40.0697 33.0486 40.0621C33.0018 40.0545 32.9572 40.0371 32.9177 40.0109C32.1593 39.5061 31.5942 38.7742 31.2223 37.8152C31.1731 37.6865 31.1962 37.6713 31.2917 37.7697ZM20.7785 20.9268L21.8834 20.0654C21.9529 20.0133 21.9768 19.9497 21.955 19.8745L21.3233 17.7222C21.3126 17.6863 21.2892 17.6555 21.2575 17.6359C21.2259 17.6163 21.1882 17.6091 21.1518 17.6159C20.9174 17.6607 20.688 17.66 20.4637 17.6137C20.3146 17.5834 20.2162 17.6412 20.1685 17.7873L19.4955 19.8962C19.4821 19.9373 19.4817 19.9817 19.4945 20.0232C19.5074 20.0647 19.5327 20.1014 19.5672 20.1283L20.6048 20.9268C20.6627 20.9716 20.7206 20.9716 20.7785 20.9268ZM30.7338 22.3631C31.0334 22.2481 31.5435 22.4325 31.8388 22.5366C31.9372 22.5713 31.9864 22.5366 31.9864 22.4325L31.9799 17.8264C31.9799 17.741 31.9372 17.6976 31.8518 17.6962L22.5021 17.6376C22.4917 17.6378 22.4815 17.6404 22.4723 17.6453C22.4631 17.6501 22.4551 17.657 22.4491 17.6654C22.443 17.6738 22.4389 17.6835 22.4372 17.6937C22.4354 17.7039 22.4361 17.7144 22.4391 17.7244C22.8791 19.084 23.3205 20.4509 23.7633 21.825C23.8864 22.204 24.1063 22.5265 24.4233 22.7927C24.5029 22.8592 24.4913 22.8968 24.3885 22.9055C23.6649 22.9648 22.971 22.9633 22.3067 22.9011C22.1938 22.891 22.183 22.8527 22.2742 22.7861C22.5759 22.5627 22.7322 22.3132 22.5802 21.9205C22.4471 21.5762 22.3552 21.2479 22.3046 20.9354C22.2843 20.8125 22.225 20.7894 22.1265 20.866L20.9456 21.7816C20.9015 21.8149 20.8475 21.8326 20.7924 21.8318C20.7374 21.8311 20.6843 21.8118 20.6417 21.7773L19.2849 20.6729C19.2765 20.6659 19.2664 20.6613 19.2556 20.6594C19.2448 20.6575 19.2337 20.6585 19.2234 20.6622C19.2131 20.6659 19.2039 20.6723 19.1968 20.6806C19.1897 20.689 19.1849 20.699 19.1829 20.7098C19.0852 21.1546 18.638 22.2524 19.1786 22.5735C19.5954 22.8194 19.5621 22.9424 19.0787 22.9424C18.6648 22.9424 18.2437 22.938 17.8153 22.9293C17.6489 22.9264 17.5432 23.0046 17.4984 23.1637C17.1467 24.3989 16.8753 25.5575 16.6843 26.6394C16.6797 26.667 16.6833 26.6953 16.6945 26.7208C16.7056 26.7462 16.724 26.7677 16.7473 26.7826C17.1221 27.0227 17.5013 27.2636 17.8848 27.5051C18.2082 27.7069 18.536 27.7373 18.8833 27.8783C19.1265 27.9752 19.3942 28.0236 19.6865 28.0236C21.5448 28.028 23.0491 28.1227 24.1997 28.3079C25.4718 28.5096 26.7091 28.3339 27.9877 28.1235C28.7128 28.0041 29.4465 28.041 30.1651 28.143C30.2649 28.1574 30.3185 28.114 30.3257 28.0128L30.3822 27.273C30.3879 27.1847 30.3576 27.1117 30.291 27.0538C29.6643 26.5085 29.0312 25.935 28.3915 25.3333C28.2236 25.1756 28.126 24.9941 28.0985 24.7887C28.0883 24.7077 28.1173 24.6455 28.1853 24.6021L28.4545 24.4286C28.486 24.4084 28.5088 24.3772 28.5185 24.341C28.5281 24.3049 28.5239 24.2665 28.5066 24.2333C28.2634 23.7603 28.0464 23.4349 28.4675 22.951C28.5181 22.8917 28.5818 22.8642 28.6585 22.8686C28.8684 22.8773 29.0688 22.8693 29.2598 22.8447C29.5008 22.8143 29.7049 22.6777 29.9458 22.6581C30.0269 22.6509 30.0869 22.6827 30.126 22.7536C30.1752 22.8447 30.2447 22.8961 30.3344 22.9076C31.0334 23.0002 31.6506 23.2815 32.1861 23.7516C32.215 23.7762 32.2498 23.7914 32.2903 23.7972C32.3149 23.8001 32.3395 23.8023 32.3641 23.8037C32.5117 23.8124 32.5436 23.7552 32.4596 23.6323C32.0667 23.0595 31.5327 22.4086 30.749 22.4303C30.613 22.4347 30.6079 22.4122 30.7338 22.3631ZM42.7015 22.7883C43.58 21.2623 43.9997 19.5939 43.9606 17.783C43.9592 17.7164 43.9251 17.6832 43.8586 17.6832L39.9858 17.6766C39.899 17.6766 39.8541 17.72 39.8513 17.8068C39.8049 19.5541 40.2225 21.2204 41.1038 22.8057C41.153 22.8939 41.127 22.938 41.0257 22.938H38.5444C38.4663 22.938 38.4163 22.9011 38.3946 22.8274L37.8129 20.9094C37.8099 20.8983 37.8094 20.8866 37.8114 20.8752C37.8135 20.8639 37.8181 20.8533 37.8248 20.844C37.8315 20.8348 37.8401 20.8273 37.8501 20.8221C37.8601 20.8169 37.8711 20.8141 37.8823 20.8139L38.056 20.8118C38.1052 20.8103 38.1378 20.8327 38.1537 20.879L38.4142 21.6471C38.446 21.7425 38.5126 21.7896 38.6139 21.7881L40.0683 21.7794C40.0853 21.7792 40.1019 21.774 40.1159 21.7644C40.13 21.7549 40.1409 21.7414 40.1474 21.7257C40.1539 21.71 40.1556 21.6927 40.1523 21.6761C40.1491 21.6594 40.141 21.644 40.1291 21.6319C39.1284 20.61 38.3252 19.2496 38.4728 17.8047C38.4815 17.7265 38.446 17.6875 38.3664 17.6875L32.414 17.6853C32.333 17.6853 32.2925 17.7258 32.2925 17.8068V22.6104C32.2925 22.6885 32.3207 22.755 32.3771 22.81C33.1174 23.5217 33.595 23.5889 33.4951 24.8148C33.4691 25.1272 33.4227 25.3926 33.3562 25.611C33.1239 26.3704 33.0761 27.0061 32.5747 27.6592C32.5422 27.7019 32.5279 27.7556 32.5348 27.8088C32.5417 27.862 32.5693 27.9104 32.6116 27.9434C32.6796 27.9983 32.7556 28.02 32.8395 28.0085C33.401 27.9318 33.9329 27.9463 34.4351 28.0519C35.6145 28.3006 36.7767 28.5002 37.9214 28.6507C38.3541 28.7071 38.8469 28.6348 39.3997 28.4337C39.9706 28.2254 40.5872 28.2276 41.1863 28.2428C41.8101 28.2616 42.4063 28.2949 42.9751 28.3426C43.6249 28.3975 44.2131 28.3809 44.7399 28.2927C45.6965 28.135 46.5945 27.7799 47.4339 27.2274C47.4643 27.2071 47.4976 27.197 47.5338 27.197C47.554 27.197 47.5728 27.1948 47.5902 27.1905C47.6539 27.1746 47.6807 27.1348 47.6705 27.0712C47.3521 25.0823 46.8282 23.1239 46.0989 21.1958C46.0308 21.0164 45.9693 21.0179 45.9143 21.2001L45.4151 22.836C45.3948 22.9026 45.3507 22.9358 45.2826 22.9358L42.7905 22.9402C42.6733 22.9416 42.6436 22.891 42.7015 22.7883ZM55.8697 32.6059C55.8154 27.2122 53.8812 21.9617 50.4275 17.7699C50.3797 17.7121 50.3189 17.6832 50.2451 17.6832L45.4802 17.6766C45.3847 17.6766 45.3412 17.7237 45.3499 17.8177C45.3687 18.0144 45.3651 18.2053 45.3391 18.3905C45.3101 18.5973 45.3398 18.7933 45.4281 18.9784C46.9592 22.2141 47.8927 25.6334 48.2284 29.2365C48.2357 29.3175 48.2733 29.3789 48.3413 29.4209L49.0989 29.8939C49.1253 29.9104 49.1479 29.9321 49.1655 29.9577C49.1831 29.9833 49.1952 30.0121 49.2011 30.0425C49.207 30.0728 49.2066 30.104 49.1999 30.1341C49.1931 30.1641 49.1802 30.1924 49.1619 30.2171C49.0128 30.4225 48.7668 30.5462 48.4238 30.5882C48.4073 30.5898 48.392 30.5977 48.3812 30.6102C48.3703 30.6227 48.3646 30.6389 48.3652 30.6554L48.4802 32.6168C48.4846 32.6949 48.5258 32.7339 48.604 32.7339L55.7373 32.7383C55.827 32.7383 55.8712 32.6942 55.8697 32.6059ZM19.4803 18.2408C19.4615 18.2379 19.4499 18.2408 19.4499 18.2408C18.8435 19.5845 18.29 20.908 17.7893 22.2112C17.6532 22.5612 17.7256 22.6118 18.0063 22.3631C18.1959 22.1953 18.3399 21.9805 18.4383 21.7187C18.8522 20.6136 19.2256 19.4702 19.5585 18.2885C19.5643 18.2668 19.5563 18.2538 19.5346 18.2494L19.4803 18.2408ZM45.4563 21.5017C45.5127 21.2038 45.63 20.9557 45.808 20.7575C45.8644 20.6968 45.876 20.6288 45.8427 20.5536L45.3108 19.3473C45.2616 19.2359 45.2146 19.2366 45.1697 19.3494C44.8253 20.213 44.3152 20.9911 43.6393 21.684L43.6293 21.7023L43.6309 21.7231L43.6435 21.7398L43.6632 21.7469C44.1697 21.7932 44.7037 21.804 45.2653 21.7794C45.3072 21.778 45.3405 21.7592 45.3651 21.723C45.41 21.6565 45.4404 21.5827 45.4563 21.5017ZM47.7878 28.9566C47.9006 29.0824 47.9527 29.0607 47.9441 28.8915C47.9209 28.4923 47.8449 28.0714 47.7161 27.6288C47.7031 27.5839 47.6872 27.5825 47.6684 27.6244C47.5569 27.8689 47.4382 28.1018 47.3123 28.3231C47.3022 28.3407 47.2978 28.361 47.2997 28.3812C47.3017 28.4014 47.3099 28.4205 47.3232 28.4359L47.7878 28.9566ZM44.4859 29.7745C43.6625 29.9293 42.8397 30.121 42.0177 30.3495C41.2601 30.5578 40.4613 30.6598 39.6732 30.5252C38.9265 30.3994 38.2101 30.1955 37.446 30.1868C36.7195 30.1766 35.9959 30.147 35.2752 30.0978C34.8801 30.0696 34.4676 30.2193 34.2723 30.5882C33.9654 31.1667 33.7491 31.8371 33.6232 32.5994C33.6204 32.6165 33.6213 32.6339 33.6258 32.6506C33.6304 32.6672 33.6386 32.6827 33.6497 32.6959C33.6609 32.7091 33.6747 32.7197 33.6904 32.727C33.7061 32.7344 33.7231 32.7382 33.7404 32.7383L48.0352 32.7404C48.1496 32.7404 48.2038 32.6833 48.198 32.569L48.1177 30.7834C48.1119 30.6778 48.0562 30.6265 47.9506 30.6294C47.3673 30.6424 46.8275 30.4399 46.3311 30.0219C45.8362 29.6031 45.1046 29.6596 44.4859 29.7745ZM16.07 32.6537C16.0694 32.6646 16.071 32.6755 16.0748 32.6857C16.0786 32.696 16.0844 32.7053 16.0919 32.7132C16.0994 32.7212 16.1085 32.7275 16.1185 32.7318C16.1286 32.7361 16.1394 32.7383 16.1503 32.7383H30.1607C30.1711 32.7384 30.1813 32.736 30.1905 32.7314C30.1998 32.7268 30.2079 32.72 30.2142 32.7116C30.2205 32.7032 30.2248 32.6934 30.2268 32.683C30.2289 32.6726 30.2285 32.6618 30.2259 32.6515C29.8481 31.1978 28.9907 30.087 27.33 30.1282C25.8104 30.1651 24.3212 30.2432 22.7669 30.1933C22.5499 30.1875 21.7561 30.087 20.3855 29.8917C19.1974 29.7225 17.845 29.6841 16.3283 29.7767C16.2661 29.7796 16.2335 29.8114 16.2306 29.8722L16.07 32.6537ZM20.1576 40.5056L20.1728 41.4689C20.1757 41.5918 20.1222 41.6251 20.0122 41.5687C19.9297 41.5253 19.8674 41.4645 19.8255 41.3864C19.8005 41.3396 19.7636 41.3003 19.7186 41.2724C19.6736 41.2446 19.6221 41.2293 19.5693 41.2281L18.5599 41.2064C18.5377 41.2058 18.5156 41.2097 18.4949 41.2178C18.4743 41.226 18.4554 41.2383 18.4396 41.2539C18.4238 41.2695 18.4113 41.2881 18.4029 41.3086C18.3945 41.3292 18.3903 41.3512 18.3906 41.3734C18.3935 41.9129 18.3927 42.4474 18.3884 42.9768C18.3862 43.1916 18.549 43.3478 18.7618 43.3326C18.8848 43.3239 19.0085 43.3275 19.133 43.3434C19.8798 43.436 20.4384 43.214 20.8089 42.6774C20.8277 42.6513 20.8494 42.6282 20.874 42.608C20.9362 42.5588 20.9825 42.5609 21.0129 42.6145C21.0433 42.6694 21.0498 42.7273 21.0325 42.788L20.8436 43.4736C20.8204 43.559 20.7647 43.6024 20.6764 43.6038L17.9673 43.6429C17.8819 43.6443 17.8544 43.6848 17.8848 43.7644C18.4087 45.1645 19.0317 46.5437 19.7538 47.9019C19.7748 47.9412 19.806 47.9742 19.8443 47.9971C19.8825 48.02 19.9263 48.0321 19.9709 48.032L28.7823 48.0364C28.8676 48.0364 28.9328 48.0002 28.9776 47.9279C29.0297 47.8454 29.063 47.7435 29.0775 47.622C29.0949 47.4687 29.1303 47.3146 29.1839 47.1598C29.3858 46.5936 29.6007 46.0989 29.6137 45.4892C29.6368 44.2453 29.6376 43.0245 29.6159 41.8269C29.5876 40.1628 29.872 38.4878 29.9784 36.841C29.9827 36.7745 30.0102 36.7196 30.0609 36.6762C30.1716 36.5829 30.2541 36.4722 30.2714 36.3268C30.4017 35.2883 30.4205 34.2129 30.3279 33.1006C30.3192 33.0022 30.2664 32.9531 30.1694 32.9531H16.1698C16.1588 32.9531 16.1479 32.9553 16.1377 32.9595C16.1276 32.9638 16.1184 32.9701 16.1107 32.978C16.103 32.9859 16.097 32.9952 16.093 33.0055C16.089 33.0157 16.087 33.0267 16.0873 33.0377C16.1163 34.9441 16.274 36.8548 16.5606 38.7699C16.5693 38.8234 16.5468 38.8552 16.4933 38.8653L16.3999 38.8805C16.3594 38.8877 16.3355 38.8718 16.3283 38.8328C15.9983 37.1318 15.8334 35.2739 15.8334 33.259C15.8334 33.055 15.7306 32.9531 15.5251 32.9531H8.61539C8.58622 32.9533 8.55741 32.9594 8.53062 32.971C8.50384 32.9825 8.47963 32.9993 8.45942 33.0203C8.4392 33.0413 8.42338 33.0661 8.41289 33.0933C8.4024 33.1205 8.39744 33.1496 8.39831 33.1787C8.54013 38.7518 10.3491 43.6638 13.8253 47.9149C13.8572 47.9536 13.8975 47.9848 13.9433 48.0062C13.9891 48.0275 14.0393 48.0386 14.0902 48.0386L19.3653 48.0342C19.3783 48.0344 19.3912 48.0312 19.4026 48.0248C19.414 48.0184 19.4235 48.0091 19.4301 47.9979C19.4367 47.9866 19.4402 47.9738 19.4403 47.9607C19.4403 47.9477 19.4369 47.9349 19.4304 47.9236C18.7169 46.6333 18.1373 45.3475 17.6916 44.0659C17.6279 43.8822 17.549 43.7116 17.4549 43.5539C17.4231 43.4989 17.4325 43.4541 17.4832 43.4194C17.6207 43.3239 17.6894 43.1952 17.6894 43.0332C17.6937 41.8688 17.6974 40.6683 17.7002 39.4316C17.7002 39.352 17.6749 39.2819 17.6243 39.2211L17.4636 39.028C17.3811 38.9268 17.405 38.8762 17.5353 38.8762L20.5592 38.8783C20.6605 38.8783 20.7148 38.929 20.722 39.0302L20.7763 39.7419C20.7782 39.7612 20.7734 39.7806 20.7626 39.7966C20.7518 39.8126 20.7357 39.8244 20.7169 39.83C20.6981 39.8356 20.6778 39.8346 20.6594 39.8273C20.641 39.8199 20.6256 39.8066 20.6157 39.7896C20.1706 38.9977 19.3696 39.1344 18.6489 39.1561C18.5802 39.1583 18.515 39.1872 18.4672 39.2366C18.4194 39.286 18.3927 39.352 18.3927 39.4207L18.3884 40.729C18.3884 40.8245 18.4354 40.8787 18.5295 40.8918C19.1851 40.98 19.6873 40.8354 20.036 40.4578C20.1156 40.3711 20.1562 40.387 20.1576 40.5056ZM45.1242 43.4584C45.3152 43.35 45.41 43.1872 45.4085 42.9703C45.3955 41.6671 45.3933 40.4643 45.402 39.3622C45.402 39.319 45.3864 39.2772 45.3581 39.2446C45.3298 39.2119 45.2907 39.1905 45.2479 39.1843C44.7139 39.1119 44.305 39.2747 44.0214 39.6724C43.8043 39.9762 43.7189 39.9429 43.7652 39.5726C43.7898 39.3701 43.8535 39.1727 43.9563 38.9803C43.9924 38.9109 44.0496 38.8762 44.1278 38.8762L47.3644 38.8805C47.4542 38.8805 47.5135 38.9225 47.5424 39.0064C47.6018 39.1756 47.6517 39.3455 47.6922 39.5162C47.7964 39.9632 47.7089 40.0044 47.4296 39.6399C47.1314 39.2508 46.7298 39.096 46.2248 39.1756C46.1814 39.1824 46.142 39.2045 46.1137 39.238C46.0854 39.2715 46.0701 39.314 46.0706 39.3578C46.075 40.5164 46.075 41.6743 46.0706 42.8314C46.0692 43.1916 46.2356 43.4736 46.5699 43.6776C46.6379 43.7181 46.6597 43.7767 46.6351 43.8533C46.1835 45.2043 45.5865 46.5516 44.8441 47.8954C44.8363 47.9098 44.8323 47.926 44.8326 47.9424C44.8328 47.9588 44.8373 47.9749 44.8456 47.9891C44.8539 48.0033 44.8657 48.0151 44.8799 48.0234C44.8941 48.0316 44.9102 48.0361 44.9266 48.0364L50.2017 48.0386C50.2885 48.0386 50.3587 48.0053 50.4123 47.9387C53.9087 43.6718 55.7315 38.7265 55.8806 33.1028C55.8835 33.0044 55.8357 32.9552 55.7373 32.9552L48.5736 32.9531C48.5572 32.9531 48.5409 32.9563 48.5257 32.9627C48.5106 32.969 48.4968 32.9783 48.4853 32.99C48.4738 33.0018 48.4647 33.0157 48.4586 33.0309C48.4525 33.0462 48.4496 33.0625 48.4498 33.0789C48.4513 35.0692 48.2769 36.9705 47.9267 38.7829C47.9219 38.807 47.909 38.8288 47.8902 38.8449C47.8713 38.861 47.8475 38.8705 47.8225 38.8718L47.7487 38.874C47.6865 38.8754 47.6604 38.8451 47.6705 38.7829C48.0121 36.8953 48.1828 35.0041 48.1828 33.1093C48.1831 33.0886 48.1792 33.068 48.1714 33.0488C48.1636 33.0296 48.1519 33.0122 48.1372 32.9974C48.1225 32.9827 48.1049 32.971 48.0855 32.963C48.0662 32.955 48.0454 32.9509 48.0244 32.9509L33.6492 32.9531C33.5885 32.9531 33.553 32.9834 33.5429 33.0442C33.333 34.372 33.3764 35.4438 33.6731 36.2596C33.9032 36.8931 34.066 37.5259 34.1615 38.158C34.2151 38.5211 34.2889 38.8827 34.383 39.2428C34.4568 39.5234 34.5053 39.8026 34.5284 40.0803C34.621 41.1796 34.8895 42.6376 35.3338 44.4543C35.4307 44.8506 35.3171 45.1182 34.993 45.2571C34.9354 45.2818 34.887 45.3241 34.8546 45.3778C34.8223 45.4315 34.8077 45.494 34.8128 45.5565C34.8895 46.4316 35.0928 47.2105 35.4228 47.8932C35.4677 47.9872 35.5429 48.0342 35.6486 48.0342H44.2754C44.3213 48.0342 44.3664 48.0218 44.4061 47.9981C44.4458 47.9744 44.4787 47.9405 44.5011 47.8997C45.2276 46.5675 45.8485 45.1999 46.3637 43.7969C46.3708 43.7779 46.3732 43.7575 46.3705 43.7374C46.3679 43.7172 46.3603 43.6981 46.3485 43.6816C46.3367 43.6651 46.3211 43.6517 46.3029 43.6427C46.2847 43.6337 46.2646 43.6293 46.2443 43.6298C45.8709 43.6429 45.5041 43.6212 45.1437 43.5648C45.0337 43.5474 45.0272 43.512 45.1242 43.4584ZM29.2251 49.9305C29.1238 51.5056 29.1462 52.994 29.2924 54.3956C29.3727 55.1701 28.6542 55.8991 27.9899 56.1725C27.8322 56.2376 27.838 56.2803 28.0073 56.3005C28.4357 56.3511 28.8582 56.3996 29.275 56.4459C29.4183 56.4618 29.4371 56.4213 29.3315 56.3244C29.2982 56.294 29.2816 56.255 29.2816 56.2072C29.2881 55.9447 29.5399 55.6865 29.6984 55.4934C29.749 55.4312 29.7772 55.3596 29.783 55.2786C29.8033 54.9445 29.8018 54.6957 29.7787 54.5323C29.6224 53.4041 29.639 52.4379 29.8286 51.6336C30.0327 50.7745 30.3691 50.0303 30.3409 49.119C30.304 47.9995 30.1846 46.689 30.7599 45.6823C31.032 45.2065 31.1564 44.706 31.1333 44.1809C31.1304 44.1028 31.0898 44.0587 31.0117 44.0486L30.4299 43.9727C30.4143 43.9705 30.3983 43.9718 30.3831 43.9763C30.368 43.9809 30.3539 43.9886 30.3418 43.9991C30.3297 44.0095 30.3199 44.0224 30.313 44.0369C30.3062 44.0514 30.3023 44.0672 30.3018 44.0833C30.2613 45.213 30.0833 46.2732 29.7678 47.264C29.4567 48.2374 29.2758 49.1263 29.2251 49.9305ZM34.2115 49.7634C34.5523 51.3689 34.828 52.9463 34.993 54.6191C35.0581 55.2721 35.5617 56.3352 36.3324 56.3439C36.4308 56.3454 36.4474 56.3092 36.3823 56.2354C35.8765 55.6627 35.3707 55.155 35.2925 54.3283C35.1493 52.7922 35.1406 51.1867 35.1623 49.6202C35.1731 48.8001 34.5762 48.0689 34.4068 47.251C34.2448 46.4713 34.1 45.7011 33.9727 44.9403C33.9249 44.6539 33.7621 44.5556 33.4843 44.6452C33.451 44.6554 33.4177 44.6662 33.3844 44.6778C33.108 44.766 33.0262 44.9432 33.1391 45.2093C33.4864 46.0295 33.7882 46.979 34.0443 48.0581C34.1789 48.633 34.0921 49.195 34.2115 49.7634ZM31.9864 45.1377C31.9865 45.1122 31.9777 45.0873 31.9616 45.0675C31.9454 45.0476 31.9229 45.034 31.8978 45.0289C31.8727 45.0238 31.8467 45.0275 31.824 45.0394C31.8014 45.0514 31.7836 45.0708 31.7736 45.0943L30.9401 47.0362C30.9353 47.0472 30.9324 47.0589 30.9314 47.0709L30.8619 47.9236C30.8604 47.9388 30.8621 47.9542 30.8668 47.9687C30.8716 47.9833 30.8793 47.9967 30.8895 48.0081C30.8997 48.0195 30.9122 48.0287 30.9261 48.0351C30.94 48.0414 30.9551 48.0448 30.9704 48.0451L31.8735 48.0537C31.8882 48.054 31.9029 48.0514 31.9165 48.0459C31.9302 48.0405 31.9427 48.0324 31.9532 48.0221C31.9637 48.0118 31.9721 47.9995 31.9778 47.9859C31.9835 47.9724 31.9864 47.9578 31.9864 47.9431V45.1377ZM33.3453 47.9886L32.4835 45.166C32.4805 45.1555 32.4748 45.1461 32.467 45.1387C32.4591 45.1312 32.4494 45.1259 32.4387 45.1233C32.428 45.1206 32.4167 45.1208 32.4059 45.1237C32.3951 45.1266 32.3852 45.1322 32.3771 45.1399C32.3612 45.1544 32.3467 45.1696 32.3337 45.1855C32.3135 45.2101 32.3033 45.2383 32.3033 45.2701C32.2874 46.1755 32.2845 47.0817 32.2946 47.9886C32.2948 48.0015 32.2977 48.0143 32.3032 48.0259C32.3088 48.0376 32.3168 48.0479 32.3267 48.0561C32.3366 48.0644 32.3482 48.0704 32.3606 48.0737C32.3731 48.0771 32.3861 48.0776 32.3988 48.0754C32.6825 48.0234 32.9683 48.027 33.2563 48.0863C33.2694 48.0892 33.2831 48.0887 33.2959 48.0847C33.3087 48.0806 33.3202 48.0733 33.3293 48.0634C33.3383 48.0534 33.3446 48.0413 33.3474 48.0282C33.3502 48.015 33.3495 48.0014 33.3453 47.9886ZM19.6909 48.4074C19.6803 48.3895 19.6651 48.3747 19.6468 48.3644C19.6285 48.3541 19.6078 48.3488 19.5867 48.3488L14.3159 48.3271C14.3028 48.327 14.29 48.3308 14.279 48.3379C14.268 48.345 14.2593 48.3552 14.254 48.3672C14.2487 48.3791 14.247 48.3924 14.2491 48.4053C14.2513 48.4183 14.2571 48.4303 14.266 48.4399C17.8305 52.4436 22.2691 55.0009 27.5818 56.1118C27.6325 56.1233 27.6686 56.0915 27.6903 56.0163C27.6978 55.9918 27.6959 55.9654 27.6851 55.9422C27.6743 55.919 27.6553 55.9006 27.6317 55.8905C26.403 55.3437 25.2721 54.6928 24.2344 53.8228C22.4109 52.2896 20.8964 50.4845 19.6909 48.4074ZM25.4913 54.4151C26.2699 54.9488 27.0803 55.3864 27.9226 55.7277C27.9805 55.7523 28.037 55.748 28.0919 55.7147C28.5724 55.4269 28.7953 55.0103 28.7606 54.465C28.6332 52.5181 28.6028 50.8251 28.6694 49.3859C28.6839 49.0764 28.7396 48.7639 28.8365 48.4486C28.8402 48.4364 28.841 48.4234 28.8389 48.4108C28.8367 48.3982 28.8316 48.3862 28.8241 48.3759C28.8165 48.3656 28.8066 48.3572 28.7952 48.3514C28.7838 48.3455 28.7712 48.3424 28.7584 48.3423L20.162 48.3401C20.1469 48.3399 20.132 48.3437 20.119 48.3512C20.1059 48.3586 20.095 48.3694 20.0875 48.3825C20.0799 48.3955 20.076 48.4104 20.0762 48.4254C20.0763 48.4405 20.0804 48.4552 20.0881 48.4681C21.5122 50.8265 23.1881 52.8356 25.4913 54.4151ZM30.5102 51.5989C30.0471 52.9672 29.9603 54.3927 30.2497 55.8753C30.2845 56.0445 30.2866 56.1638 30.2237 56.3222C30.2185 56.3349 30.2164 56.3486 30.2175 56.3622C30.2187 56.3759 30.223 56.389 30.2302 56.4007C30.2374 56.4123 30.2473 56.4221 30.259 56.4292C30.2706 56.4363 30.2838 56.4405 30.2975 56.4416L31.8909 56.55C31.9545 56.5529 31.9864 56.5233 31.9864 56.4611L31.9799 48.4096C31.9799 48.3531 31.9524 48.3249 31.8974 48.3249L30.9683 48.3141C30.9104 48.3141 30.8807 48.343 30.8793 48.4009C30.8634 48.9418 30.846 49.5081 30.8272 50.0997C30.8156 50.5119 30.71 51.0117 30.5102 51.5989ZM32.3815 56.524C33.2368 56.5385 34.0516 56.4394 34.8258 56.2268C34.8501 56.2202 34.8724 56.2075 34.8905 56.19C34.9085 56.1724 34.9217 56.1505 34.9289 56.1263C34.9361 56.1022 34.937 56.0766 34.9315 56.052C34.926 56.0275 34.9143 56.0047 34.8975 55.9859C34.5805 55.6258 34.4242 55.2229 34.4286 54.7774C34.4416 53.7404 34.2817 52.6924 33.9488 51.6336C33.6449 50.666 33.6145 49.6745 33.6167 48.6743C33.6181 48.4414 33.5016 48.3242 33.2672 48.3228L32.5291 48.3163C32.3685 48.3163 32.2881 48.3958 32.2881 48.5549L32.2903 56.4329C32.2903 56.4936 32.3207 56.524 32.3815 56.524ZM35.9568 54.4412C36.0711 54.7435 36.336 55.0805 36.7513 55.4522C36.8078 55.5014 36.8693 55.5093 36.9358 55.4761C38.4424 54.7109 39.7261 53.817 40.7869 52.7944C42.0445 51.5808 43.1755 50.1373 44.1799 48.4638C44.1868 48.4519 44.1906 48.4383 44.1908 48.4245C44.191 48.4107 44.1876 48.3972 44.1809 48.3853C44.1743 48.3734 44.1647 48.3635 44.1531 48.3567C44.1414 48.3499 44.1282 48.3465 44.1147 48.3466L35.6637 48.3358L35.6444 48.3398L35.6283 48.3513L35.6183 48.3683L35.616 48.3879C35.7564 49.9326 35.8135 51.5389 35.7875 53.2066C35.7802 53.7114 35.8367 54.1229 35.9568 54.4412ZM44.5489 48.4356C42.7515 51.4666 40.3245 54.1895 37.0422 55.6952C37.0168 55.7065 36.9952 55.7252 36.9803 55.7487C36.9654 55.7723 36.9579 55.7997 36.9586 55.8275C36.9593 55.8554 36.9682 55.8824 36.9842 55.9052C37.0003 55.928 37.0227 55.9455 37.0487 55.9556C37.1471 55.9946 37.2492 56.0011 37.3548 55.9751C42.3028 54.7962 46.4882 52.3149 49.9108 48.5311C50.0367 48.3922 50.0056 48.3235 49.8175 48.3249L44.7139 48.3401C44.6401 48.3416 44.5851 48.3734 44.5489 48.4356Z" fill="#009379"/>
<path d="M50.3797 13.4415C50.3754 13.4647 50.3732 13.4885 50.3732 13.5131C50.3703 13.6578 50.3153 13.6809 50.2082 13.5825L49.7523 13.1638C49.6684 13.0871 49.6814 13.0358 49.7914 13.0098C49.9238 12.9772 50.0736 12.8991 50.167 12.7993C50.6938 12.2265 51.2032 11.6523 51.6952 11.0766C51.7835 10.9725 51.8515 10.8459 51.8993 10.6969C51.9282 10.6072 51.9767 10.5942 52.0447 10.6579L52.4811 11.0723C52.578 11.1634 52.5628 11.227 52.4355 11.2632L52.3117 11.2979C52.2278 11.3211 52.1562 11.3652 52.0968 11.4303L50.4969 13.2072C50.4362 13.2752 50.3971 13.3533 50.3797 13.4415Z" fill="#009379"/>
<path d="M10.9403 13.0033C9.48154 12.5194 9.57489 14.5025 10.6907 13.9883C10.9367 13.874 11.1878 13.7612 11.444 13.6498C12.4903 13.1898 13.2479 14.3397 12.6227 15.1968C12.3593 15.5569 11.9939 15.7869 11.5265 15.8867C11.4526 15.9026 11.3904 15.8831 11.3398 15.8281C11.1936 15.669 11.1046 15.4933 11.0728 15.3009C11.0708 15.2883 11.0727 15.2754 11.078 15.2638C11.0834 15.2522 11.0921 15.2424 11.1029 15.2357C11.1138 15.229 11.1264 15.2256 11.1392 15.226C11.152 15.2264 11.1643 15.2306 11.1748 15.238C12.2515 16.0039 13.3195 14.3636 12.0887 14.0794C11.7262 13.9969 11.2399 14.3354 10.9013 14.4634C10.2023 14.7303 9.43596 14.3202 9.60094 13.5326C9.6979 13.0669 10.017 12.7328 10.5583 12.5303C10.8448 12.424 11.0445 12.6279 11.0641 12.9078C11.0713 13.0018 11.0301 13.0336 10.9403 13.0033Z" fill="#009379"/>
<path d="M28.2417 13.6324C28.249 13.524 28.3018 13.4516 28.4002 13.4155C28.4928 13.3808 28.55 13.4111 28.5717 13.5066C28.618 13.699 28.7425 13.7944 28.9451 13.793C28.9943 13.793 29.0391 13.8067 29.0797 13.8342C29.0999 13.8487 29.1166 13.8668 29.1296 13.8885C29.1528 13.9275 29.1433 13.9557 29.1014 13.9731C28.8626 14.0816 28.7917 14.2681 28.8886 14.5328C28.9263 14.6341 28.8908 14.6818 28.7823 14.676C28.7099 14.6731 28.6441 14.65 28.5847 14.6066C28.5239 14.5632 28.4559 14.543 28.3807 14.5459C28.3141 14.5488 28.2562 14.5712 28.207 14.6131C28.0203 14.7751 27.9523 14.7346 28.0029 14.4916C28.0493 14.2689 27.9783 14.1025 27.7902 13.9926C27.7106 13.9463 27.7113 13.9015 27.7924 13.8581C27.8835 13.8089 27.9791 13.7843 28.0789 13.7843C28.1802 13.7829 28.2345 13.7322 28.2417 13.6324Z" fill="#009379"/>
<path d="M54.4587 14.4808C55.5984 14.1098 56.4146 14.9234 56.4884 16.0342C56.4942 16.1254 56.4529 16.1825 56.3646 16.2056L56.0065 16.3033C55.9865 16.3089 55.9654 16.3083 55.9458 16.3014C55.9263 16.2945 55.9094 16.2817 55.8975 16.2647C55.8856 16.2478 55.8792 16.2276 55.8793 16.2069C55.8794 16.1862 55.8859 16.1661 55.8979 16.1492C56.5101 15.2814 55.6895 14.3376 54.7083 14.8041C54.0137 15.1317 53.256 15.8802 53.4775 16.6851C53.6019 17.1321 53.9456 17.4112 54.5086 17.5226C54.5346 17.5269 54.5462 17.5421 54.5433 17.5682C54.5419 17.5899 54.5354 17.6087 54.5238 17.6246C54.5166 17.6362 54.505 17.6427 54.4891 17.6441C53.688 17.7266 53.0086 17.0019 52.9673 16.262C52.9174 15.3768 53.6707 14.7368 54.4587 14.4808Z" fill="#009379"/>
<path d="M8.44389 18.8396C8.35851 19.0811 8.23333 19.3097 8.06834 19.5252C8.02203 19.5874 8.01697 19.6532 8.05315 19.7226C8.2355 20.0726 8.48586 20.2281 8.80425 20.1891C8.89108 20.1775 8.91279 20.2101 8.86937 20.2867L8.60019 20.7619C8.58925 20.7818 8.57262 20.798 8.55238 20.8083C8.53215 20.8186 8.50921 20.8226 8.48647 20.8198C8.46373 20.8171 8.44219 20.8076 8.42457 20.7927C8.40695 20.7777 8.39404 20.7579 8.38745 20.7358L8.30496 20.4473C8.28759 20.3851 8.2572 20.3287 8.21379 20.278L6.29913 18.1019C6.27338 18.0723 6.25597 18.0366 6.24871 17.9985C6.24146 17.9603 6.24462 17.9211 6.25788 17.8849C6.2984 17.7692 6.37655 17.7244 6.49233 17.7504C7.46775 17.9688 8.43087 18.1836 9.38169 18.3948C9.52641 18.4266 9.67619 18.4281 9.83104 18.3991C9.8483 18.3957 9.86617 18.3975 9.8824 18.4043C9.89863 18.411 9.9125 18.4225 9.92226 18.4371C9.93201 18.4517 9.93721 18.4689 9.9372 18.4865C9.9372 18.504 9.93198 18.5212 9.92222 18.5358L9.5445 19.1238C9.48082 19.2221 9.4374 19.2142 9.41425 19.0999L9.39905 19.0218C9.39265 18.9919 9.37805 18.9645 9.35693 18.9426C9.33581 18.9207 9.30903 18.9053 9.27966 18.8982L8.61756 18.7463C8.53217 18.726 8.47429 18.7571 8.44389 18.8396ZM7.7666 19.4275C7.77353 19.4352 7.78212 19.4411 7.79171 19.4449C7.80131 19.4487 7.81164 19.4502 7.82192 19.4494C7.8322 19.4486 7.84215 19.4454 7.851 19.4401C7.85986 19.4348 7.86737 19.4275 7.87297 19.4189L8.28977 18.7571C8.29563 18.7482 8.29928 18.738 8.30043 18.7274C8.30158 18.7168 8.30019 18.7061 8.29637 18.6961C8.29255 18.6862 8.28642 18.6773 8.27848 18.6701C8.27054 18.663 8.26101 18.6579 8.25069 18.6552L6.90696 18.3058C6.89338 18.3032 6.87931 18.3048 6.86667 18.3104C6.85402 18.316 6.84342 18.3254 6.8363 18.3372C6.82918 18.3491 6.82589 18.3629 6.82688 18.3767C6.82787 18.3904 6.83309 18.4036 6.84183 18.4143L7.7666 19.4275Z" fill="#009379"/>
<path d="M49.4376 19.4905L49.6416 19.5273C49.7675 19.5519 49.7806 19.6033 49.6807 19.6814C49.4897 19.8289 49.4296 20.0365 49.5005 20.3041C49.5353 20.4328 49.4976 20.4596 49.3876 20.3844C49.159 20.2296 48.926 20.2325 48.6886 20.393C48.5787 20.4682 48.5446 20.4422 48.5866 20.3149C48.685 20.0256 48.617 19.8159 48.3826 19.6857C48.2856 19.6308 48.2907 19.5867 48.3978 19.5534L48.7581 19.4449C48.8232 19.4247 48.8666 19.382 48.8884 19.3169L48.9231 19.2128C48.9593 19.1057 49.0229 19.0855 49.1141 19.152C49.1691 19.1911 49.2089 19.2453 49.2335 19.3147C49.2682 19.4116 49.3363 19.4702 49.4376 19.4905Z" fill="#009379"/>
<path d="M56.7359 20.5492C56.3523 20.4957 56.0947 20.6085 55.9631 20.8877C55.9153 20.9875 55.8632 20.9904 55.8068 20.8964C55.6939 20.7098 55.6092 20.5254 55.5528 20.3431C55.5122 20.2144 55.5513 20.1826 55.67 20.2477C55.8719 20.3583 56.0868 20.4169 56.3169 20.3865C57.1809 20.2694 57.9826 20.1536 58.7222 20.0394C59.3951 19.9367 59.4863 20.1218 58.9957 20.5948C58.4631 21.1068 57.9132 21.6261 57.3459 22.1526C57.1548 22.3291 56.9826 22.5337 56.8292 22.7666C56.7786 22.8433 56.7337 22.8404 56.6946 22.7579L56.4102 22.1526C56.361 22.0485 56.3943 21.9957 56.5101 21.9942C56.5361 21.9942 56.5571 22.0029 56.5731 22.0203C56.6237 22.0723 56.6751 22.0738 56.7272 22.0246L57.1874 21.5885C57.254 21.5249 57.267 21.4518 57.2265 21.3694L56.8553 20.6339C56.8307 20.5847 56.7909 20.5565 56.7359 20.5492ZM58.5919 20.2607L57.1353 20.4625C57.1198 20.4649 57.1051 20.471 57.0923 20.4801C57.0796 20.4893 57.0693 20.5013 57.0623 20.5152C57.0553 20.529 57.0517 20.5442 57.052 20.5596C57.0522 20.575 57.0562 20.59 57.0637 20.6035L57.411 21.2457C57.4176 21.2578 57.4269 21.2682 57.4381 21.2762C57.4493 21.2842 57.4622 21.2895 57.4758 21.2918C57.4893 21.2941 57.5032 21.2933 57.5165 21.2894C57.5297 21.2856 57.5419 21.2788 57.5521 21.2696L58.618 20.3171C58.6701 20.2708 58.6614 20.252 58.5919 20.2607Z" fill="#009379"/>
<path d="M4.23468 23.4739C4.19118 23.4617 4.1453 23.4606 4.10128 23.4708C4.05725 23.4809 4.01649 23.502 3.98275 23.532C3.94901 23.5621 3.92339 23.6001 3.90823 23.6427C3.89308 23.6852 3.88888 23.7309 3.89604 23.7755C3.93366 24.0156 4.0082 24.2449 4.11963 24.4633C4.20646 24.6383 4.16015 24.6875 3.9807 24.6108C3.61817 24.4568 3.48575 24.179 3.63771 23.8124C3.90255 23.1731 4.12252 22.58 4.29764 22.0333C4.30803 22.0003 4.32793 21.971 4.35492 21.9491C4.38191 21.9271 4.4148 21.9134 4.44959 21.9096C4.66812 21.8836 4.87001 21.9067 5.05525 21.979C5.15656 22.0166 5.15439 22.0463 5.04874 22.068C4.73035 22.136 4.48577 22.3197 4.315 22.6191C4.2967 22.6515 4.28571 22.6876 4.28281 22.7248C4.2799 22.7619 4.28514 22.7992 4.29816 22.8342C4.31118 22.8691 4.33168 22.9007 4.35821 22.9269C4.38474 22.9531 4.41667 22.9732 4.45176 22.9857L6.78105 23.808C6.85196 23.8326 6.92505 23.8355 7.0003 23.8167C7.03648 23.808 7.06832 23.7907 7.09582 23.7646C7.19278 23.6735 7.22969 23.6938 7.20653 23.8254C7.17035 24.0221 7.12693 24.2181 7.07628 24.4134C7.05457 24.4973 7.00464 24.5204 6.9265 24.4828C6.08132 24.0764 5.18405 23.7401 4.23468 23.4739Z" fill="#009379"/>
<path d="M30.6882 24.8343C30.6521 25.0382 30.6542 25.2393 30.6948 25.4374C30.7005 25.4637 30.6995 25.491 30.6919 25.5167C30.6843 25.5425 30.6704 25.566 30.6514 25.585C30.6323 25.604 30.6089 25.6179 30.5831 25.6255C30.5573 25.6331 30.53 25.6341 30.5037 25.6284C29.9437 25.5112 30.2085 24.869 30.3235 24.5153C30.3496 24.4343 30.3387 24.3584 30.291 24.2875L30.1759 24.114C30.1151 24.0257 30.139 23.9838 30.2476 23.9881C30.7411 24.0084 31.1087 24.1928 31.3503 24.5414C31.4849 24.7381 31.4357 24.8119 31.2027 24.7627L30.8945 24.6954C30.7772 24.6708 30.7085 24.7171 30.6882 24.8343Z" fill="#009379"/>
<path d="M5.80201 28.4728C5.86714 28.4149 5.9272 28.4135 5.98219 28.4684C5.99227 28.4791 5.99968 28.492 6.00383 28.5059C6.00798 28.5199 6.00875 28.5345 6.00607 28.5487C5.96989 28.7367 5.93154 28.9226 5.89102 29.1063C5.85773 29.2538 5.80056 29.264 5.71952 29.1367C5.71228 29.1251 5.7036 29.115 5.69347 29.1063C5.63848 29.0499 5.57263 29.0144 5.49593 29C4.73035 28.8539 3.94452 28.7244 3.13842 28.6116C3.006 28.5943 2.80846 28.5943 2.69123 28.6615C2.58124 28.7237 2.5371 28.6926 2.55881 28.5682L2.68255 27.8826C2.69702 27.8016 2.73103 27.7929 2.78458 27.8566C2.90614 27.9998 3.11237 28.0952 3.40326 28.143C4.27882 28.2847 5.07841 28.3947 5.80201 28.4728Z" fill="#009379"/>
<path d="M52.9803 28.8351C52.9789 28.7989 52.9832 28.7635 52.9934 28.7288C53.0165 28.6521 53.0672 28.6196 53.1453 28.6311C53.1728 28.6355 53.1989 28.6456 53.2235 28.6615C53.2712 28.6919 53.3016 28.7353 53.3146 28.7917C53.3523 28.9653 53.4673 29.0557 53.6598 29.0629C53.9348 29.0759 53.9565 29.1555 53.7249 29.3016C53.6859 29.3276 53.6533 29.3616 53.6273 29.4035C53.5853 29.4701 53.573 29.5409 53.5903 29.6162C53.6121 29.7145 53.6092 29.8114 53.5817 29.9069C53.5542 30.0038 53.5057 30.0161 53.4362 29.9438C53.2249 29.721 53.0339 29.7261 52.8631 29.959C52.8125 30.0255 52.7734 30.0197 52.7459 29.9416C52.7039 29.823 52.701 29.7058 52.7372 29.5901C52.7618 29.5135 52.7481 29.4448 52.696 29.384C52.628 29.3059 52.5498 29.2502 52.4615 29.2169C52.3081 29.1605 52.3117 29.1171 52.4724 29.0868L52.8349 29.0195C52.8774 29.0117 52.9156 28.9886 52.9424 28.9547C52.9692 28.9208 52.9826 28.8782 52.9803 28.8351Z" fill="#009379"/>
<path d="M58.7938 29.1454C59.6795 29.0846 60.5681 28.9891 61.4596 28.859C61.5435 28.8459 61.605 28.8025 61.6441 28.7288C61.6556 28.7071 61.6694 28.6883 61.6853 28.6724C61.7577 28.6029 61.7989 28.6174 61.8091 28.7158L61.8916 29.4339C61.906 29.5496 61.8669 29.572 61.7743 29.5012C61.6831 29.4296 61.4965 29.3905 61.3814 29.4035C60.5854 29.4874 59.7743 29.5814 58.9479 29.6856C58.9069 29.6911 58.8688 29.71 58.8397 29.7395C58.8107 29.7689 58.7922 29.8072 58.7873 29.8483C58.7149 30.45 58.9139 30.8962 59.3843 31.187C59.3989 31.1963 59.4104 31.2099 59.4173 31.2258C59.4242 31.2418 59.4261 31.2594 59.4228 31.2765C59.4195 31.2935 59.4112 31.3092 59.3989 31.3215C59.3866 31.3338 59.3709 31.3421 59.3539 31.3454C59.144 31.3859 58.9552 31.3511 58.7873 31.2412C58.7601 31.2235 58.7369 31.2001 58.7193 31.1724C58.7017 31.1447 58.6901 31.1135 58.6852 31.0807C58.5912 30.4168 58.5101 29.7536 58.4421 29.0911C58.4262 28.9248 58.4667 28.9096 58.5637 29.0455C58.5825 29.0716 58.6064 29.0926 58.6353 29.1085C58.6845 29.1374 58.7373 29.1497 58.7938 29.1454Z" fill="#009379"/>
<path d="M9.97866 30.9505L9.87446 30.7813C9.81802 30.6901 9.8419 30.6316 9.9461 30.6055C10.1429 30.5578 10.2905 30.4399 10.3889 30.2519C10.4743 30.0913 10.5474 30.0971 10.6082 30.2692C10.6878 30.492 10.8636 30.6077 11.1357 30.6164C11.2529 30.6207 11.2631 30.6561 11.1661 30.7227C10.9476 30.876 10.8701 31.0684 10.9338 31.2998C10.9686 31.4256 10.9259 31.4632 10.8057 31.4126C10.5655 31.3085 10.347 31.3215 10.1502 31.4517C10.0807 31.498 10.0445 31.4792 10.0416 31.3953L10.0351 31.1327C10.0322 31.0677 10.0134 31.0069 9.97866 30.9505Z" fill="#009379"/>
<path d="M18.6923 30.6272C18.7024 30.6287 18.7119 30.6294 18.7205 30.6294C18.8305 30.6207 18.853 30.6605 18.7878 30.7487C18.6388 30.9483 18.5635 31.1769 18.5621 31.4343C18.5621 31.5182 18.5273 31.5377 18.4579 31.4929C18.2495 31.3598 18.0259 31.3533 17.7871 31.4734C17.7017 31.5168 17.6662 31.4907 17.6807 31.3953C17.7198 31.1378 17.6489 30.9259 17.468 30.7596C17.3884 30.6858 17.4029 30.6417 17.5114 30.6272C17.7632 30.5968 17.9441 30.4732 18.0541 30.2562C18.0961 30.1709 18.1445 30.168 18.1995 30.2475C18.2791 30.3647 18.3768 30.4638 18.4926 30.5448C18.5519 30.5867 18.6185 30.6142 18.6923 30.6272Z" fill="#009379"/>
<path d="M4.38881 32.9097C4.20502 33.1917 4.04727 33.5193 3.91557 33.8925C3.81572 34.1789 3.57476 34.4241 3.27301 34.4675C2.04216 34.6432 1.98789 33.3588 2.37864 32.5907C2.41771 32.5155 2.47849 32.4873 2.56098 32.5061L2.87141 32.5799C3.1348 32.6421 3.13987 32.7216 2.88661 32.8185C2.39383 33.0073 2.09209 33.6365 2.53711 34.0292C2.86924 34.3243 3.3338 33.9945 3.45536 33.6408C3.65508 33.0637 3.9286 32.2197 4.68621 32.2718C5.86931 32.3542 5.85411 33.7146 5.36785 34.4696C5.32443 34.5376 5.26293 34.5687 5.18333 34.5629C5.0169 34.5514 4.85119 34.5101 4.68621 34.4393C4.58057 34.393 4.58057 34.346 4.68621 34.2982C4.94888 34.1789 5.25279 34.0596 5.38739 33.784C5.58565 33.3805 5.53066 33.0485 5.22241 32.7882C5.16159 32.7368 5.09054 32.6989 5.01396 32.677C4.93739 32.6551 4.85703 32.6497 4.77822 32.6612C4.6994 32.6727 4.62393 32.7008 4.5568 32.7436C4.48967 32.7864 4.43241 32.843 4.38881 32.9097Z" fill="#009379"/>
<path d="M59.5254 35.1032C59.5191 35.1311 59.5229 35.1602 59.536 35.1853C59.5492 35.2104 59.5708 35.2297 59.597 35.2399C60.1744 35.4698 60.7302 35.6846 61.2642 35.8842C61.4885 35.9667 61.6976 35.945 61.8915 35.8192C61.9035 35.8114 61.9175 35.8073 61.9318 35.8074C61.9461 35.8074 61.96 35.8116 61.972 35.8194C61.9839 35.8272 61.9933 35.8383 61.9991 35.8514C62.0049 35.8644 62.0067 35.8788 62.0044 35.8929L61.9154 36.5308C61.9009 36.6321 61.8677 36.6386 61.8156 36.5503C61.7085 36.3652 61.5486 36.2299 61.3358 36.1446C60.4603 35.7888 59.6722 35.4792 58.9718 35.216C58.4088 35.0048 58.4175 34.8182 58.9978 34.6562C59.7735 34.4407 60.5811 34.2266 61.4205 34.014C61.6245 33.9619 61.8083 33.8744 61.9719 33.7515C62.0471 33.6936 62.0898 33.7124 62.0999 33.8079C62.1216 34.035 62.1144 34.2628 62.0782 34.4913C62.058 34.623 62.0073 34.636 61.9263 34.5304C61.906 34.5029 61.8742 34.4848 61.8308 34.4762C61.7845 34.4675 61.7389 34.4682 61.694 34.4783C60.9878 34.6345 60.2945 34.8103 59.6144 35.0055C59.5898 35.0128 59.5688 35.0272 59.5514 35.0489C59.5384 35.0648 59.5297 35.0829 59.5254 35.1032Z" fill="#009379"/>
<path d="M21.408 35.2616L21.2365 35.1075C21.1236 35.0048 21.1439 34.9491 21.2973 34.9405C21.5477 34.9274 21.7105 34.8139 21.7857 34.5998C21.8639 34.3785 21.9341 34.3807 21.9963 34.6063C22.0412 34.7741 22.1425 34.8681 22.3002 34.8884C22.6316 34.9303 22.6606 35.0562 22.387 35.2659C22.2727 35.3512 22.2539 35.4597 22.3306 35.5913C22.4059 35.7215 22.369 35.7837 22.2199 35.7779C22.1461 35.7765 22.0795 35.7512 22.0202 35.702C21.9565 35.6514 21.8892 35.6449 21.8183 35.6825C21.7054 35.7432 21.5853 35.7707 21.4579 35.7649C21.3407 35.7591 21.3226 35.7136 21.4037 35.6282C21.4847 35.5443 21.5028 35.446 21.4579 35.3332C21.4465 35.306 21.4295 35.2816 21.408 35.2616Z" fill="#009379"/>
<path d="M45.0612 34.8905L45.3174 34.9491C45.4491 34.9795 45.4585 35.0316 45.3456 35.1053C45.1386 35.2413 45.0699 35.4402 45.1394 35.702C45.1726 35.8264 45.1357 35.8531 45.0286 35.7823C44.8058 35.6347 44.5815 35.6369 44.3557 35.7888C44.2327 35.8727 44.1929 35.8437 44.2363 35.702C44.3231 35.4142 44.245 35.2023 44.0018 35.0663C43.9266 35.0258 43.9302 34.9932 44.0127 34.9687L44.3731 34.8667C44.4555 34.8435 44.5076 34.7907 44.5294 34.7083L44.5619 34.5976C44.6155 34.4082 44.6864 34.4009 44.7747 34.576L44.8528 34.7278C44.8732 34.7686 44.9025 34.8043 44.9386 34.8324C44.9746 34.8606 45.0165 34.8804 45.0612 34.8905Z" fill="#009379"/>
<path d="M32.0276 34.9752C32.0913 35.3845 32.1239 35.7519 32.1253 36.0773C32.1282 36.9163 32.0313 36.9278 31.8344 36.1121C31.7693 35.8416 31.8033 35.4604 31.9365 34.9687C31.9755 34.8255 32.0059 34.8276 32.0276 34.9752Z" fill="#009379"/>
<path d="M5.01835 39.6941C5.5104 39.6276 5.91345 39.4924 6.22749 39.2884C6.30564 39.2363 6.35268 39.2566 6.3686 39.3492L6.47714 39.9415C6.49884 40.0557 6.4547 40.0941 6.34472 40.0565C6.20361 40.0087 6.04514 39.9827 5.89753 40.0109C5.15656 40.1599 4.3794 40.3349 3.56607 40.536C3.50529 40.5519 3.45464 40.5844 3.41412 40.6336L3.35767 40.703C3.28531 40.7927 3.22743 40.7833 3.18401 40.6748C2.86924 39.8851 2.40686 37.9975 3.78315 37.9975C4.15436 37.9975 4.42789 38.3533 4.55379 38.6722C4.58563 38.7518 4.63846 38.7699 4.71226 38.7265C5.32299 38.3663 5.75715 37.9179 6.01475 37.3813C6.01929 37.3718 6.02592 37.3635 6.03413 37.357C6.04234 37.3505 6.05192 37.3459 6.06215 37.3436C6.07239 37.3413 6.08301 37.3414 6.09322 37.3438C6.10344 37.3462 6.11297 37.3508 6.12112 37.3574L6.17105 37.3965C6.19977 37.4181 6.22046 37.4488 6.22989 37.4837C6.23931 37.5187 6.23694 37.5559 6.22315 37.5896C5.9641 38.2318 5.55671 38.7424 5.00098 39.1213C4.90402 39.1879 4.83455 39.2768 4.79258 39.3882C4.7564 39.4837 4.77522 39.5676 4.84902 39.6399C4.89678 39.6847 4.95322 39.7028 5.01835 39.6941ZM3.42497 40.0109L4.39315 39.846C4.4691 39.8332 4.53689 39.7909 4.58165 39.7283C4.62642 39.6656 4.6445 39.5878 4.63194 39.5119L4.58853 39.2624C4.56904 39.1482 4.53089 39.0384 4.47625 38.9392C4.42162 38.84 4.35156 38.7533 4.27011 38.6842C4.18865 38.6151 4.09739 38.5649 4.00154 38.5364C3.90569 38.5079 3.80714 38.5017 3.71152 38.5182L3.62686 38.5334C3.53116 38.5496 3.44024 38.5882 3.3593 38.6469C3.27835 38.7057 3.20897 38.7834 3.15514 38.8757C3.1013 38.968 3.06406 39.0731 3.04554 39.1848C3.02703 39.2966 3.02761 39.4129 3.04725 39.5271L3.09066 39.7744C3.10393 39.8499 3.1465 39.9171 3.20911 39.9614C3.27172 40.0057 3.34931 40.0235 3.42497 40.0109Z" fill="#009379"/>
<path d="M42.2934 43.1721L42.0156 42.2478C42.0019 42.2014 41.9736 42.1607 41.9349 42.1317C41.8961 42.1028 41.849 42.0872 41.8006 42.0872L40.496 42.0851C40.4034 42.0851 40.3447 42.1292 40.3201 42.2174L40.1052 42.979C40.0927 43.0226 40.0918 43.0687 40.1024 43.1128C40.1131 43.1569 40.135 43.1975 40.166 43.2306L40.3896 43.4671C40.4017 43.4804 40.4097 43.4969 40.4126 43.5146C40.4155 43.5323 40.4132 43.5504 40.406 43.5667C40.3988 43.5829 40.387 43.5965 40.3721 43.6058C40.3573 43.6152 40.3399 43.6197 40.3223 43.619L39.4518 43.5995C39.2101 43.5937 39.1877 43.5214 39.3845 43.3825C39.6407 43.2017 39.8201 42.9515 39.9229 42.6318C40.3281 41.3778 40.7268 40.1526 41.119 38.9565C41.1451 38.8755 41.1972 38.819 41.2753 38.7872C41.3549 38.7525 41.4388 38.7561 41.5271 38.7981C41.5937 38.8299 41.6378 38.8812 41.6595 38.9521C42.1183 40.3884 42.5655 41.7654 43.0011 43.0831C43.0416 43.2032 43.1104 43.2957 43.2073 43.3608C43.4519 43.5257 43.4266 43.611 43.1314 43.6168C42.8072 43.6226 42.4765 43.6118 42.1393 43.5843C41.9642 43.5698 41.9533 43.5192 42.1067 43.4324L42.2131 43.3717C42.247 43.3527 42.2734 43.3226 42.288 43.2863C42.3026 43.2501 42.3045 43.2098 42.2934 43.1721ZM40.5177 41.7509C40.5146 41.7608 40.5139 41.7712 40.5156 41.7813C40.5173 41.7915 40.5214 41.8011 40.5276 41.8093C40.5337 41.8176 40.5417 41.8243 40.5509 41.8288C40.5602 41.8334 40.5704 41.8357 40.5806 41.8356L41.7811 41.8442C41.7914 41.8444 41.8016 41.8421 41.8108 41.8375C41.82 41.8329 41.8281 41.8263 41.8342 41.818C41.8403 41.8097 41.8444 41.8001 41.8462 41.79C41.8479 41.7798 41.8472 41.7694 41.8441 41.7596L41.2579 39.7223C41.2537 39.7093 41.2454 39.698 41.2343 39.6899C41.2232 39.6819 41.2098 39.6776 41.1961 39.6776C41.1824 39.6776 41.169 39.6819 41.1579 39.6899C41.1468 39.698 41.1385 39.7093 41.1342 39.7223L40.5177 41.7509Z" fill="#009379"/>
<path d="M23.3509 41.5991C23.3321 41.9129 23.3277 42.2391 23.3379 42.5776C23.3487 42.8878 23.2489 43.2176 23.5658 43.4151C23.7235 43.5134 23.7098 43.572 23.5246 43.5908C23.1801 43.6255 22.8227 43.6226 22.4522 43.5821C22.2973 43.5648 22.2886 43.5185 22.4261 43.4433C22.4927 43.4071 22.5491 43.3608 22.5954 43.3044C22.6475 43.2422 22.6736 43.1706 22.6736 43.0896V39.4403C22.6736 39.3593 22.6512 39.2841 22.6063 39.2146C22.5614 39.1438 22.505 39.0845 22.437 39.0367C22.3197 38.9543 22.3328 38.9065 22.476 38.8935C23.4934 38.8024 24.314 38.8111 24.9378 38.9196C25.4739 39.0129 26.0883 39.4793 26.1013 40.0803C26.1158 40.7934 25.6961 41.223 24.8422 41.3691C24.822 41.3726 24.8028 41.3805 24.7861 41.3922C24.7693 41.404 24.7554 41.4193 24.7454 41.437C24.7354 41.4547 24.7295 41.4744 24.7282 41.4945C24.727 41.5147 24.7303 41.5349 24.738 41.5535C24.9551 42.0959 25.5304 43.376 26.0731 43.6168C26.1527 43.653 26.1983 43.7145 26.2099 43.8013L26.2229 43.8924C26.2261 43.9181 26.222 43.9442 26.2111 43.9677C26.2002 43.9913 26.1829 44.0113 26.1612 44.0255C26.1395 44.0397 26.1143 44.0476 26.0884 44.0482C26.0624 44.0489 26.0368 44.0422 26.0145 44.0291C25.1519 43.5257 24.4927 42.7099 24.0369 41.5817C24.022 41.5451 23.9966 41.5137 23.9638 41.4913C23.931 41.469 23.8922 41.4566 23.8523 41.4559H23.505C23.4081 41.4544 23.3567 41.5022 23.3509 41.5991ZM23.3509 39.3079L23.3335 40.9525C23.3329 40.9914 23.3401 41.0301 23.3545 41.0663C23.369 41.1024 23.3904 41.1354 23.4177 41.1632C23.4449 41.191 23.4774 41.2132 23.5133 41.2284C23.5491 41.2437 23.5876 41.2516 23.6266 41.2519L24.1454 41.2563C24.4668 41.2592 24.7761 41.1553 25.0052 40.9674C25.2343 40.7795 25.3647 40.5229 25.3676 40.2539L25.3697 40.0499C25.3712 39.9166 25.3412 39.7842 25.2816 39.6603C25.2219 39.5365 25.1338 39.4236 25.0221 39.3281C24.9104 39.2326 24.7774 39.1563 24.6307 39.1038C24.484 39.0512 24.3265 39.0232 24.1671 39.0215L23.6483 39.0172C23.5704 39.0166 23.4954 39.0469 23.4396 39.1013C23.3839 39.1558 23.352 39.2301 23.3509 39.3079Z" fill="#009379"/>
<path d="M14.5048 42.6579C14.7639 41.8247 15.0178 40.9966 15.2668 40.1736C15.4014 39.7288 15.588 39.3318 15.1561 38.9955C15.0736 38.9319 15.0844 38.8957 15.1886 38.887C15.4433 38.8668 15.7147 38.8668 16.0027 38.887C16.2588 38.9044 16.2856 38.9919 16.083 39.1495C15.8905 39.3 15.7566 39.4996 15.6814 39.7484C15.2733 41.108 14.8717 42.3852 14.4766 43.58C14.4578 43.6335 14.4216 43.6703 14.3681 43.6906C14.2885 43.7181 14.2067 43.7239 14.1227 43.708C14.0547 43.6949 14.0091 43.6552 13.986 43.5886C13.5374 42.2608 13.0974 40.9547 12.6661 39.6703C12.5764 39.4027 12.4331 39.1727 12.2363 38.9803C12.2283 38.9723 12.2228 38.9621 12.2205 38.9509C12.2182 38.9398 12.2192 38.9283 12.2233 38.9177C12.2275 38.9071 12.2346 38.898 12.2438 38.8914C12.2531 38.8848 12.264 38.881 12.2754 38.8805L13.3304 38.8718C13.4621 38.8718 13.4954 38.929 13.4303 39.0432L13.3521 39.1778C13.2971 39.2718 13.287 39.3701 13.3217 39.4728L14.3789 42.66C14.4223 42.7873 14.4643 42.7866 14.5048 42.6579Z" fill="#009379"/>
<path d="M28.4892 42.8423C28.4849 43.1113 28.5413 43.2827 28.7454 43.4498C28.8568 43.5423 28.8402 43.593 28.6954 43.6016C28.2815 43.6291 27.9024 43.6147 27.5579 43.5583C27.4422 43.5394 27.4364 43.5033 27.5406 43.4498C27.7316 43.3543 27.8271 43.1865 27.8271 42.9464C27.83 41.7169 27.8293 40.6003 27.8249 39.5965C27.8249 39.4142 27.7598 39.1973 27.6317 39.0563C27.5391 38.955 27.5615 38.9044 27.699 38.9044L28.6802 38.8979C28.7844 38.8979 28.804 38.9377 28.7388 39.0172C28.5695 39.2284 28.487 39.4685 28.4914 39.7375C28.5087 40.8006 28.508 41.8356 28.4892 42.8423Z" fill="#009379"/>
<path d="M37.3635 39.3405C37.3461 40.2054 37.3461 41.4486 37.3635 43.0701C37.3649 43.2769 37.4735 43.4042 37.6891 43.4519C37.7499 43.465 37.7608 43.4968 37.7217 43.5474C37.6985 43.5734 37.6703 43.5872 37.637 43.5886C37.2969 43.6016 36.9264 43.6139 36.5256 43.6255C36.3895 43.6298 36.362 43.577 36.4431 43.4671L36.6015 43.2545C36.6536 43.1851 36.6797 43.107 36.6797 43.0202L36.6775 39.3166C36.6775 39.2356 36.6377 39.1893 36.5581 39.1778C35.9764 39.0939 35.5509 39.2891 35.2817 39.7636C35.26 39.8012 35.2296 39.8301 35.1905 39.8503C35.1572 39.8663 35.1239 39.8641 35.0907 39.8438C35.0458 39.8164 35.0292 39.7773 35.0407 39.7267L35.2166 38.9933C35.2354 38.9152 35.2853 38.8762 35.3664 38.8762H38.6855C38.7622 38.8762 38.8107 38.9123 38.831 38.9847C38.9004 39.2277 38.9656 39.4663 39.0263 39.7006C39.0423 39.7614 39.035 39.8185 39.0046 39.872C38.9982 39.8831 38.989 39.8924 38.9779 39.8988C38.9668 39.9053 38.9543 39.9087 38.9416 39.9087C38.929 39.9087 38.9167 39.9053 38.906 39.8988C38.8953 39.8924 38.8866 39.8831 38.8809 39.872C38.5915 39.334 38.1349 39.1025 37.5111 39.1778C37.4156 39.1893 37.3664 39.2436 37.3635 39.3405Z" fill="#009379"/>
<path d="M50.028 39.4424C50.0266 40.6083 50.0237 41.8066 50.0194 43.0375C50.0194 43.2154 50.0801 43.3196 50.2191 43.4281C50.3884 43.5597 50.366 43.6241 50.1518 43.6212L49.164 43.6038C48.9513 43.6009 48.9368 43.5308 49.1206 43.3934C49.2335 43.3095 49.2892 43.1836 49.2878 43.0158C49.2777 41.9223 49.2805 40.8158 49.2965 39.6963C49.2986 39.4576 49.2574 39.2493 49.1185 39.0519C49.0577 38.9637 49.0808 38.9188 49.1879 38.9174L50.1431 38.9044C50.2791 38.9029 50.303 38.9536 50.2147 39.0562L50.1344 39.1539C50.0657 39.2351 50.028 39.3374 50.028 39.4424Z" fill="#009379"/>
<path d="M59.4559 40.2691C59.788 39.8243 60.5435 39.6312 60.9277 40.1346C61.3532 40.6943 61.0927 41.4862 60.563 41.8963C60.4964 41.9484 60.4277 41.9513 60.3568 41.905L60.1809 41.7922C59.9566 41.6461 59.9783 41.56 60.2461 41.534C60.644 41.4949 60.8785 41.2823 60.9494 40.8961C60.9634 40.8194 60.9601 40.7406 60.9395 40.6654C60.919 40.5902 60.8818 40.5206 60.8308 40.4616C60.7798 40.4027 60.7161 40.356 60.6446 40.3249C60.5731 40.2938 60.4955 40.2792 60.4176 40.2821C59.9617 40.2995 59.5775 41.0415 59.241 41.3257C58.7706 41.722 58.322 41.7068 57.8951 41.2801C57.2742 40.6596 57.767 39.6421 58.3488 39.2081C58.378 39.1866 58.4129 39.1747 58.4487 39.1739C58.4846 39.1731 58.5195 39.1836 58.5485 39.2038L58.898 39.4446C59.0832 39.5719 59.0637 39.6348 58.8394 39.6334C58.3068 39.6305 57.9674 39.8662 57.8213 40.3407C57.759 40.5417 57.7902 40.7131 57.9146 40.8549C58.5832 41.6143 59.0977 40.7464 59.4559 40.2691Z" fill="#009379"/>
<path d="M5.48941 45.7886L6.2644 45.4458C6.35702 45.4039 6.3903 45.3345 6.36425 45.2375C6.27163 44.8759 6.06251 44.6112 5.73689 44.4435C5.61822 44.3813 5.62039 44.3241 5.7434 44.2721L6.32735 44.0226C6.42431 43.9821 6.45326 44.011 6.41418 44.1093C6.28538 44.4333 6.35557 44.779 6.62475 45.1464C6.6783 45.2202 6.74559 45.2368 6.82664 45.1963L7.86212 44.6951C7.95329 44.6489 7.98223 44.578 7.94895 44.4825C7.82015 44.1122 7.62984 43.7701 7.37803 43.4563C7.33271 43.3997 7.27159 43.3574 7.20219 43.3348L6.8961 43.2306C6.73836 43.1771 6.73763 43.1222 6.89393 43.0657C7.10088 42.9905 7.29047 42.9891 7.46269 43.0614C7.52492 43.0874 7.5705 43.1316 7.59945 43.1938L8.42436 44.9967C8.45041 45.0531 8.441 45.1045 8.39614 45.1508C8.35417 45.1942 8.29845 45.2064 8.22898 45.1876C8.13636 45.1631 8.04664 45.171 7.9598 45.2115C7.2883 45.5297 6.59363 45.845 5.87582 46.1575C5.71518 46.2255 5.59796 46.331 5.52415 46.4742C5.51651 46.4892 5.50478 46.5017 5.49032 46.5103C5.47586 46.5189 5.45927 46.5232 5.44246 46.5227C5.42565 46.5223 5.40931 46.5171 5.39534 46.5077C5.38136 46.4984 5.37033 46.4853 5.36351 46.4699L4.54728 44.6648C4.5111 44.5867 4.51906 44.5136 4.57116 44.4456C4.65655 44.3343 4.78752 44.2504 4.96408 44.194C5.06683 44.1607 5.0965 44.194 5.05308 44.2938L4.89027 44.6539C4.85843 44.7233 4.85771 44.7928 4.8881 44.8622L5.25062 45.6975C5.25988 45.7191 5.27341 45.7385 5.29044 45.7548C5.30747 45.7711 5.32766 45.7838 5.34986 45.7923C5.37205 45.8007 5.3958 45.8048 5.41976 45.8042C5.44371 45.8035 5.46738 45.7983 5.48941 45.7886Z" fill="#009379"/>
<path d="M56.8813 44.5888C57.5311 44.8897 58.1614 45.1884 58.7721 45.4849C58.9067 45.55 59.0955 45.6107 59.2475 45.5804C59.3821 45.5543 59.411 45.5984 59.3343 45.7127C59.2243 45.879 59.1361 46.0598 59.0695 46.2551C59.0275 46.3752 58.9689 46.3846 58.8937 46.2833L58.7916 46.1466C58.7381 46.0772 58.6722 46.023 58.5941 45.9839C57.9298 45.6541 57.2409 45.3251 56.5275 44.9967C56.4016 44.9381 56.2214 44.8926 56.0824 44.9056C55.9435 44.9186 55.9146 44.868 55.9956 44.7537C56.1085 44.5946 56.1917 44.4189 56.2453 44.2265C56.2756 44.1151 56.3256 44.1057 56.395 44.1983C56.5253 44.3704 56.6874 44.5006 56.8813 44.5888Z" fill="#009379"/>
<path d="M23.785 46.2096L23.8437 46.4959C23.8473 46.5147 23.8452 46.5342 23.8376 46.5518C23.8301 46.5694 23.8174 46.5843 23.8012 46.5946C23.7851 46.6049 23.7662 46.6101 23.7471 46.6095C23.7279 46.6089 23.7094 46.6026 23.6939 46.5914C23.4638 46.4236 23.2286 46.4229 22.9884 46.5892C22.9073 46.6442 22.8624 46.6232 22.8538 46.5263C22.848 46.4627 22.8675 46.407 22.9124 46.3593C22.9432 46.328 22.961 46.2862 22.9622 46.2423C22.9634 46.1984 22.9479 46.1557 22.9189 46.1228L22.6627 45.832C22.5802 45.7395 22.6012 45.6946 22.7257 45.6975C23.0643 45.7047 23.2568 45.5391 23.3031 45.2007C23.3056 45.1889 23.312 45.1784 23.3213 45.1709C23.3305 45.1633 23.3422 45.1592 23.3541 45.1592C23.3661 45.1592 23.3777 45.1633 23.387 45.1709C23.3963 45.1784 23.4027 45.1889 23.4052 45.2007C23.4457 45.5377 23.6164 45.6946 23.9175 45.6715C24.0419 45.6614 24.0904 45.717 24.0629 45.8385C24.0484 45.9007 24.0094 45.9398 23.9457 45.9557C23.8125 45.989 23.759 46.0736 23.785 46.2096Z" fill="#009379"/>
<path d="M39.4279 45.6281C39.5539 45.6527 39.6732 45.6953 39.7861 45.7561C39.8845 45.8096 39.8816 45.8559 39.7774 45.8949C39.5575 45.9759 39.48 46.1611 39.5452 46.4504C39.5871 46.6384 39.5285 46.6775 39.3693 46.5675C39.1595 46.4243 38.9562 46.428 38.7593 46.5784C38.6826 46.6377 38.645 46.6189 38.6464 46.522L38.6551 46.0902C38.658 46.0034 38.6161 45.9579 38.5292 45.9535C38.4786 45.9506 38.4475 45.9289 38.4359 45.8884C38.4098 45.7959 38.4424 45.7358 38.5336 45.7084L38.8462 45.6107C38.9113 45.589 38.9489 45.5442 38.959 45.4762C38.9692 45.3894 39.0155 45.3301 39.098 45.2983C39.1892 45.2636 39.2311 45.2947 39.2239 45.3916C39.221 45.4249 39.2275 45.4574 39.2434 45.4892C39.2825 45.5659 39.344 45.6122 39.4279 45.6281Z" fill="#009379"/>
<path d="M48.9101 45.4936C48.9318 45.4574 48.9433 45.4191 48.9448 45.3786C48.9477 45.3034 48.986 45.2744 49.0598 45.2918C49.0816 45.2976 49.1018 45.307 49.1206 45.32C49.1452 45.3388 49.1612 45.3634 49.1684 45.3938C49.1843 45.4589 49.2133 45.516 49.2552 45.5652C49.329 45.6505 49.4224 45.691 49.5353 45.6867C49.5743 45.6838 49.6112 45.6903 49.646 45.7062C49.7661 45.7568 49.774 45.8212 49.6698 45.8993L49.5548 45.9861C49.5236 46.0099 49.4993 46.0415 49.484 46.0776C49.4688 46.1138 49.4633 46.1533 49.468 46.1922L49.507 46.5133C49.5258 46.6637 49.4781 46.689 49.3638 46.5892C49.1612 46.4099 48.9752 46.3911 48.8059 46.5328C48.6206 46.6861 48.5569 46.6457 48.6148 46.4113C48.6785 46.1597 48.6069 45.989 48.3999 45.8993C48.2856 45.8501 48.2863 45.8046 48.4021 45.7626L48.7364 45.6368C48.8117 45.6093 48.8695 45.5616 48.9101 45.4936Z" fill="#009379"/>
<path d="M55.9956 50.5792L54.0071 49.1255C53.942 49.0793 53.8704 49.0503 53.7922 49.0388L53.5578 49.0062C53.4348 48.9889 53.416 48.9353 53.5013 48.8457C53.662 48.6779 53.7915 48.4978 53.8899 48.3054C53.9493 48.1897 53.9941 48.1948 54.0245 48.3206L54.0462 48.4009C54.0694 48.492 54.1193 48.5658 54.196 48.6222L56.2887 50.1409C56.3269 50.169 56.3746 50.1811 56.4216 50.1747C56.4686 50.1682 56.5113 50.1436 56.5405 50.1062C56.7228 49.8748 56.7735 49.5992 56.6924 49.2796C56.6273 49.0236 56.6953 48.9823 56.8965 49.1559C57.1498 49.3772 57.1816 49.6108 56.992 49.8567C56.5911 50.3789 56.2026 50.9119 55.8263 51.4557C55.7843 51.5179 55.7257 51.5519 55.6505 51.5577C55.5057 51.5693 55.3719 51.5389 55.2488 51.4666C55.0115 51.3277 55.0303 51.2503 55.3053 51.2344C55.6034 51.2171 55.8458 51.0695 56.0325 50.7918C56.089 50.7094 56.0767 50.6385 55.9956 50.5792Z" fill="#009379"/>
<path d="M10.0047 49.2297C10.1364 49.033 10.0915 48.9751 9.87012 49.0561L7.92724 49.7612C7.8433 49.7916 7.79989 49.8516 7.79699 49.9413C7.79555 50.0006 7.77456 50.052 7.73404 50.0954C7.64865 50.1865 7.5705 50.1807 7.49959 50.078L7.25863 49.7244C7.1718 49.5971 7.20508 49.5421 7.35849 49.5595C7.62116 49.5898 7.8708 49.5812 8.1161 49.4857C8.90917 49.1791 9.73264 48.8941 10.5865 48.6309C10.6424 48.614 10.7025 48.6179 10.7558 48.6417C10.8817 48.6952 10.9056 48.7806 10.8275 48.8977C10.2905 49.6947 9.74856 50.4794 9.20151 51.2518C9.10165 51.3928 8.99094 51.5924 8.96706 51.766C8.94825 51.9005 8.89687 51.9142 8.81293 51.8072L8.38311 51.2605C8.31654 51.1751 8.3368 51.1411 8.44389 51.1585C8.55244 51.1758 8.63927 51.1404 8.70439 51.0522C9.1921 50.4027 9.62554 49.7952 10.0047 49.2297Z" fill="#009379"/>
<path d="M51.5194 51.8875C51.5816 52.0582 51.6482 52.2216 51.7191 52.3778C52.0447 53.0953 52.3689 53.8112 52.6916 54.5258C52.9058 54.9973 52.7843 55.1108 52.3269 54.8664C51.3718 54.3522 50.4448 53.749 49.4962 53.4019C49.4021 53.3672 49.3905 53.3151 49.4615 53.2457L49.8565 52.8443C49.9303 52.7705 49.9926 52.7792 50.0432 52.8703C50.1995 53.1495 50.439 53.3202 50.7618 53.3824C50.837 53.3968 50.9022 53.3773 50.9572 53.3238L51.4716 52.8248C51.5252 52.7727 51.5476 52.7098 51.5389 52.636C51.4868 52.2339 51.2951 52.0198 50.9637 51.9938C50.8291 51.9837 50.816 51.9381 50.9246 51.8571C51.0461 51.7645 51.1583 51.6553 51.2611 51.5295C51.29 51.4933 51.3291 51.4716 51.3783 51.4644C51.4275 51.4572 51.4789 51.4543 51.5324 51.4557L51.5482 51.4606L51.5602 51.4717L51.5662 51.4871L51.565 51.5035L51.515 51.6575C51.4904 51.7342 51.4919 51.8108 51.5194 51.8875ZM51.7625 52.9897C51.7583 52.9799 51.7519 52.9713 51.7437 52.9645C51.7355 52.9577 51.7258 52.9529 51.7154 52.9506C51.7051 52.9483 51.6943 52.9484 51.684 52.9511C51.6737 52.9537 51.6641 52.9588 51.6562 52.9658L51.0505 53.4974C51.0425 53.5044 51.0364 53.5133 51.0325 53.5232C51.0286 53.5331 51.0271 53.5438 51.0282 53.5544C51.0292 53.565 51.0328 53.5751 51.0386 53.5841C51.0443 53.593 51.0521 53.6005 51.0613 53.6058L52.1967 54.2849C52.2089 54.2929 52.2234 54.2966 52.2379 54.2956C52.2525 54.2946 52.2663 54.2888 52.2773 54.2793C52.2883 54.2698 52.296 54.2569 52.299 54.2427C52.3021 54.2284 52.3005 54.2136 52.2944 54.2003L51.7625 52.9897Z" fill="#009379"/>
<path d="M11.9259 54.8295C11.9215 54.8512 11.9208 54.8736 11.9237 54.8968C11.9411 55.0385 11.8962 55.061 11.7891 54.964C11.6574 54.844 11.5236 54.721 11.3875 54.5952C11.3661 54.5751 11.3501 54.5499 11.3411 54.5219C11.332 54.494 11.3303 54.4642 11.3359 54.4353C11.3416 54.4065 11.3544 54.3795 11.3733 54.357C11.3922 54.3345 11.4165 54.3172 11.444 54.3066C11.5634 54.2633 11.6241 54.2524 11.7153 54.1569C12.2493 53.5914 12.7877 53.0294 13.3304 52.4711C13.4013 52.3988 13.4585 52.2737 13.5019 52.0958C13.5178 52.0292 13.5547 52.0141 13.6126 52.0502C13.8499 52.2035 14.0048 52.3569 14.0772 52.5102C14.0931 52.5449 14.0909 52.5782 14.0706 52.61C14.033 52.6678 13.9795 52.7047 13.91 52.7206C13.8188 52.7409 13.7414 52.7843 13.6777 52.8508C13.1191 53.4366 12.5807 54.0051 12.0626 54.5561C11.9917 54.6328 11.9461 54.7239 11.9259 54.8295Z" fill="#009379"/>
<path d="M17.1467 58.1035C17.4549 57.603 17.769 57.1062 18.0888 56.613C18.2451 56.3743 18.3189 56.127 18.3102 55.8709C18.3097 55.8581 18.3122 55.8452 18.3176 55.8335C18.3231 55.8218 18.3312 55.8116 18.3415 55.8037C18.3517 55.7958 18.3636 55.7905 18.3764 55.7883C18.3891 55.786 18.4021 55.7868 18.4144 55.7907C18.6171 55.8543 18.7784 55.9628 18.8985 56.1161C18.9666 56.2043 18.9456 56.2535 18.8356 56.2636C18.6561 56.2796 18.5143 56.3678 18.4101 56.5283C18.028 57.117 17.646 57.6971 17.2639 58.2684C17.1496 58.4391 17.0989 58.6329 17.112 58.8499C17.1178 58.9352 17.0845 58.9547 17.0121 58.9084L16.6387 58.6763C16.5736 58.6358 16.5389 58.5765 16.5345 58.4984L16.4195 55.7494C16.4093 55.5426 16.3449 55.5245 16.2263 55.6952C15.9281 56.1204 15.6553 56.5399 15.4079 56.9536C15.2921 57.1489 15.2552 57.3644 15.2972 57.6001C15.3189 57.7173 15.2776 57.747 15.1734 57.6891C15.0171 57.6038 14.8536 57.5105 14.6828 57.4092C14.6018 57.36 14.6054 57.3195 14.6937 57.2877C14.8739 57.2248 15.0475 57.1011 15.1517 56.9384C15.6264 56.2022 16.0873 55.5028 16.5345 54.8404C16.74 54.5352 16.8507 54.5663 16.8667 54.9337L17.0034 58.0666C17.0121 58.233 17.0599 58.2452 17.1467 58.1035Z" fill="#009379"/>
<path d="M48.0504 57.6153C48.2067 57.6833 48.24 57.6443 48.1503 57.4982L47.0822 55.7625C47.0388 55.693 46.9802 55.6402 46.9064 55.6041L46.6611 55.4891C46.5468 55.4356 46.5439 55.3763 46.6524 55.3112L47.1387 55.0248C47.2125 54.9814 47.245 55.0031 47.2364 55.0899L47.2038 55.4066C47.1951 55.4862 47.2118 55.56 47.2537 55.6279L48.4802 57.65C48.5222 57.718 48.583 57.7571 48.6626 57.7672L48.7755 57.7802C48.9043 57.7961 48.9231 57.8511 48.8319 57.9451C48.6387 58.1469 48.3543 58.2901 48.07 58.1621C47.2277 57.7802 46.402 57.4237 45.5931 57.0924C45.4454 57.0331 45.4165 57.0693 45.5062 57.2009C45.6784 57.4483 45.8485 57.705 46.0164 57.9712C46.2769 58.3834 46.3442 58.7761 46.8717 58.9497C46.9585 58.9786 46.9708 59.0263 46.9086 59.0929C46.7885 59.2216 46.6387 59.3163 46.4592 59.3771C46.4442 59.3824 46.428 59.3838 46.4123 59.3811C46.3966 59.3784 46.3818 59.3717 46.3694 59.3617C46.357 59.3517 46.3474 59.3387 46.3415 59.3239C46.3355 59.3091 46.3335 59.2931 46.3355 59.2773C46.3572 59.0936 46.3181 58.9193 46.2183 58.7544C45.7928 58.0442 45.3753 57.3463 44.9657 56.6607C44.7558 56.3107 44.8383 56.2174 45.2132 56.3808L48.0504 57.6153Z" fill="#009379"/>
<path d="M22.1591 58.5721C21.793 59.0625 21.4066 59.5564 20.9999 60.054C20.8769 60.2044 20.8306 60.3758 20.861 60.5682C20.8754 60.6695 20.832 60.7179 20.7307 60.7136C20.5397 60.7063 20.374 60.647 20.2336 60.5357C20.2213 60.5255 20.2116 60.5124 20.2057 60.4976C20.1997 60.4828 20.1977 60.4667 20.1996 60.451C20.2016 60.4354 20.2075 60.4205 20.2169 60.408C20.2263 60.3955 20.2388 60.3856 20.2531 60.3794C20.5006 60.2724 20.7097 60.1054 20.8805 59.8783C21.442 59.1377 21.9898 58.4405 22.5238 57.7867C22.5467 57.758 22.5798 57.7391 22.6165 57.7339C22.6531 57.7287 22.6906 57.7375 22.7213 57.7585C22.8212 57.8265 22.8668 57.9212 22.8581 58.0427C22.7727 59.2751 22.7452 60.3946 22.7756 61.4013C22.7785 61.5257 22.7293 61.5532 22.628 61.4838C22.492 61.3912 22.3378 61.3305 22.1656 61.3015C22.031 61.2798 22.01 61.2184 22.1027 61.1171C22.1765 61.0368 22.2351 60.8958 22.2394 60.7852C22.2684 60.0591 22.298 59.3409 22.3284 58.6307C22.3371 58.4297 22.2807 58.4101 22.1591 58.5721Z" fill="#009379"/>
<path d="M41.017 59.2382C41.2312 59.1225 41.4555 59.0473 41.6899 59.0126C41.7869 58.9981 41.847 58.9432 41.8701 58.8477C41.9787 58.3921 41.8687 58.1201 41.5401 58.0319C41.4316 58.0015 41.4302 57.9661 41.5358 57.9256L42.1957 57.6674C42.2131 57.6611 42.232 57.6604 42.2499 57.6654C42.2677 57.6704 42.2835 57.6807 42.2949 57.695C42.3063 57.7093 42.3127 57.7268 42.3132 57.7449C42.3137 57.7629 42.3083 57.7806 42.2978 57.7954C42.153 58.0051 42.0829 58.2344 42.0872 58.4832C42.1017 59.4089 42.1161 60.3201 42.1306 61.2169C42.1335 61.4006 42.0481 61.4737 41.8745 61.4361C41.8397 61.4288 41.7876 61.3789 41.7182 61.2864C41.1045 60.4778 40.5097 59.7018 39.9337 58.9583C39.8578 58.8585 39.7536 58.7869 39.645 58.7218C39.5206 58.6481 39.5271 58.5881 39.6646 58.5418L40.2659 58.3356C40.3397 58.3111 40.3773 58.3371 40.3788 58.4138C40.3817 58.6842 40.5228 58.9504 40.8021 59.2122C40.8672 59.2729 40.9388 59.2816 41.017 59.2382ZM41.9222 59.236C41.9222 59.2233 41.9192 59.2107 41.9133 59.1993C41.9075 59.188 41.899 59.1782 41.8886 59.1707C41.8782 59.1633 41.8661 59.1585 41.8535 59.1566C41.8408 59.1548 41.8279 59.156 41.8158 59.1601L41.0474 59.414C41.0357 59.4181 41.0252 59.4249 41.0166 59.4337C41.008 59.4426 41.0015 59.4533 40.9978 59.465C40.994 59.4768 40.993 59.4893 40.9948 59.5015C40.9966 59.5137 41.0012 59.5253 41.0083 59.5355L41.8006 60.6528C41.8106 60.6666 41.8247 60.6769 41.841 60.6822C41.8572 60.6875 41.8746 60.6874 41.8908 60.6821C41.907 60.6768 41.9211 60.6665 41.931 60.6526C41.941 60.6388 41.9462 60.6221 41.9461 60.6051L41.9222 59.236Z" fill="#009379"/>
<path d="M32.6268 61.8483C32.553 62.3849 32.5957 62.8037 32.7549 63.1045C32.7997 63.1884 32.7744 63.2304 32.6789 63.2304H32.0146C31.9234 63.2304 31.9003 63.1906 31.9451 63.111C32.1347 62.774 32.1868 62.3618 32.1014 61.8743C32.087 61.7933 32.0385 61.7536 31.956 61.755L30.9683 61.7702C30.927 61.7714 30.887 61.7845 30.8531 61.808C30.8192 61.8315 30.7928 61.8643 30.7772 61.9025C30.7671 61.9242 30.7555 61.9459 30.7425 61.9676C30.7092 62.024 30.6853 62.0204 30.6709 61.9568C30.6072 61.6863 30.5992 61.4151 30.647 61.1432C30.6658 61.0347 30.7099 61.0224 30.7794 61.1063C30.8677 61.2133 30.9791 61.2603 31.1137 61.2473C31.3916 61.2213 31.676 61.2263 31.9668 61.2625C32.0392 61.2712 32.0819 61.2394 32.0949 61.167C32.1673 60.723 32.1224 60.2854 31.9603 59.8544C31.9155 59.7358 31.9545 59.691 32.0776 59.7199C32.257 59.7618 32.4379 59.7611 32.6203 59.7177C32.7476 59.6873 32.7889 59.7329 32.744 59.8544C32.6051 60.229 32.5653 60.6535 32.6246 61.128C32.6318 61.1829 32.6622 61.214 32.7158 61.2213C33.1905 61.2849 33.6036 61.248 33.9553 61.1106C34.0523 61.073 34.0993 61.1063 34.0964 61.2104L34.079 61.87C34.0776 61.9597 34.0385 61.9799 33.9618 61.9307C33.6738 61.7427 33.2527 61.6906 32.6984 61.7745C32.655 61.7818 32.6311 61.8064 32.6268 61.8483Z" fill="#009379"/>
</svg>
