<svg width="27" height="27" viewBox="0 0 27 27" fill="none" xmlns="http://www.w3.org/2000/svg">
<g clip-path="url(#clip0_9_10804)">
<path d="M25.5 0H1.5C1.10218 0 0.720644 0.158035 0.43934 0.43934C0.158035 0.720644 0 1.10218 0 1.5V25.5C0 25.8978 0.158035 26.2794 0.43934 26.5607C0.720644 26.842 1.10218 27 1.5 27H14.4225V16.56H10.9155V12.4725H14.4225V9.4725C14.4225 5.985 16.5525 4.0845 19.6725 4.0845C20.721 4.0815 21.771 4.1355 22.815 4.245V7.875H20.6625C18.9705 7.875 18.6405 8.682 18.6405 9.8625V12.465H22.686L22.161 16.5525H18.639V27H25.5C25.8978 27 26.2794 26.842 26.5607 26.5607C26.842 26.2794 27 25.8978 27 25.5V1.5C27 1.10218 26.842 0.720644 26.5607 0.43934C26.2794 0.158035 25.8978 0 25.5 0Z" fill="black"/>
</g>
<defs>
<clipPath id="clip0_9_10804">
<rect width="27" height="27" fill="white"/>
</clipPath>
</defs>
</svg>
