<svg width="28" height="29" viewBox="0 0 28 29" fill="none" xmlns="http://www.w3.org/2000/svg">
<g clip-path="url(#clip0_9_10800)">
<path d="M13.9984 7.05236C12.1589 7.05236 10.3947 7.78165 9.09394 9.07981C7.79319 10.378 7.06243 12.1386 7.06243 13.9745C7.06243 15.8104 7.79319 17.5711 9.09394 18.8692C10.3947 20.1674 12.1589 20.8967 13.9984 20.8967C15.838 20.8967 17.6022 20.1674 18.9029 18.8692C20.2037 17.5711 20.9344 15.8104 20.9344 13.9745C20.9344 12.1386 20.2037 10.378 18.9029 9.07981C17.6022 7.78165 15.838 7.05236 13.9984 7.05236ZM13.9984 18.47C12.8034 18.47 11.6572 17.9962 10.8122 17.1529C9.96717 16.3095 9.49243 15.1657 9.49243 13.973C9.49243 12.7803 9.96717 11.6365 10.8122 10.7932C11.6572 9.9498 12.8034 9.47601 13.9984 9.47601C15.1935 9.47601 16.3396 9.9498 17.1847 10.7932C18.0297 11.6365 18.5044 12.7803 18.5044 13.973C18.5044 15.1657 18.0297 16.3095 17.1847 17.1529C16.3396 17.9962 15.1935 18.47 13.9984 18.47Z" fill="black"/>
<path d="M21.2089 8.41164C22.102 8.41164 22.8259 7.68913 22.8259 6.79786C22.8259 5.9066 22.102 5.18409 21.2089 5.18409C20.3159 5.18409 19.5919 5.9066 19.5919 6.79786C19.5919 7.68913 20.3159 8.41164 21.2089 8.41164Z" fill="black"/>
<path d="M26.7994 5.15715C26.4522 4.26221 25.9215 3.44949 25.2414 2.77101C24.5613 2.09253 23.7468 1.56324 22.8499 1.21703C21.8004 0.823849 20.6917 0.61125 19.5709 0.588284C18.1264 0.52541 17.6689 0.507446 14.0059 0.507446C10.3429 0.507446 9.87343 0.507446 8.44093 0.588284C7.32101 0.610076 6.21307 0.822718 5.16493 1.21703C4.26783 1.56284 3.45308 2.09198 2.77293 2.77051C2.09279 3.44904 1.56227 4.26197 1.21543 5.15715C0.821387 6.20447 0.608851 7.31109 0.58693 8.4296C0.52243 9.86972 0.50293 10.3263 0.50293 13.9835C0.50293 17.6392 0.50293 18.1048 0.58693 19.5374C0.60943 20.6571 0.82093 21.7619 1.21543 22.8113C1.56325 23.7062 2.09427 24.5188 2.77458 25.1972C3.45489 25.8757 4.26953 26.405 5.16643 26.7515C6.21258 27.1604 7.32099 27.3883 8.44393 27.4251C9.88843 27.488 10.3459 27.5074 14.0089 27.5074C17.6719 27.5074 18.1414 27.5074 19.5739 27.4251C20.6946 27.4024 21.8033 27.1903 22.8529 26.7979C23.7496 26.4508 24.5639 25.9211 25.2439 25.2424C25.9239 24.5638 26.4547 23.7511 26.8024 22.8562C27.1969 21.8083 27.4084 20.7036 27.4309 19.5838C27.4954 18.1437 27.5149 17.6871 27.5149 14.0299C27.5149 10.3727 27.5149 9.90864 27.4309 8.47601C27.4135 7.34169 27.1998 6.2189 26.7994 5.15715ZM24.9724 19.4266C24.9628 20.2893 24.805 21.144 24.5059 21.9536C24.2807 22.5357 23.9358 23.0643 23.4935 23.5055C23.0513 23.9466 22.5214 24.2905 21.9379 24.5149C21.1358 24.812 20.2885 24.9695 19.4329 24.9805C18.0079 25.0464 17.6059 25.0628 13.9519 25.0628C10.2949 25.0628 9.92143 25.0628 8.46943 24.9805C7.61432 24.9701 6.76742 24.8126 5.96593 24.5149C5.38046 24.2919 4.84843 23.9486 4.40426 23.5074C3.9601 23.0662 3.61368 22.5368 3.38743 21.9536C3.0926 21.1527 2.9349 20.3081 2.92093 19.4551C2.85643 18.0329 2.84143 17.6317 2.84143 13.985C2.84143 10.3368 2.84143 9.96403 2.92093 8.51343C2.93063 7.65119 3.08841 6.797 3.38743 5.98798C3.84493 4.80685 4.78243 3.87721 5.96593 3.42511C6.76781 3.12891 7.61447 2.97146 8.46943 2.95954C9.89593 2.89517 10.2964 2.87721 13.9519 2.87721C17.6074 2.87721 17.9824 2.87721 19.4329 2.95954C20.2885 2.96981 21.136 3.12731 21.9379 3.42511C22.5213 3.65007 23.0511 3.99428 23.4934 4.43564C23.9356 4.87699 24.2805 5.40576 24.5059 5.98798C24.8008 6.78881 24.9585 7.63343 24.9724 8.48649C25.0369 9.91014 25.0534 10.3098 25.0534 13.958C25.0534 17.6048 25.0534 17.997 24.9889 19.4281H24.9724V19.4266Z" fill="black"/>
</g>
<defs>
<clipPath id="clip0_9_10800">
<rect width="28" height="28" fill="white" transform="translate(0 0.5)"/>
</clipPath>
</defs>
</svg>
