<svg width="124" height="124" viewBox="0 0 124 124" fill="none" xmlns="http://www.w3.org/2000/svg">
<path d="M0 62.0001C0 27.7584 27.7584 0 62.0001 0V0C96.2418 0 124 27.7584 124 62.0001V124H0V62.0001Z" fill="#FFA4D3"/>
<path d="M32.1687 98.0559L38.7669 98.0559L38.7669 91.2278L32.1686 91.2278L32.1687 98.0559ZM87.102 42.0452C87.102 41.5834 86.7402 41.209 86.2939 41.209L79.0208 41.209C78.5745 41.209 78.2127 41.5834 78.2127 42.0452C78.2127 42.5071 78.5745 42.8815 79.0208 42.8815L85.4858 42.8815L85.4858 49.5716C85.4858 50.0335 85.8476 50.4079 86.2939 50.4079C86.7402 50.4079 87.102 50.0335 87.102 49.5716L87.102 42.0452ZM36.0392 95.2332L86.8653 42.6366L85.7225 41.4539L34.8963 94.0505L36.0392 95.2332Z" fill="#2D2D2D"/>
</svg>
