<svg width="34" height="31" viewBox="0 0 34 31" fill="none" xmlns="http://www.w3.org/2000/svg">
<g clip-path="url(#clip0_9_10806)">
<path d="M4.11842 10.8356C3.45567 10.3385 2.51547 10.4728 2.01842 11.1356C1.52136 11.7983 1.65568 12.7385 2.31843 13.2356L4.11842 10.8356ZM13.8726 20.0262L12.9726 21.2262L12.9727 21.2262L13.8726 20.0262ZM20.059 20.0262L20.9589 21.2262L20.959 21.2262L20.059 20.0262ZM31.6132 13.2355C32.2759 12.7384 32.4102 11.7982 31.9132 11.1355C31.4161 10.4728 30.4759 10.3384 29.8132 10.8355L31.6132 13.2355ZM3.26776 9.33498L2.53929 8.02375L2.53929 8.02375L3.26776 9.33498ZM15.2967 2.65223L14.5683 1.34096L14.5682 1.34099L15.2967 2.65223ZM18.6349 2.65223L19.3634 1.34099L19.3633 1.34096L18.6349 2.65223ZM30.6639 9.33498L31.3924 8.02376L31.3923 8.02375L30.6639 9.33498ZM2.31843 13.2356L12.9726 21.2262L14.7726 18.8262L4.11842 10.8356L2.31843 13.2356ZM12.9727 21.2262C15.339 23.0009 18.5926 23.0009 20.9589 21.2262L19.159 18.8262C17.8593 19.8009 16.0723 19.8009 14.7726 18.8262L12.9727 21.2262ZM20.959 21.2262L31.6132 13.2355L29.8132 10.8355L19.159 18.8262L20.959 21.2262ZM3 12.3393C3 11.6359 3.38135 10.9878 3.99622 10.6462L2.53929 8.02375C0.972012 8.89446 0 10.5464 0 12.3393H3ZM3.99622 10.6462L16.0252 3.96346L14.5682 1.34099L2.53929 8.02375L3.99622 10.6462ZM16.0251 3.96349C16.6102 3.63847 17.3214 3.63847 17.9065 3.96349L19.3633 1.34096C17.8722 0.512648 16.0594 0.512648 14.5683 1.34096L16.0251 3.96349ZM17.9064 3.96346L29.9354 10.6462L31.3923 8.02375L19.3634 1.34099L17.9064 3.96346ZM29.9354 10.6462C30.5502 10.9878 30.9316 11.6359 30.9316 12.3393H33.9316C33.9316 10.5464 32.9595 8.89447 31.3924 8.02376L29.9354 10.6462ZM30.9316 12.3393V25.7829H33.9316V12.3393H30.9316ZM30.9316 25.7829C30.9316 26.8526 30.0645 27.7197 28.9948 27.7197V30.7197C31.7214 30.7197 33.9316 28.5095 33.9316 25.7829H30.9316ZM28.9948 27.7197H4.93684V30.7197H28.9948V27.7197ZM4.93684 27.7197C3.86714 27.7197 3 26.8526 3 25.7829H0C0 28.5095 2.21031 30.7197 4.93684 30.7197V27.7197ZM3 25.7829V12.3393H0V25.7829H3Z" fill="black"/>
</g>
<defs>
<clipPath id="clip0_9_10806">
<rect width="34" height="31" fill="white"/>
</clipPath>
</defs>
</svg>
