<svg aria-label="black behance logo" width="39" height="25" viewBox="0 0 39 25" fill="none" xmlns="http://www.w3.org/2000/svg">
<g clip-path="url(#clip0_9_10802)">
<path d="M11.1089 0.596558C12.2364 0.596558 13.251 0.694189 14.1814 0.89328C15.106 1.09046 15.8947 1.41589 16.5609 1.86576C17.2175 2.31563 17.7306 2.9129 18.1 3.66332C18.458 4.40417 18.636 5.3307 18.636 6.4257C18.636 7.61259 18.368 8.60421 17.8301 9.39483C17.2883 10.1874 16.4901 10.8363 15.4257 11.3379C16.8748 11.7571 17.9488 12.4903 18.6609 13.5317C19.3769 14.5827 19.7272 15.8404 19.7272 17.3144C19.7272 18.5109 19.4994 19.5389 19.0419 20.4023C18.601 21.2528 17.9614 21.9843 17.1773 22.5348C16.3652 23.1003 15.4581 23.5153 14.4992 23.76C13.4938 24.0239 12.4584 24.1565 11.419 24.1543H0V0.596558H11.1089ZM10.4369 10.1146C11.3558 10.1146 12.1177 9.89639 12.7188 9.45418C13.3161 9.01771 13.6052 8.29792 13.6052 7.31204C13.6052 6.76454 13.5075 6.31276 13.3161 5.95861C13.1296 5.61789 12.8536 5.33459 12.5178 5.13927C12.1664 4.93085 11.7786 4.79118 11.375 4.72769C10.935 4.64564 10.4882 4.60653 10.0407 4.61092H5.18784V10.1146H10.4369V10.1146ZM10.726 20.1438C11.2371 20.1438 11.7234 20.0998 12.1809 19.9964C12.6423 19.8969 13.0519 19.7361 13.4003 19.4968C13.7487 19.2671 14.0359 18.955 14.2426 18.5568C14.4513 18.1625 14.5528 17.6475 14.5528 17.0292C14.5528 15.8155 14.2101 14.9521 13.5324 14.4295C12.8528 13.9127 11.9416 13.6561 10.8256 13.6561H5.18784V20.1457H10.726V20.1438ZM27.1223 20.0653C27.8248 20.7507 28.8375 21.0952 30.1546 21.0952C31.0984 21.0952 31.9139 20.8559 32.6011 20.3812C33.2788 19.9045 33.6923 19.3953 33.8512 18.8689H37.9765C37.3142 20.921 36.3092 22.3874 34.9347 23.2699C33.5774 24.1563 31.9253 24.5966 29.9957 24.5966C28.6518 24.5966 27.442 24.3802 26.3585 23.9514C25.3185 23.5464 24.3786 22.9207 23.6037 22.1175C22.8416 21.2955 22.2525 20.3288 21.8713 19.2747C21.4522 18.1091 21.2448 16.878 21.2587 15.6394C21.2587 14.3644 21.4712 13.1718 21.8885 12.0711C22.2846 11.0071 22.893 10.0347 23.6765 9.21297C24.4518 8.40895 25.3707 7.77531 26.4408 7.31013C27.5661 6.83686 28.7769 6.60094 29.9976 6.61714C31.441 6.61714 32.7026 6.89663 33.7861 7.45944C34.8368 7.99669 35.7479 8.77143 36.447 9.72219C37.1419 10.666 37.6377 11.7476 37.9459 12.9593C38.2541 14.1692 38.3613 15.4326 38.2733 16.7554H25.9622C25.9641 18.1031 26.4178 19.38 27.1223 20.0653V20.0653ZM32.5054 11.1043C31.9483 10.4879 31.0065 10.1548 29.854 10.1548C29.1055 10.1548 28.4872 10.2793 27.9895 10.5358C27.5344 10.7656 27.1306 11.0854 26.8026 11.4757C26.5145 11.8301 26.3009 12.239 26.1747 12.6779C26.0643 13.0439 25.993 13.4206 25.9622 13.8016H33.5851C33.474 12.6071 33.0644 11.7246 32.5054 11.1043V11.1043ZM25.005 2.1778H34.5556V4.50371H25.005V2.1778Z" fill="black"/>
</g>
<defs>
<clipPath id="clip0_9_10802">
<rect width="39" height="25" fill="white"/>
</clipPath>
</defs>
</svg>
