<svg aria-label="Università La Sapienza's Logo in Red" width="64" height="65" viewBox="0 0 64 65" fill="none" xmlns="http://www.w3.org/2000/svg">
<path d="M7.53067 20.671C10.8074 11.0874 18.2353 2.86036 28.5316 1.04262C29.3708 0.894208 30.2079 0.830147 31.0428 0.850433C31.8948 0.870719 32.7399 0.870719 33.5781 0.850433C34.365 0.831215 35.1695 0.89634 35.9916 1.04582C47.6652 3.15664 55.5816 13.3536 58.0447 24.5307C60.2517 34.5547 58.4179 45.3571 52.4698 53.7011C51.211 55.467 49.7541 57.0889 48.0992 58.5665C42.308 63.7395 34.5902 66.0601 27.0294 64.2232C21.1165 62.7882 16.1021 59.1383 12.4394 54.2568C5.34457 44.8045 3.74463 31.744 7.53067 20.671ZM32.2488 1.90584C28.8696 1.90584 25.5236 2.70481 22.4016 4.25711C19.2797 5.80942 16.443 8.08467 14.0536 10.953C11.6642 13.8213 9.76877 17.2264 8.47562 20.974C7.18247 24.7216 6.5169 28.7383 6.5169 32.7946C6.51689 40.9869 9.22792 48.8435 14.0536 54.6363C18.8793 60.4291 25.4243 63.6834 32.2488 63.6834C39.0733 63.6834 45.6183 60.4291 50.444 54.6363C55.2696 48.8435 57.9807 40.9869 57.9807 32.7946C57.9807 28.7383 57.3151 24.7216 56.022 20.974C54.7288 17.2264 52.8334 13.8213 50.444 10.953C48.0546 8.08467 45.2179 5.80942 42.096 4.25711C38.974 2.70481 35.628 1.90584 32.2488 1.90584Z" fill="#EA5128"/>
<path d="M32.2472 2.84115C38.8283 2.84116 45.1399 5.99662 49.7935 11.6134C54.4471 17.2302 57.0614 24.8481 57.0614 32.7915C57.0614 40.7348 54.447 48.3527 49.7935 53.9695C45.1399 59.5863 38.8283 62.7418 32.2472 62.7418C25.666 62.7418 19.3545 59.5863 14.7009 53.9695C10.0473 48.3527 7.43297 40.7348 7.43297 32.7915C7.43297 28.8583 8.07481 24.9637 9.32184 21.33C10.5689 17.6962 12.3967 14.3945 14.7009 11.6134C17.0051 8.83225 19.7406 6.62613 22.7512 5.12099C25.7618 3.61585 28.9885 2.84115 32.2472 2.84115ZM40.5912 40.1201C41.1918 39.2729 41.2014 37.9692 40.6681 37.146C40.6414 37.1044 40.6072 37.0697 40.5656 37.0419C40.5207 37.012 40.4679 37.0099 40.407 37.0355C40.3841 37.0453 40.3647 37.062 40.3515 37.0832C40.3383 37.1044 40.332 37.1291 40.3333 37.154C40.4086 38.6146 39.4845 39.5371 38.6822 40.5813C37.1927 42.5192 37.292 44.7005 38.751 46.5695C41.0231 49.4832 42.6646 52.7348 43.6757 56.3244C43.6928 56.3842 43.7318 56.4205 43.7927 56.4333C43.8994 56.4568 43.9635 56.4125 43.9848 56.3004C44.1599 55.3662 44.0975 54.3972 43.7975 53.3936C42.9791 50.6582 41.5345 47.8763 39.9121 45.4212C38.6918 43.5762 39.4045 41.7905 40.5912 40.1201ZM23.7863 40.2658C24.7616 41.6832 25.5752 43.549 24.5134 45.1633C22.7885 47.7818 21.3695 50.4676 20.4711 53.4176C20.1657 54.4212 20.1059 55.3918 20.2917 56.3292C20.297 56.3554 20.3098 56.3795 20.3286 56.3986C20.3474 56.4176 20.3713 56.4308 20.3974 56.4365C20.4583 56.4483 20.509 56.4349 20.5496 56.3965C20.5752 56.3708 20.5933 56.3404 20.604 56.3052C21.5874 52.8555 23.1254 49.749 25.218 46.9859C26.0188 45.9304 26.5713 45.072 26.6594 43.7796C26.7859 41.9458 25.7562 40.7383 24.6863 39.3994C24.1738 38.7588 23.9229 38.0109 23.9336 37.1556C23.9339 37.1326 23.9281 37.11 23.9168 37.0899C23.9055 37.0699 23.889 37.0533 23.8691 37.0417C23.8493 37.0301 23.8267 37.024 23.8036 37.0241C23.7806 37.0241 23.7581 37.0303 23.7382 37.0419C23.6368 37.1006 23.5615 37.1829 23.5124 37.2886C23.0341 38.3146 23.1254 39.307 23.7863 40.2658ZM33.9496 50.317C34.8529 51.0858 35.6937 51.8417 36.8692 52.0547C36.9792 52.075 37.087 52.0718 37.1927 52.0451C37.2077 52.0414 37.2214 52.0339 37.2325 52.0233C37.2436 52.0127 37.2517 51.9994 37.2561 51.9846C37.2605 51.9699 37.2609 51.9543 37.2574 51.9393C37.2539 51.9244 37.2465 51.9106 37.236 51.8994C36.353 50.9384 35.5266 50.048 34.7568 49.228C33.8311 48.2431 32.5226 48.834 32.5243 50.1681C32.5243 51.7066 32.5237 53.21 32.5226 54.678C32.5227 54.7006 32.5284 54.7229 32.5391 54.7428C32.5498 54.7627 32.5652 54.7796 32.584 54.792C32.6027 54.8044 32.6242 54.8119 32.6465 54.8138C32.6688 54.8157 32.6912 54.812 32.7116 54.8029C33.1152 54.6252 33.474 53.2783 33.5492 52.8571C33.6976 52.0435 33.7921 51.2134 33.8327 50.3667C33.838 50.2706 33.877 50.2541 33.9496 50.317ZM30.4471 50.3427C30.5026 51.4979 30.6723 52.596 30.9563 53.637C31.0685 54.0513 31.2387 54.3988 31.4672 54.6796C31.6498 54.9038 31.7422 54.8713 31.7443 54.5819C31.7582 53.1299 31.7571 51.6095 31.7411 50.0208C31.7283 48.8308 30.383 48.2975 29.5774 49.1687C28.7457 50.0677 27.9374 50.9374 27.1527 51.7776C26.9594 51.9848 27.0043 52.0798 27.2872 52.0627C28.3971 51.9955 29.5262 51.0714 30.3237 50.2946C30.3336 50.2846 30.3462 50.2777 30.36 50.2748C30.3738 50.2718 30.3881 50.273 30.4012 50.2781C30.4143 50.2832 30.4256 50.292 30.4338 50.3035C30.4419 50.315 30.4466 50.3286 30.4471 50.3427ZM45.2693 53.9734C45.4406 53.0477 45.3798 51.8898 45.2292 50.9737C44.9741 49.4127 44.5497 47.8491 43.956 46.2828C43.3987 44.8142 42.6075 43.424 41.6995 42.0996C41.6407 42.0142 41.5724 42.0051 41.4945 42.0723C40.8346 42.6393 40.6424 43.5009 41.1213 44.2376C43.0987 47.2741 44.4028 50.5418 45.0339 54.0406C45.0467 54.1143 45.0894 54.1362 45.162 54.1063C45.1895 54.095 45.2137 54.0769 45.2324 54.0536C45.2512 54.0304 45.2638 54.0028 45.2693 53.9734ZM19.9346 47.3622C19.2795 49.385 18.8183 51.3805 18.9128 53.3936C18.9245 53.6402 18.9528 53.8169 18.9977 53.9237C19.1205 54.213 19.2101 54.2034 19.2667 53.8949C19.792 51.0335 20.8037 48.2783 22.3016 45.6294C22.5333 45.2204 22.7768 44.8286 23.0319 44.4538C23.5829 43.6499 23.5572 42.721 22.7885 42.0659C22.777 42.0561 22.7637 42.0488 22.7492 42.0443C22.7348 42.0399 22.7196 42.0384 22.7046 42.0401C22.6896 42.0417 22.6751 42.0465 22.662 42.0539C22.6489 42.0614 22.6374 42.0715 22.6284 42.0836C21.4752 43.6221 20.5773 45.3816 19.9346 47.3622ZM43.8471 39.4346C43.8395 39.4231 43.8348 39.4099 43.8335 39.3962C43.8321 39.3825 43.8341 39.3686 43.8393 39.3558C43.8445 39.343 43.8528 39.3317 43.8634 39.3229C43.8739 39.314 43.8865 39.3078 43.9 39.3049C44.6441 39.1437 45.3771 38.9237 46.0989 38.6451C46.2355 38.5927 46.2708 38.5047 46.2046 38.3808C46.1884 38.3509 46.1664 38.3244 46.14 38.303C46.1137 38.2815 46.0833 38.2655 46.0508 38.2559C45.1123 37.99 44.1989 37.8694 43.3106 37.8939C42.1943 37.926 41.9605 38.8965 42.2264 39.7918C42.3128 40.0854 42.4805 40.4169 42.7292 40.7863C44.7472 43.7828 45.6825 47.0451 45.9227 50.6582C45.9238 50.6699 45.9264 50.6811 45.9307 50.6918C45.9403 50.7196 45.9553 50.734 45.9756 50.735C46.0172 50.7383 46.0439 50.7196 46.0556 50.679C46.4603 49.2878 46.5793 47.8897 46.4128 46.4846C46.1128 43.9563 45.2575 41.6063 43.8471 39.4346ZM20.4471 39.4186C19.137 41.3645 18.277 43.6258 17.9246 45.9064C17.6833 47.4706 17.7538 48.9627 18.136 50.3827C18.2706 50.8835 18.3523 50.8749 18.3811 50.3571C18.5839 46.7579 19.6938 43.4806 21.7107 40.5253C22.0374 40.0469 22.1746 39.5115 22.1223 38.9189C22.031 37.8699 21.1037 37.8587 20.3077 37.9019C19.5774 37.9404 18.8738 38.0626 18.1969 38.2687C18.1507 38.2832 18.1109 38.3132 18.0844 38.3535C18.0578 38.3938 18.0461 38.4419 18.0512 38.4897C18.0597 38.5698 18.1008 38.6237 18.1745 38.6515C18.8941 38.9184 19.6378 39.1394 20.4054 39.3145C20.4163 39.3168 20.4264 39.3217 20.4349 39.3288C20.4434 39.3359 20.4501 39.3451 20.4542 39.3554C20.4583 39.3657 20.4598 39.3769 20.4586 39.3879C20.4573 39.3989 20.4534 39.4095 20.4471 39.4186ZM34.3132 42.0083C35.2148 41.5134 36.1149 40.8712 37.1175 40.5253C37.1751 40.506 37.1986 40.4665 37.1879 40.4068C36.8292 38.4016 33.1569 40.7078 32.6059 41.5198C32.4938 41.6842 32.5056 41.8391 32.6412 41.9843C33.0976 42.4695 33.8071 42.2854 34.3132 42.0083ZM31.7139 42.0019C31.9103 41.7819 31.8815 41.5572 31.6274 41.3276C30.8021 40.5845 29.8822 40.0448 28.8679 39.7085C28.1793 39.4811 27.2664 39.5595 27.1367 40.45C27.1345 40.4656 27.138 40.4814 27.1465 40.4947C27.155 40.5079 27.168 40.5176 27.1831 40.5221C27.5995 40.6416 27.9983 40.8141 28.3795 41.0394C28.9806 41.3928 29.587 41.7366 30.1988 42.0707C30.6537 42.319 31.3391 42.4199 31.7139 42.0019ZM36.4368 36.9955C35.1716 36.9517 34.0051 37.3959 32.9374 38.328C32.6364 38.5906 32.481 38.983 32.497 39.377C32.4998 39.4462 32.5245 39.5128 32.5678 39.5669C32.611 39.6211 32.6704 39.66 32.7373 39.6781C32.923 39.7293 33.1019 39.7069 33.2738 39.6108C34.6623 38.8372 36.9477 37.8155 38.2545 39.2841C38.3037 39.3396 38.3496 39.3375 38.3923 39.2777C38.5514 39.0588 38.6555 38.8303 38.7046 38.5922C38.9576 37.3782 37.3273 37.0259 36.4368 36.9955ZM31.4608 38.3568C30.0339 37.0708 28.0271 36.5487 26.2959 37.3943C25.4887 37.7882 25.4503 38.5746 25.9387 39.2777C25.975 39.33 26.0151 39.3332 26.0588 39.2873C27.4618 37.8475 29.5822 38.7908 31.0556 39.5868C31.2734 39.7042 31.4971 39.7277 31.7267 39.6572C31.7525 39.6489 31.7757 39.6342 31.794 39.6145C31.8123 39.5948 31.8249 39.5709 31.8308 39.5451C31.9333 39.0668 31.81 38.6707 31.4608 38.3568ZM33.2001 24.1207C32.875 26.1691 33.8808 28.0445 35.7369 28.9093C36.3989 29.2168 37.0699 29.511 37.7501 29.7918C38.4878 30.0971 38.9491 30.6518 39.1338 31.4558C39.4701 32.9212 39.6223 34.4282 40.8026 35.458C41.7619 36.2972 42.9519 36.6608 44.2107 36.6576C47.9406 36.6463 51.7763 37.4791 55.1363 38.8757C55.194 38.9002 55.2485 38.8954 55.2997 38.8613C55.3184 38.8489 55.3343 38.8326 55.3463 38.8136C55.3583 38.7945 55.3661 38.7731 55.3693 38.7508C55.3724 38.7284 55.3709 38.7056 55.3647 38.6838C55.3585 38.662 55.3478 38.6417 55.3333 38.6242C54.4012 37.5112 53.1024 37.0115 51.6898 36.5294C49.342 35.7319 46.7859 35.2947 44.2795 35.0624C43.6272 35.0026 43.1296 34.8991 42.7869 34.7517C41.2734 34.0999 40.6537 32.532 40.1956 31.0794C39.8929 30.1249 39.2747 29.3049 38.4515 28.8773C37.0214 28.1342 35.2405 27.2197 34.8849 25.591C34.8027 25.2119 34.7926 24.756 34.8545 24.2232C35.1876 21.3837 35.218 18.3344 34.6079 15.4965C34.4077 14.5596 34.0745 13.5698 33.4195 12.886C33.4021 12.8676 33.38 12.8543 33.3558 12.8476C33.3315 12.8408 33.3059 12.8408 33.2818 12.8475C33.2295 12.8625 33.1942 12.8951 33.1761 12.9452C33.1633 12.9794 33.1611 13.0162 33.1697 13.0557C33.7911 15.9214 33.9128 18.8335 33.5348 21.7921C33.4409 22.5277 33.3293 23.304 33.2001 24.1207ZM8.94002 38.621C8.91707 38.6478 8.90405 38.6816 8.90317 38.7166C8.9023 38.7517 8.91362 38.7858 8.93522 38.8132C8.99074 38.8837 9.06067 38.9018 9.14501 38.8677C12.7549 37.4023 16.3423 36.7184 20.1428 36.6512C20.7845 36.6394 21.337 36.5572 21.8004 36.4045C23.0832 35.9817 24.1866 35.0576 24.579 33.754C24.7616 33.1497 24.9207 32.492 25.0563 31.7809C25.2148 30.9465 25.5704 30.2258 26.3167 29.8943C26.9829 29.5964 27.6444 29.3065 28.301 29.0246C30.0803 28.2623 31.3087 26.5455 31.1101 24.6316C31.0407 23.9537 30.9489 23.2436 30.8346 22.5016C30.3638 19.448 30.4385 16.357 31.0588 13.2287C31.1539 12.7525 31.038 12.6943 30.7113 13.0541C29.9426 13.903 29.6159 15.4645 29.4541 16.6144C29.105 19.0871 29.1242 21.632 29.4157 24.1576C29.4893 24.7961 29.4664 25.323 29.3468 25.7383C29.0553 26.7457 28.1056 27.6105 27.1911 28.1198C26.2254 28.6563 25.2373 29.0631 24.5918 29.9904C24.3527 30.3342 24.153 30.7821 23.9929 31.3341C23.4531 33.1918 22.3993 34.8526 20.3333 35.0288C17.1511 35.2995 13.6085 35.9481 10.7882 37.2293C10.0686 37.5571 9.45251 38.021 8.94002 38.621ZM28.0912 34.1544C28.1424 34.6305 28.1702 35.1425 28.1745 35.6902C28.1745 35.7607 28.2097 35.7997 28.2802 35.8071C29.8742 35.979 31.1592 36.6549 32.1351 37.8347C32.1735 37.8806 32.212 37.8806 32.2504 37.8347C33.2487 36.6421 34.5251 35.9678 36.0797 35.812C36.1491 35.8045 36.1848 35.7666 36.187 35.6982C36.2105 35.0854 36.2532 34.4688 36.3151 33.8485C36.4432 32.5672 36.219 31.5519 35.4727 30.5845C35.0136 29.9898 34.4723 29.551 33.8487 29.2681C33.6149 29.1634 33.3971 29.0343 33.1953 28.8805C32.749 28.5399 32.1943 28.4721 31.5313 28.6771C31.219 28.7748 31.0412 29.0246 30.7498 29.1528C29.3852 29.7581 28.5167 30.7564 28.144 32.1476C27.9695 32.7995 28.0191 33.4897 28.0912 34.1544ZM25.4134 36.7921C25.9067 36.1771 26.4608 35.8808 27.1943 35.7094C27.2573 35.6945 27.2872 35.655 27.284 35.5909L27.2328 34.2905C27.2296 34.2211 27.1933 34.1912 27.1239 34.2008C26.0653 34.361 25.0066 35.0368 25.1235 36.2348C25.1438 36.4387 25.209 36.6229 25.3189 36.7873C25.3242 36.795 25.3311 36.8015 25.3392 36.8061C25.3474 36.8107 25.3564 36.8133 25.3656 36.8138C25.3748 36.8143 25.384 36.8126 25.3923 36.8088C25.4006 36.805 25.4078 36.7993 25.4134 36.7921ZM38.7462 36.5374C39.0217 36.8481 39.1802 36.7969 39.2219 36.3837L39.2539 36.0858C39.2945 35.6844 39.1818 35.3315 38.916 35.0272C38.5028 34.5553 37.9268 34.2675 37.1879 34.164C37.1821 34.1631 37.1761 34.1635 37.1705 34.1651C37.1648 34.1668 37.1595 34.1697 37.1549 34.1736C37.1504 34.1775 37.1467 34.1824 37.1441 34.188C37.1415 34.1935 37.1401 34.1995 37.1399 34.2056L37.0902 35.6166C37.0897 35.6293 37.0939 35.6419 37.1022 35.6519C37.1104 35.6619 37.1221 35.6687 37.1351 35.671C37.8034 35.7895 38.3405 36.0783 38.7462 36.5374ZM14.9218 33.1326C13.1537 33.8677 11.5489 34.6636 10.2084 35.9064C10.0915 36.0153 9.99223 36.1739 9.93617 36.3244C9.93081 36.3381 9.92981 36.353 9.9333 36.3672C9.93679 36.3814 9.94462 36.3942 9.95574 36.4039C9.96685 36.4137 9.98073 36.4198 9.99555 36.4217C10.0104 36.4235 10.0254 36.4209 10.0387 36.4141C13.3314 34.6898 16.802 33.668 20.4503 33.3488C21.3295 33.2719 21.8981 32.5288 21.9029 31.6544C21.9031 31.6439 21.9012 31.6336 21.8972 31.6239C21.8932 31.6143 21.8873 31.6055 21.8797 31.5983C21.8722 31.5911 21.8633 31.5855 21.8534 31.5819C21.8436 31.5783 21.8332 31.5768 21.8228 31.5775C19.4183 31.7024 17.118 32.2208 14.9218 33.1326ZM49.6479 33.2607C47.3086 32.2656 44.9265 31.7035 42.5018 31.5743C42.41 31.5689 42.3662 31.6122 42.3705 31.704C42.3993 32.3606 42.6609 32.8347 43.1553 33.1262C43.3859 33.2618 43.8236 33.3637 44.4685 33.4321C47.868 33.7897 51.1154 34.7806 54.2107 36.4045C54.2233 36.4113 54.2374 36.4148 54.2517 36.4146C54.266 36.4145 54.28 36.4107 54.2925 36.4037C54.305 36.3966 54.3155 36.3866 54.323 36.3744C54.3305 36.3622 54.3349 36.3483 54.3356 36.3341C54.3409 36.2572 54.318 36.191 54.2667 36.1355C53.0832 34.8446 51.3823 33.999 49.6479 33.2607ZM37.3433 33.0413C37.7789 33.0957 38.1697 33.344 38.4259 33.7107C38.4878 33.8004 38.5284 33.7919 38.5476 33.6851C38.758 32.4914 38.2551 31.7232 37.039 31.3805C36.8393 31.3239 36.7806 31.3912 36.8628 31.5823C37.0251 31.956 37.1228 32.3761 37.1559 32.8427C37.1634 32.9601 37.2258 33.0263 37.3433 33.0413ZM27.5178 31.3821C26.3231 31.6095 25.6456 32.4119 25.8651 33.6339C25.8939 33.7994 25.9569 33.8138 26.054 33.6771C26.3188 33.3034 26.6685 33.0957 27.103 33.0541C27.1607 33.0488 27.1922 33.0173 27.1975 32.9596C27.2466 32.4354 27.3721 31.9325 27.5739 31.451C27.5775 31.4428 27.5788 31.4337 27.5776 31.4248C27.5764 31.4159 27.5727 31.4075 27.567 31.4005C27.5612 31.3934 27.5536 31.388 27.545 31.3847C27.5363 31.3815 27.5269 31.3806 27.5178 31.3821ZM41.5185 28.2207C41.5016 28.2195 41.4852 28.2149 41.4701 28.2072C41.4551 28.1996 41.4418 28.189 41.431 28.1761C41.4202 28.1632 41.4122 28.1483 41.4074 28.1323C41.4026 28.1163 41.4012 28.0995 41.4032 28.0829C41.6904 25.3774 41.322 22.7803 40.2981 20.2915C39.7643 18.9953 38.9886 17.8518 37.9711 16.861C37.9659 16.856 37.9595 16.8524 37.9526 16.8503C37.9457 16.8483 37.9384 16.848 37.9313 16.8494C37.9242 16.8508 37.9176 16.8539 37.912 16.8585C37.9064 16.863 37.9019 16.8688 37.899 16.8754C37.8723 16.9341 37.8723 16.9907 37.899 17.0452C39.4813 20.3016 40.1118 23.62 39.7904 27.0003C39.603 28.959 40.2805 29.8062 42.2456 29.9551C45.6622 30.2135 48.9272 31.4248 52.0406 33.589C52.0497 33.5955 52.0601 33.5999 52.071 33.602C52.082 33.6041 52.0933 33.6037 52.1041 33.601C52.1149 33.5982 52.125 33.5931 52.1337 33.5861C52.1424 33.5791 52.1494 33.5702 52.1543 33.5602C52.1746 33.5207 52.1708 33.4833 52.1431 33.4481C51.4544 32.5576 50.7337 31.7601 49.7936 31.1082C47.3529 29.4181 44.5945 28.4556 41.5185 28.2207ZM22.7533 28.2223C20.0867 28.4273 17.6011 29.1848 15.2741 30.5829C14.0793 31.3015 13.0859 32.1909 12.2936 33.2511C11.9872 33.6611 12.0454 33.7219 12.4682 33.4337C15.1812 31.5791 18.0592 30.4452 21.1021 30.032C21.4064 29.9904 21.7149 29.9637 22.0278 29.9519C23.072 29.9087 24.0874 29.566 24.4077 28.525C24.5187 28.163 24.5417 27.6137 24.4765 26.877C24.185 23.549 24.8112 20.2877 26.3551 17.0932C26.3904 17.0185 26.4021 16.9432 26.3904 16.8674C26.3894 16.8593 26.3862 16.8518 26.381 16.8456C26.3758 16.8393 26.3689 16.8347 26.3611 16.8322C26.3532 16.8297 26.3448 16.8294 26.3366 16.8314C26.3285 16.8334 26.3211 16.8375 26.3151 16.8434C25.4647 17.7114 24.7424 18.6067 24.2283 19.7213C23.0207 22.335 22.5755 25.1906 22.8686 28.0845C22.8771 28.17 22.8387 28.2159 22.7533 28.2223ZM38.12 26.6384C38.1627 26.6458 38.1868 26.6282 38.1921 26.5855C38.4654 24.3807 38.388 22.2699 37.9599 20.253C37.5739 18.4385 37.0582 16.6624 36.1421 15.0737C35.983 14.7971 35.8015 14.5489 35.5976 14.329C35.5602 14.2884 35.5149 14.2718 35.4615 14.2793C35.4477 14.2811 35.4345 14.286 35.4228 14.2936C35.4112 14.3012 35.4013 14.3113 35.394 14.3232C35.3866 14.3352 35.382 14.3486 35.3804 14.3626C35.3788 14.3766 35.3802 14.3908 35.3846 14.4042C36.5228 17.7792 36.9493 21.2577 36.6642 24.8398C36.5874 25.796 37.1815 26.4862 38.12 26.6384ZM27.5835 24.3177C27.3193 21.0442 27.8398 17.5384 28.9 14.3706C28.905 14.3557 28.9055 14.3396 28.9014 14.3244C28.8973 14.3092 28.8889 14.2956 28.8771 14.2851C28.8653 14.2747 28.8507 14.268 28.8351 14.2658C28.8195 14.2636 28.8037 14.2661 28.7895 14.2729C28.6592 14.3359 28.553 14.4277 28.4708 14.5484C27.3625 16.1675 26.8148 18.0237 26.3647 20.0128C25.8853 22.1279 25.7914 24.3108 26.0829 26.5615C26.0903 26.6255 26.1261 26.6517 26.1902 26.64C26.8158 26.514 27.245 26.2006 27.4778 25.6999C27.6017 25.4361 27.6369 24.9754 27.5835 24.3177ZM15.4487 24.3177C15.4807 24.6589 15.3269 25.4212 14.8241 25.3731C14.7173 25.3625 14.6196 25.3774 14.531 25.418C14.5035 25.431 14.4806 25.452 14.4652 25.4782C14.4498 25.5044 14.4426 25.5346 14.4445 25.5649C14.4464 25.5952 14.4573 25.6243 14.4759 25.6483C14.4944 25.6724 14.5197 25.6903 14.5486 25.6999L15.226 25.9193C15.2869 25.9385 15.3339 25.9209 15.367 25.8664C15.7834 25.1858 16.1662 23.9958 15.4599 23.4353C14.5294 22.697 13.6165 23.5378 13.0191 24.2537C12.6396 24.7085 11.9653 24.6781 11.8596 24.0327C11.7603 23.4401 12.1079 22.9308 12.5771 22.5528C12.5867 22.5449 12.5944 22.5351 12.5999 22.5239C12.6054 22.5128 12.6085 22.5006 12.6089 22.4883C12.6094 22.4759 12.6072 22.4635 12.6025 22.452C12.5979 22.4405 12.5909 22.4301 12.5819 22.4215L12.3977 22.2502C12.3315 22.1882 12.2653 22.1882 12.1991 22.2502C11.424 22.9708 11.0028 24.5516 12.1783 25.1169C13.0864 25.5525 13.7879 24.8334 14.3116 24.1752C14.5774 23.8405 15.0451 23.565 15.3606 24.0615C15.41 24.1383 15.4403 24.2262 15.4487 24.3177ZM49.1002 23.6018C49.1898 23.5324 49.2785 23.4593 49.366 23.3824C49.4653 23.296 49.4712 23.2025 49.3836 23.1022C49.3441 23.0563 49.2961 23.0445 49.2395 23.0669L48.5749 23.32C48.5193 23.3413 48.4932 23.3814 48.4964 23.4401C48.5252 23.8928 48.6346 24.3108 48.8247 24.6941C49.1995 25.4404 50.0595 25.7383 50.7129 25.0977C51.2078 24.6124 51.2462 23.7492 51.3423 23.0878C51.4176 22.5689 51.9381 22.3719 52.3241 22.7018C52.8013 23.1118 52.8269 23.8421 52.6283 24.401C52.6209 24.4213 52.6278 24.4325 52.6492 24.4346L53.056 24.4779C53.0891 24.4811 53.1083 24.4667 53.1136 24.4346C53.2524 23.6723 53.1238 23.0397 52.7276 22.5368C52.3742 22.0884 51.9418 21.9325 51.4304 22.0692C50.3173 22.3655 50.3974 23.5442 50.2565 24.4619C50.17 25.016 49.5598 25.0673 49.2667 24.6605C49.0777 24.3999 48.9902 24.109 49.0041 23.7876C49.0083 23.7108 49.0404 23.6488 49.1002 23.6018ZM47.5627 20.5189L46.9509 19.1704C46.9157 19.0914 46.8575 19.0658 46.7763 19.0935L46.5793 19.1576C46.4929 19.1864 46.4715 19.2409 46.5153 19.3209C47.2306 20.6278 47.7986 21.8161 48.2193 22.886C48.2372 22.9324 48.2726 22.9701 48.318 22.991C48.3634 23.0119 48.4153 23.0144 48.4627 22.9981C48.7318 22.9052 48.964 22.7845 49.1594 22.6361C49.1725 22.6264 49.1822 22.6125 49.1871 22.5965C49.1919 22.5804 49.1918 22.5629 49.1866 22.5464L49.1706 22.5C49.1375 22.4018 49.0713 22.3676 48.972 22.3975L48.6357 22.4984C48.5652 22.5197 48.5145 22.4973 48.4836 22.4311L47.9999 21.4094C47.9711 21.3485 47.9866 21.3026 48.0463 21.2716L51.4736 19.5355C51.4877 19.5284 51.5001 19.5184 51.5101 19.5062C51.5201 19.494 51.5276 19.4799 51.5319 19.4647C51.5363 19.4496 51.5375 19.4337 51.5354 19.418C51.5334 19.4024 51.5282 19.3873 51.5201 19.3738L51.2334 18.9045C51.1896 18.8341 51.1314 18.8175 51.0588 18.8549L47.6924 20.5653C47.681 20.5712 47.6686 20.5746 47.6558 20.5754C47.643 20.5762 47.6302 20.5744 47.6181 20.57C47.606 20.5657 47.5948 20.5589 47.5853 20.5501C47.5758 20.5413 47.5681 20.5307 47.5627 20.5189ZM16.7171 21.4494C16.7095 21.473 16.6969 21.4946 16.6802 21.5129C16.6635 21.5312 16.6431 21.5457 16.6203 21.5554C16.5976 21.5651 16.573 21.5698 16.5482 21.5692C16.5235 21.5686 16.4991 21.5627 16.4769 21.5519L12.9743 19.8527C12.938 19.8356 12.9129 19.8457 12.899 19.8831L12.662 20.5205C12.647 20.5579 12.6583 20.5851 12.6956 20.6022L16.1774 22.2758C16.2457 22.3078 16.2713 22.3607 16.2542 22.4343L16.1918 22.7146C16.1894 22.7238 16.189 22.7334 16.1905 22.7429C16.192 22.7523 16.1953 22.7614 16.2004 22.7696C16.2055 22.7778 16.2121 22.7849 16.22 22.7906C16.2278 22.7963 16.2368 22.8004 16.2462 22.8027L16.3039 22.8171C16.3904 22.8384 16.4523 22.8085 16.4897 22.7274L17.0582 21.4734C17.0718 21.4441 17.0754 21.4113 17.0686 21.3799C17.0618 21.3485 17.0448 21.3201 17.0203 21.299C16.9958 21.2779 16.965 21.2652 16.9326 21.2629C16.9001 21.2606 16.8678 21.2687 16.8404 21.286C16.7817 21.3234 16.7406 21.3779 16.7171 21.4494ZM15.8763 19.2184C15.9307 19.1597 15.9612 19.1704 15.9676 19.2505C16.0813 20.6086 17.5787 20.6054 18.1248 19.5307C18.3587 19.0695 18.6341 18.644 18.9512 18.2543C18.9771 18.2228 18.9901 18.1826 18.9877 18.1417C18.9853 18.1009 18.9678 18.0622 18.9384 18.0333L18.9048 18.0013C18.8375 17.9351 18.7745 17.9388 18.7158 18.0125L18.5172 18.2623C18.4766 18.3125 18.4291 18.32 18.3747 18.2848L15.0419 16.1355C15.0306 16.1281 15.0179 16.1233 15.0046 16.1214C14.9912 16.1195 14.9776 16.1206 14.9648 16.1246C14.9519 16.1286 14.9401 16.1354 14.9302 16.1444C14.9203 16.1535 14.9125 16.1647 14.9073 16.1771C14.8032 16.4302 14.6671 16.6848 14.4893 16.8914C14.0169 17.4407 13.6437 18.4113 14.0842 19.0711C14.4973 19.6893 15.3574 19.7854 15.8763 19.2184ZM47.5915 14.7982C47.694 14.7683 47.718 14.7993 47.6636 14.8911L45.8346 17.9532C45.812 17.9909 45.8002 18.034 45.8005 18.0778C45.8008 18.1216 45.8131 18.1644 45.8362 18.2015L46.2686 18.8965C46.2943 18.9371 46.3311 18.959 46.3791 18.9622C46.4571 18.9665 46.5147 18.9334 46.5521 18.8629C46.5617 18.8453 46.5675 18.8259 46.5692 18.806C46.5708 18.7861 46.5683 18.7662 46.5617 18.7476L46.4897 18.5426C46.4726 18.4946 46.4763 18.4481 46.5009 18.4033L48.6373 14.6108C48.6527 14.5834 48.659 14.5516 48.6553 14.52C48.6516 14.4884 48.638 14.4585 48.6165 14.4347L48.4147 14.2169C48.3517 14.1485 48.2754 14.1266 48.1857 14.1512L44.2315 15.2691C44.1717 15.2861 44.1167 15.276 44.0665 15.2386L43.8151 15.0497C43.8067 15.0435 43.797 15.0392 43.7867 15.0373C43.7765 15.0353 43.7659 15.0356 43.7558 15.0382C43.7457 15.0408 43.7363 15.0456 43.7282 15.0523C43.7202 15.059 43.7138 15.0674 43.7094 15.0769L43.6918 15.1185C43.6597 15.1901 43.6667 15.2579 43.7126 15.3219L44.3612 16.214C44.3996 16.2674 44.452 16.2903 44.5182 16.2828L44.5662 16.278C44.6409 16.2695 44.665 16.23 44.6383 16.1595L44.5054 15.8008C44.5004 15.788 44.4982 15.7743 44.4988 15.7606C44.4995 15.7469 44.503 15.7335 44.5092 15.7213C44.5154 15.709 44.5241 15.6982 44.5348 15.6896C44.5454 15.6809 44.5578 15.6746 44.571 15.671L47.5915 14.7982ZM21.2222 10.6791C21.1998 10.5787 21.2307 10.5579 21.3151 10.6166C22.2109 11.2423 23.1334 11.8882 24.0825 12.5545C24.3868 12.7675 24.8112 12.3927 25.0883 12.2406C25.1107 12.2283 25.1301 12.2113 25.1453 12.1908C25.1605 12.1703 25.171 12.1468 25.1762 12.1218C25.1814 12.0968 25.1811 12.071 25.1753 12.0462C25.1695 12.0213 25.1584 11.998 25.1428 11.9779C25.1225 11.9512 25.0969 11.9304 25.0659 11.9154C25.0392 11.9016 25.0136 11.9026 24.989 11.9187C24.8524 12.0094 24.7178 12.011 24.5854 11.9235C23.4494 11.1675 22.2984 10.3988 21.1325 9.61725C21.0823 9.58308 21.03 9.57987 20.9756 9.60763C20.8485 9.67383 20.7449 9.76566 20.6649 9.8831C20.6382 9.92154 20.6302 9.96371 20.6409 10.0096C20.912 11.2695 21.195 12.5598 21.4897 13.8805C21.5761 14.2665 21.3968 14.6749 21.179 14.9824C21.1532 15.0191 21.1199 15.0499 21.0812 15.0727C21.0426 15.0955 20.9995 15.1097 20.9548 15.1144C20.9102 15.1191 20.8651 15.1142 20.8225 15.1C20.78 15.0858 20.741 15.0626 20.7081 15.032L17.9198 12.46C17.8739 12.4173 17.8334 12.4215 17.7981 12.4728L17.457 12.9693C17.4164 13.028 17.4228 13.0819 17.4762 13.131L18.6309 14.196C18.6779 14.2387 18.6838 14.2863 18.6485 14.3386C18.5514 14.4859 18.4179 14.5484 18.2482 14.526C17.7026 14.4544 17.1394 14.3898 16.5585 14.3322C16.3194 14.3087 16.117 14.3839 15.9515 14.558C15.8886 14.6242 15.8261 14.6904 15.7642 14.7566C15.5965 14.9327 15.6339 15.0256 15.8763 15.0352C16.5735 15.0598 17.3022 15.1239 18.0624 15.2274C18.1254 15.236 18.151 15.2712 18.1392 15.3331C17.9278 16.451 18.695 17.5881 19.9041 16.7617C20.3269 16.4734 20.6072 15.8825 21.0396 15.5077C21.172 15.3934 21.3012 15.2552 21.4272 15.0929C21.6888 14.7544 22.008 14.4267 22.3849 14.1096C22.6284 13.9046 22.5953 13.8069 22.2856 13.8165C22.2205 13.8186 22.1495 13.841 22.0726 13.8837C21.9957 13.9275 21.9477 13.9062 21.9285 13.8197L21.2222 10.6791ZM43.3619 14.2905L45.7465 11.1259C45.7534 11.1168 45.7585 11.1064 45.7613 11.0953C45.7642 11.0842 45.7648 11.0727 45.7631 11.0614C45.7615 11.05 45.7576 11.0392 45.7518 11.0293C45.7459 11.0195 45.7381 11.011 45.7289 11.0042C45.4374 10.7912 45.146 10.5942 44.8929 10.3251C42.3449 7.61693 38.9176 11.5455 41.9269 13.7284C42.4298 14.0935 42.8953 14.4891 43.3234 14.9151C43.3811 14.9728 43.4441 14.9797 43.5124 14.9359C43.5626 14.9039 43.5951 14.8591 43.6101 14.8014C43.6197 14.7651 43.6117 14.7342 43.5861 14.7085L43.3747 14.4923C43.3127 14.4283 43.3085 14.361 43.3619 14.2905ZM39.5918 11.5967C39.5747 11.5912 39.559 11.5821 39.5457 11.57C39.5324 11.5578 39.5219 11.5429 39.5149 11.5264C39.5079 11.5098 39.5046 11.4919 39.5052 11.4739C39.5057 11.4559 39.5102 11.4383 39.5182 11.4222L41.267 7.86036C41.2702 7.85422 41.2721 7.84748 41.2725 7.84057C41.2729 7.83367 41.2719 7.82675 41.2695 7.82026C41.2671 7.81378 41.2633 7.80787 41.2585 7.80292C41.2536 7.79797 41.2478 7.79408 41.2414 7.7915L40.628 7.52885C40.5896 7.51176 40.5613 7.52244 40.5431 7.56088L38.8471 11.0458C38.8194 11.1024 38.7745 11.1243 38.7126 11.1115L38.4788 11.0618C38.4447 11.0544 38.4092 11.0583 38.3776 11.0731C38.3461 11.0879 38.3203 11.1126 38.3042 11.1435L38.285 11.1835C38.2794 11.1938 38.2759 11.2051 38.2748 11.2168C38.2736 11.2284 38.2748 11.2401 38.2782 11.2513C38.2816 11.2625 38.2873 11.2729 38.2948 11.2819C38.3022 11.2909 38.3114 11.2983 38.3218 11.3037L39.579 11.9651C39.6059 11.9791 39.6363 11.9847 39.6664 11.9811C39.6964 11.9776 39.7247 11.965 39.7476 11.9451C39.7704 11.9253 39.7867 11.899 39.7943 11.8697C39.802 11.8404 39.8006 11.8094 39.7904 11.7809C39.7584 11.6923 39.6922 11.6309 39.5918 11.5967ZM36.4096 7.08042C36.5356 8.16519 36.6738 9.31135 36.8244 10.5189C36.8708 10.8857 37.4698 10.9818 37.7613 11.0538C37.7828 11.0592 37.8052 11.0596 37.8269 11.055C37.8486 11.0503 37.8689 11.0407 37.8862 11.0269C37.9036 11.0131 37.9175 10.9955 37.9269 10.9755C37.9364 10.9554 37.9411 10.9335 37.9406 10.9113C37.9374 10.7864 37.8729 10.7143 37.7469 10.6951C37.7171 10.6904 37.6896 10.6764 37.6683 10.6551C37.6471 10.6338 37.6331 10.6063 37.6284 10.5766L36.9893 6.26684C36.9787 6.19744 36.9386 6.15473 36.8692 6.13871C36.771 6.11629 36.6674 6.10028 36.5585 6.09067C36.471 6.0832 36.4016 6.11576 36.3503 6.18836C35.5133 7.37029 34.6997 8.5234 33.9096 9.64767C33.8711 9.70213 33.8199 9.7379 33.7558 9.75498L33.4243 9.84787C33.4055 9.85334 33.3882 9.86315 33.374 9.87653C33.3598 9.8899 33.3491 9.90643 33.3426 9.92474C33.3213 9.9856 33.3298 10.0385 33.3683 10.0833C33.4024 10.1239 33.4457 10.1447 33.498 10.1458C33.8877 10.1554 34.2769 10.1927 34.6655 10.2579C34.705 10.2643 34.7418 10.2563 34.776 10.2338C34.8187 10.2039 34.8363 10.1591 34.8289 10.0993C34.8258 10.0695 34.8108 10.0419 34.7872 10.0224C34.6986 9.95197 34.603 9.89859 34.5006 9.86228C34.4173 9.83452 34.4007 9.78488 34.4509 9.71334L36.2991 7.05319C36.3599 6.96564 36.3968 6.97472 36.4096 7.08042ZM31.7299 8.82289L29.9842 6.2252C29.9533 6.17891 29.9097 6.14257 29.8586 6.12054C29.8075 6.09851 29.7511 6.09174 29.6962 6.10105C29.6414 6.11036 29.5904 6.13536 29.5494 6.17302C29.5084 6.21068 29.4792 6.2594 29.4653 6.31328L28.7222 9.18964C28.6667 9.40424 28.6117 9.40424 28.5572 9.18964L27.8125 6.25563C27.8077 6.237 27.7956 6.22104 27.7788 6.21117C27.7621 6.20129 27.742 6.19828 27.7228 6.20278L27.0534 6.37094C27.0429 6.37336 27.0329 6.37788 27.0242 6.38424C27.0155 6.3906 27.0081 6.39866 27.0026 6.40794C26.997 6.41722 26.9934 6.42752 26.992 6.43822C26.9905 6.44893 26.9913 6.45982 26.9941 6.47023L28.0079 10.3107C28.0185 10.3514 28.0156 10.3945 27.9997 10.4334C27.9839 10.4724 27.9558 10.5052 27.9198 10.5269L27.6187 10.7063C27.5959 10.7197 27.5772 10.7392 27.5648 10.7627C27.5524 10.7862 27.5468 10.8126 27.5487 10.8391C27.5505 10.8655 27.5597 10.891 27.5752 10.9125C27.5907 10.934 27.6119 10.9508 27.6364 10.9609C27.6962 10.9866 27.7581 10.9903 27.8221 10.9721C28.0901 10.8942 28.3656 10.8051 28.6485 10.7047C28.7013 10.6859 28.7487 10.6546 28.7864 10.6135C28.8241 10.5725 28.851 10.5229 28.8647 10.4693L29.7552 7.02756C29.758 7.01751 29.7635 7.00846 29.7713 7.00149C29.779 6.99451 29.7886 6.9899 29.7989 6.98822C29.8092 6.98653 29.8197 6.98783 29.8293 6.99197C29.8389 6.99611 29.8471 7.0029 29.8529 7.01155L31.85 10.0625C31.8938 10.1308 31.9568 10.1655 32.039 10.1666L33.0303 10.189C33.0561 10.1895 33.0814 10.1827 33.1033 10.1693C33.1251 10.156 33.1426 10.1367 33.1537 10.1137C33.1846 10.0529 33.1921 9.99681 33.1761 9.94556C33.1515 9.86869 33.0987 9.82758 33.0175 9.82225C32.8681 9.81264 32.7495 9.76192 32.662 9.6701C32.6203 9.62419 32.5974 9.57027 32.5931 9.50835L32.3257 5.51412C32.3225 5.46714 32.2984 5.45059 32.2536 5.46447L31.669 5.63423C31.6263 5.64598 31.6066 5.67427 31.6098 5.71911L31.8228 8.79086C31.8313 8.91685 31.8004 8.92752 31.7299 8.82289Z" fill="#EA5128"/>
<path d="M33.0256 34.3369C32.9967 34.2835 33.0074 34.2392 33.0576 34.204C33.5012 33.8885 34.8369 33.8805 35.3014 34.1816C35.3256 34.1972 35.3462 34.2178 35.3618 34.2421C35.3774 34.2663 35.3877 34.2937 35.3919 34.3223C35.3962 34.3509 35.3943 34.3801 35.3864 34.4081C35.3785 34.436 35.3648 34.462 35.3462 34.4843C34.712 35.2434 33.5333 35.2834 33.0256 34.3369Z" fill="#EA5128"/>
<path d="M29.6031 34.9215C29.3746 34.836 29.1856 34.6866 29.0361 34.473C29.015 34.4425 29.0013 34.4075 28.9962 34.3707C28.9911 34.334 28.9947 34.2966 29.0067 34.2617C29.0187 34.2267 29.0388 34.1951 29.0654 34.1695C29.0919 34.1439 29.1241 34.125 29.1594 34.1143C29.7883 33.9189 30.4695 33.9194 31.203 34.1159C31.2315 34.1234 31.2579 34.1375 31.28 34.1571C31.302 34.1767 31.3191 34.2013 31.3299 34.2287C31.3407 34.2562 31.3448 34.2858 31.3419 34.3152C31.3391 34.3446 31.3293 34.3729 31.3135 34.3978C30.9153 35.0245 30.3451 35.1991 29.6031 34.9215Z" fill="#EA5128"/>
<path d="M32.165 32.1092C31.7581 32.1099 31.4285 32.246 31.4288 32.4132C31.4291 32.5803 31.7592 32.7153 32.166 32.7146C32.5729 32.7139 32.9025 32.5778 32.9022 32.4106C32.9019 32.2434 32.5719 32.1085 32.165 32.1092Z" fill="#EA5128"/>
<path d="M32.9422 30.498C33.207 30.624 33.4221 30.8045 33.5876 31.0393C33.5976 31.0534 33.6037 31.0697 33.6055 31.0868C33.6072 31.1039 33.6045 31.1212 33.5976 31.1371C33.5907 31.153 33.5799 31.1669 33.5661 31.1775C33.5523 31.1882 33.536 31.1952 33.5188 31.1979C32.655 31.3239 31.7485 31.3244 30.7994 31.1995C30.7811 31.197 30.7639 31.1897 30.7495 31.1782C30.7351 31.1668 30.724 31.1516 30.7174 31.1344C30.7109 31.1172 30.7091 31.0986 30.7122 31.0804C30.7154 31.0623 30.7233 31.0453 30.7353 31.0313C31.3941 30.2872 32.1297 30.1094 32.9422 30.498Z" fill="#EA5128"/>
<path d="M17.9647 18.951C17.975 18.9578 17.9838 18.9665 17.9906 18.9767C17.9975 18.9869 18.0022 18.9984 18.0046 19.0105C18.007 19.0226 18.007 19.035 18.0045 19.047C18.0021 19.0591 17.9972 19.0705 17.9903 19.0807L17.8798 19.2505C17.7706 19.418 17.6012 19.5367 17.409 19.5802C17.2168 19.6237 17.0174 19.5887 16.8548 19.4827L16.7267 19.3994C16.6459 19.347 16.5766 19.2786 16.5228 19.1983C16.4689 19.118 16.4315 19.0272 16.4128 18.9312C16.394 18.8353 16.3943 18.736 16.4135 18.6391C16.4328 18.5422 16.4706 18.4495 16.5249 18.3664L16.6354 18.1967C16.6421 18.1863 16.6507 18.1773 16.6609 18.1703C16.671 18.1633 16.6825 18.1584 16.6946 18.1558C16.7066 18.1533 16.7191 18.1532 16.7312 18.1555C16.7433 18.1579 16.7549 18.1626 16.7651 18.1694L17.9647 18.951Z" fill="#EA5128"/>
<path d="M16.2863 17.8699C16.318 17.8908 16.3401 17.9234 16.3479 17.9606C16.3557 17.9978 16.3485 18.0366 16.3279 18.0685L16.0765 18.4561C15.9445 18.6586 15.7422 18.8035 15.514 18.8591C15.2859 18.9146 15.0504 18.8762 14.8593 18.7523L14.7215 18.6643C14.6267 18.6028 14.5457 18.522 14.4831 18.4267C14.4205 18.3313 14.3775 18.2232 14.3567 18.1085C14.3359 17.9938 14.3376 17.8748 14.3617 17.7583C14.3858 17.6418 14.4319 17.5301 14.4973 17.4295L14.7488 17.0435C14.759 17.0274 14.7723 17.0136 14.788 17.0027C14.8036 16.9918 14.8212 16.9842 14.8399 16.9801C14.8585 16.9761 14.8777 16.9758 14.8964 16.9793C14.9152 16.9827 14.933 16.9899 14.949 17.0003L16.2863 17.8699Z" fill="#EA5128"/>
<path d="M20.2709 15.7046C20.3005 15.7336 20.3174 15.7731 20.318 15.8145C20.3186 15.8559 20.3028 15.8958 20.2741 15.9256L20.1236 16.0826C19.9738 16.2378 19.7694 16.328 19.5553 16.3334C19.3412 16.3388 19.1348 16.259 18.9817 16.1114L18.7462 15.884C18.5933 15.7363 18.506 15.5331 18.5036 15.319C18.5012 15.1049 18.5839 14.8974 18.7334 14.7421L18.8856 14.5852C18.9143 14.5554 18.9537 14.5381 18.9951 14.5372C19.0365 14.5363 19.0766 14.5518 19.1066 14.5804L20.2709 15.7046Z" fill="#EA5128"/>
<path d="M42.859 13.6803C42.8383 13.7079 42.8124 13.7311 42.7828 13.7485C42.7531 13.766 42.7203 13.7775 42.6862 13.7823C42.6522 13.787 42.6175 13.785 42.5842 13.7763C42.5509 13.7676 42.5196 13.7524 42.4922 13.7316L42.0069 13.368C41.836 13.2396 41.6923 13.0784 41.5841 12.8937C41.4759 12.7089 41.4053 12.5042 41.3763 12.2912C41.3473 12.0782 41.3605 11.8611 41.4151 11.6524C41.4697 11.4436 41.5647 11.2473 41.6946 11.0746L42.0582 10.591C42.3202 10.2423 42.7084 10.0107 43.1376 9.94737C43.5668 9.884 44.0017 9.99395 44.3468 10.2531L44.8321 10.6166C44.8596 10.6373 44.8828 10.6631 44.9003 10.6928C44.9178 10.7224 44.9292 10.7552 44.934 10.7893C44.9387 10.8234 44.9367 10.8581 44.928 10.8914C44.9193 10.9247 44.9041 10.9559 44.8833 10.9834L42.859 13.6803Z" fill="#EA5128"/>
</svg>
