<svg width="64" height="64" viewBox="0 0 64 64" fill="none" xmlns="http://www.w3.org/2000/svg">
<path d="M7.08594 1.22052H10.8898L10.8941 10.792C10.8941 11.0028 10.9531 11.0204 11.0711 10.8447C12.2269 9.12498 14.7176 8.53198 16.7058 8.71207C20.3436 9.04371 22.6399 11.5387 23.2625 15.0066C23.9333 18.7535 22.878 23.357 19.1725 25.0898C17.1275 26.0474 14.5057 26.166 12.5197 24.9515C11.9006 24.5737 11.4243 24.1271 11.0908 23.6117C10.9422 23.3804 10.8679 23.4023 10.8679 23.6776L10.8657 25.2721C10.8657 25.3673 10.8184 25.4149 10.7237 25.4149L7.08594 25.3995V1.22052ZM13.3914 12.5468C11.1672 13.5571 10.5948 16.1904 10.9706 18.4746C11.3879 21.0003 13.3106 22.6432 15.9149 22.2764C18.9497 21.8525 19.876 18.5405 19.4107 15.9181C19.0698 13.9956 18.0801 12.8016 16.4414 12.336C15.3796 12.0358 14.3629 12.1061 13.3914 12.5468Z" fill="#FFAA2B"/>
<path d="M7.08594 34.0507L56.1816 34.0485C56.2515 34.0485 56.2872 34.0836 56.2887 34.1539L56.2996 37.3407C56.3011 37.4418 56.2515 37.4923 56.151 37.4923H7.08594V34.0507Z" fill="#FFAA2B"/>
<path d="M48.1501 63.156H47.3745C44.3288 62.9495 41.9976 60.7225 42.3122 57.6125C42.5678 55.0978 44.5408 53.7141 46.9616 53.3188C48.4138 53.0801 49.9381 52.8429 51.5345 52.6072C52.3997 52.4776 52.6487 51.7309 52.4674 50.9578C52.2474 50.0295 51.6568 49.4409 50.6955 49.1919C48.6614 48.6692 46.4438 49.4972 46.1903 51.8407C46.1883 51.8592 46.1824 51.877 46.1731 51.893C46.1637 51.9091 46.1511 51.9229 46.1361 51.9337C46.121 51.9445 46.1038 51.952 46.0857 51.9556C46.0676 51.9593 46.0489 51.959 46.0308 51.9549L42.7776 51.2125C42.7284 51.201 42.6854 51.1711 42.6571 51.1288C42.6287 51.0865 42.6172 51.0348 42.6246 50.9841C42.8023 49.7937 43.3049 48.7659 44.1322 47.9005C45.9041 46.049 48.4494 45.5966 50.9708 45.9173C53.3217 46.216 55.3186 47.4569 56.0396 49.8069C56.2668 50.5434 56.3739 51.5976 56.3608 52.9696C56.3389 55.3577 56.3316 57.8475 56.3389 60.4392C56.3411 61.1288 56.4329 61.8338 56.5334 62.53C56.5353 62.5421 56.5345 62.5545 56.5312 62.5663C56.5279 62.5781 56.5222 62.5891 56.5143 62.5985C56.5064 62.6078 56.4966 62.6154 56.4856 62.6207C56.4746 62.6259 56.4626 62.6287 56.4504 62.6289L53.0354 62.6267C52.9903 62.6267 52.9469 62.6095 52.914 62.5785C52.8811 62.5475 52.8613 62.505 52.8585 62.4597L52.7492 60.8015C52.7434 60.7195 52.7157 60.7108 52.6662 60.7752C51.5505 62.2379 50.0451 63.0315 48.1501 63.156ZM52.5089 56.1893C52.5249 55.9009 52.5358 55.5963 52.5417 55.2757C52.5419 55.2596 52.5386 55.2438 52.532 55.2292C52.5255 55.2145 52.5158 55.2015 52.5038 55.1911C52.4917 55.1806 52.4775 55.1729 52.4621 55.1686C52.4468 55.1642 52.4307 55.1633 52.4149 55.1659C51.1943 55.3591 49.9169 55.5495 48.5827 55.7369C47.3264 55.9148 46.1881 56.521 46.1707 57.9354C46.151 59.2993 47.2959 60.0878 48.5565 60.0636C51.056 60.0153 52.3734 58.7238 52.5089 56.1893Z" fill="#FFAA2B"/>
</svg>
