<svg aria-label="Lisbon School of Design's Logo in Lilac" width="65" height="65" viewBox="0 0 65 65" fill="none" xmlns="http://www.w3.org/2000/svg">
<path d="M58.4088 21.8661C54.4738 24.0866 50.9745 23.679 47.9108 20.6435C41.0808 13.8767 49.3021 2.83062 58.472 7.95313C59.5401 8.54338 60.039 8.2342 59.9687 7.0256L59.6736 2.55658C59.5612 0.954475 60.299 0.153424 61.8871 0.153424H62.4351C63.9248 0.13937 64.6697 0.884208 64.6697 2.38794L64.6486 21.6975C64.6486 22.3018 64.3745 22.7304 63.8264 22.9834C62.2665 23.7563 60.8822 23.4542 59.6736 22.0769C59.5174 21.9044 59.3074 21.7898 59.0779 21.7515C58.8483 21.7132 58.6125 21.7536 58.4088 21.8661ZM56.1321 14.8464C56.1321 14.5585 56.0754 14.2734 55.9652 14.0074C55.8551 13.7414 55.6936 13.4997 55.49 13.2962C55.2864 13.0926 55.0447 12.9311 54.7788 12.8209C54.5128 12.7107 54.2277 12.654 53.9398 12.654C53.3583 12.654 52.8007 12.885 52.3895 13.2962C51.9784 13.7073 51.7474 14.2649 51.7474 14.8464C51.7474 15.4278 51.9784 15.9855 52.3895 16.3966C52.8007 16.8078 53.3583 17.0387 53.9398 17.0387C54.2277 17.0387 54.5128 16.982 54.7788 16.8719C55.0447 16.7617 55.2864 16.6002 55.49 16.3966C55.6936 16.193 55.8551 15.9514 55.9652 15.6854C56.0754 15.4194 56.1321 15.1343 56.1321 14.8464Z" fill="#BFAEF2"/>
<path d="M24.2587 58.8199C25.3979 58.3978 26.3804 57.6381 27.0739 56.6431C27.7674 55.648 28.1386 54.4655 28.1375 53.2547C28.1094 43.4172 28.1023 33.7273 28.1164 24.185C28.1164 16.2026 32.1919 12.5486 40.343 13.2232C41.3829 13.3075 41.9451 13.8767 42.0294 14.9307L42.0716 15.521C42.0849 15.6815 42.0606 15.8429 42.0004 15.9924C41.9403 16.1418 41.846 16.2751 41.7252 16.3816C41.6043 16.4881 41.4602 16.5649 41.3044 16.6058C41.1486 16.6467 40.9854 16.6506 40.8278 16.6171C36.928 15.8372 31.426 17.3339 31.3206 22.0769C31.152 31.4085 31.173 41.4708 31.3838 52.2639C31.5314 59.9161 25.5868 63.8159 17.9978 62.1295C17.8638 62.1002 17.7384 62.0402 17.6315 61.9542C17.5246 61.8682 17.4391 61.7585 17.3819 61.6338C17.3246 61.5091 17.2972 61.3728 17.3016 61.2357C17.3061 61.0985 17.3424 60.9643 17.4076 60.8436L17.7238 60.2323C17.9297 59.8354 18.2589 59.516 18.6618 59.3222C19.0647 59.1283 19.5197 59.0704 19.9583 59.1572C21.448 59.4382 22.8814 59.3258 24.2587 58.8199Z" fill="#BFAEF2"/>
<path d="M8.3009 57.9345L11.9478 57.8502C12.1073 57.8474 12.2659 57.8764 12.4141 57.9355C12.5623 57.9947 12.6973 58.0827 12.8111 58.1946C12.9249 58.3064 13.0153 58.4398 13.077 58.587C13.1387 58.7342 13.1705 58.8922 13.1704 59.0518L13.1283 62.9727C13.1228 63.2877 12.9937 63.5879 12.769 63.8087C12.5442 64.0295 12.2418 64.1532 11.9267 64.1532H2.04004C1.72137 64.1532 1.41574 64.0266 1.1904 63.8013C0.965061 63.5759 0.838467 63.2703 0.838467 62.9516L0.817386 44.0004C0.816636 43.6958 0.931591 43.4023 1.139 43.1793C1.34641 42.9562 1.6308 42.8202 1.93464 42.7989L5.77126 42.5459C5.936 42.5343 6.10136 42.5568 6.25702 42.612C6.41268 42.6671 6.55529 42.7538 6.67596 42.8666C6.79662 42.9793 6.89275 43.1157 6.95834 43.2673C7.02393 43.4189 7.05757 43.5823 7.05716 43.7475V56.7329C7.05706 56.8943 7.08948 57.0541 7.15248 57.2027C7.21549 57.3513 7.30779 57.4857 7.42387 57.5978C7.53995 57.71 7.67743 57.7976 7.82812 57.8554C7.9788 57.9133 8.13959 57.9402 8.3009 57.9345Z" fill="#BFAEF2"/>
</svg>
