<svg width="482" height="400" viewBox="0 0 482 400" fill="none" xmlns="http://www.w3.org/2000/svg">
<circle cx="319.5" cy="237.5" r="162.5" fill="#FFE6BF"/>
<path d="M319.205 103L344.527 171.426L408.383 135.202L383.801 203.897L456 217.197L393.017 254.019L439.776 310.62L367.862 298.338L367.303 371.756L320.107 316.118L272.49 372L272.097 299.039L199.704 311.237L246.296 255.092L183 217.899L254.778 204.842L230.195 135.66L293.572 171.8L319.205 103Z" fill="#FFA4D3"/>
<circle cx="142.5" cy="107.5" r="107.5" fill="#00C7BE"/>
<path d="M160.928 72.0885C201.707 93.6458 226.478 126.868 216.252 146.29C206.025 165.713 164.674 163.982 123.892 142.421C83.1127 120.864 58.3419 87.6421 68.5686 68.2194C78.7952 48.7966 120.146 50.5281 160.928 72.0885Z" fill="#D7CDF5"/>
<ellipse cx="67.5" cy="310" rx="67.5" ry="67" fill="#FFE6BF"/>
<path d="M75.8547 300.317L67.0344 270L58.659 299.795L58.3653 300.84L57.3169 301.145L27 309.966L56.7955 318.341L57.8402 318.635L58.1452 319.683L66.9657 350L75.3412 320.205L75.6349 319.16L76.6834 318.855L107 310.034L77.2047 301.659L76.1599 301.365L75.8547 300.317Z" fill="#FFAA2B"/>
</svg>
