<svg width="68" height="139" viewBox="0 0 68 139" fill="none" xmlns="http://www.w3.org/2000/svg">
<path d="M45.6981 1.48718C44.1724 2.09746 41.5371 2.84644 39.8172 3.12384C35.2401 3.84508 31.6617 5.75914 28.2219 9.25436C26.5575 10.9465 24.0055 13.027 22.563 13.8592C19.2065 15.801 16.8208 18.7414 15.3506 22.736C14.6848 24.5391 13.1592 27.1189 11.8554 28.5614C8.91494 31.8347 7.38925 34.8028 6.66801 38.6864C6.36287 40.3508 5.22553 43.4022 4.11594 45.4827C2.39606 48.7838 2.1464 49.7824 2.11866 53.2499C2.11866 55.7465 1.70256 58.4095 1.03681 60.2958C-0.350191 64.2626 -0.350191 67.2863 1.06455 71.0867L2.22962 74.1381L0.981326 77.4946C-0.54437 81.7111 -0.239231 85.1231 2.11866 89.7279C3.47792 92.4187 3.8108 93.7502 3.8108 96.5797C3.8108 102.904 6.14095 107.232 11.3561 110.561C13.4643 111.92 14.352 112.835 14.352 113.667C14.352 117.19 19.3729 123.182 24.0609 125.263C25.3925 125.845 27.5562 127.232 28.8599 128.342C31.3011 130.395 36.1555 132.947 37.598 132.974C38.0419 132.974 39.5398 133.696 40.9268 134.583C48.2224 139.216 57.3766 139.16 64.4225 134.445L67.0578 132.697V69.9771V7.2571L64.9773 5.25981C60.1506 0.627243 51.8286 -0.981674 45.6981 1.48718Z" fill="#D9CEF7"/>
<path d="M47.4969 0.734161C45.9423 1.24158 44.416 1.83357 44.105 2.0591C43.7941 2.31281 42.0134 2.65108 40.1479 2.8766C34.6644 3.4686 29.2657 6.76682 26.524 11.1926C26.2413 11.6155 24.9129 12.4612 23.5844 13.0532C20.0512 14.6036 16.3202 18.9731 15.1896 22.8633C14.5112 25.2313 13.6632 26.6126 11.826 28.3322C8.99944 30.9538 7.16219 34.6749 6.68168 38.8189C6.45556 40.7358 5.72066 42.6245 4.47698 44.4569C2.44187 47.445 1.65044 51.0251 2.21575 54.5489C2.4984 56.2685 2.27228 57.3679 1.33952 59.172C-0.41293 62.5266 -0.441196 67.9955 1.25473 71.3783C2.38534 73.6053 2.41361 74 1.70697 75.4095C-0.752115 80.1454 -0.554257 85.0505 2.30055 89.7582C3.99647 92.5772 4.10953 93.1128 3.82688 96.2137C3.28983 102.134 6.82301 108.223 12.1652 110.619C13.9459 111.436 14.4264 111.944 14.4264 113.1C14.4829 117.356 19.599 123.361 24.6585 125.08C25.7043 125.447 27.6829 126.715 29.0113 127.956C31.6117 130.295 35.4276 132.297 37.3496 132.325C37.9997 132.325 39.3847 132.973 40.4588 133.791C47.4404 139.034 58.1529 138.978 65.1628 133.65L67 132.269V69.546V6.8232L64.8801 4.76534C60.5838 0.593216 53.2913 -1.09819 47.4969 0.734161ZM57.8138 6.34398C62.0818 8.11995 61.9122 7.41519 61.9122 23.0043V36.9583L55.6939 36.6482L49.4755 36.3099V39.0726V41.8352L55.6939 41.6379L61.9122 41.4405V57.0014V72.5623H55.6939H49.4755V70.448C49.4755 68.7003 49.7581 68.1646 51.1714 67.3753C60.2728 62.2166 52.1324 48.2343 42.8048 53.0548C37.2648 55.902 37.0952 64.7537 42.5504 67.4317L44.3594 68.3338L44.3877 77.4955V86.6573H46.9316H49.4755V82.0059V77.3546H55.6939H61.9122V103.43V129.478L59.5097 130.718C57.7007 131.677 56.0896 131.987 52.8673 132.015L48.6275 132.043L48.4862 121.782L48.3166 111.549L50.069 110.506C55.5808 107.292 55.2133 98.9763 49.4755 96.1009C45.8858 94.2968 42.2678 95.0297 39.3565 98.1588C38.1693 99.4274 37.5192 99.6247 34.5513 99.6247H31.103L31.216 91.365L31.3291 83.1335L33.2511 81.8368C38.3389 78.3694 38.0563 70.5608 32.7141 67.6854L30.8203 66.6706V57.1987V47.7551H37.18H43.5397L43.3984 40.2847L43.2288 32.8144L45.0378 31.6868C50.5496 28.2194 50.7474 21.6793 45.4335 17.7327C41.9851 15.1674 35.8516 16.436 33.9295 20.1289L33.0533 21.8203H27.4002C24.2345 21.8203 21.7754 21.5948 21.7754 21.2847C21.7754 20.439 25.5064 17.8173 27.8524 17.028C29.3223 16.5206 30.3398 15.6467 31.1595 14.1526C33.1098 10.7134 36.4169 8.68375 40.5719 8.40184C42.7483 8.26089 45.1791 7.6689 46.9033 6.8232C50.2104 5.21637 54.6763 5.01904 57.8138 6.34398ZM43.2571 22.3841C46.2815 25.4004 41.8156 29.9672 38.6498 27.0918C36.5299 25.2031 37.9997 21.2565 40.798 21.2565C41.5329 21.2565 42.6352 21.7639 43.2571 22.3841ZM33.8164 28.8678C34.3535 30.0236 35.5406 31.2357 36.6147 31.7432L38.452 32.6171V37.6349L38.4802 42.6809H32.064H25.676L25.7608 54.8026L25.8739 66.9525L23.9801 68.221C22.906 68.9258 21.7189 70.1943 21.3231 71.04L20.56 72.5905L14.2568 72.4495L7.95362 72.2804L6.65342 70.0252C4.92923 67.0934 5.12708 62.6676 7.0774 60.0459C8.29281 58.3827 8.34934 58.0162 7.78403 55.3382C6.96433 51.4762 7.7275 48.5162 10.3562 45.4717C12.1086 43.4138 12.3348 42.7936 12.25 40.4539C12.0521 36.1126 14.1155 32.5043 17.9596 30.5028C18.8075 30.0518 19.6555 29.0651 19.8533 28.304C20.1925 26.8945 20.2773 26.8945 26.524 26.8945H32.8837L33.8164 28.8678ZM48.7971 57.6498C51.3692 59.4539 49.8994 63.5415 46.6489 63.5415C43.5397 63.5415 42.3809 60.4124 44.6421 58.1572C46.2532 56.5504 47.0729 56.4376 48.7971 57.6498ZM30.7073 72.3086C33.2229 74.0564 31.6683 78.2003 28.5026 78.2003C25.5912 78.2003 24.2062 74.6483 26.2979 72.5623C27.6546 71.2092 29.0113 71.1246 30.7073 72.3086ZM21.5493 79.2997C22.1146 80.2018 23.3865 81.4139 24.4323 81.9777L26.3544 82.9926L26.1848 93.8457L26.0152 104.699H31.6683H37.3214L38.2541 106.954C38.8477 108.364 39.95 109.632 41.222 110.393L43.2571 111.577V120.26C43.2571 128.717 43.0027 129.844 41.5612 128.097C41.1654 127.617 40.3175 127.251 39.6674 127.251C37.5757 127.223 32.8837 124.657 31.0182 122.543C30.0289 121.416 28.8135 120.485 28.3047 120.485C24.4606 120.485 19.9947 115.693 19.6272 111.154C19.3446 107.772 19.0619 107.405 15.9527 106.418C10.8084 104.755 7.95362 99.4274 9.59301 94.4659C10.5823 91.4778 10.3562 90.5475 8.17975 88.6306C5.72066 86.4318 4.73137 82.2315 5.94678 79.0742C6.48382 77.6365 6.48382 77.6365 13.5219 77.6365H20.5882L21.5493 79.2997ZM48.0622 101.119C49.4755 102.528 48.9384 105.319 47.0729 106.362C45.2639 107.377 44.0202 106.87 42.72 104.558C40.9959 101.513 45.5183 98.5535 48.0622 101.119Z" fill="#AF99F0"/>
</svg>
