<svg aria-label="black linkedin logo" width="29" height="29" viewBox="0 0 29 29" fill="none" xmlns="http://www.w3.org/2000/svg">
<g clip-path="url(#clip0_9_10796)">
<path fill-rule="evenodd" clip-rule="evenodd" d="M6.47107 27.8803V9.66261H0.416519V27.8803H6.47107V27.8803ZM3.44443 7.17621C5.55511 7.17621 6.8699 5.77613 6.8699 4.02796C6.82999 2.24093 5.55511 0.880371 3.48401 0.880371C1.41257 0.880426 0.0585938 2.24098 0.0585938 4.02801C0.0585938 5.77618 1.37266 7.17626 3.40457 7.17626L3.44443 7.17621ZM9.82202 27.8803C9.82202 27.8803 9.90145 11.3719 9.82202 9.66267H15.8775V12.3046H15.8373C16.6335 11.0614 18.068 9.23487 21.3342 9.23487C25.3189 9.23487 28.3056 11.8386 28.3056 17.4344V27.8804H22.2511V18.1344C22.2511 15.6855 21.3751 14.0145 19.1834 14.0145C17.511 14.0145 16.5143 15.1411 16.0766 16.23C15.9165 16.6176 15.8775 17.1621 15.8775 17.7066V27.8803H9.82202Z" fill="black"/>
</g>
<defs>
<clipPath id="clip0_9_10796">
<rect width="29" height="28" fill="white" transform="translate(0 0.5)"/>
</clipPath>
</defs>
</svg>
