<svg width="67" height="138" viewBox="0 0 67 138" fill="none" xmlns="http://www.w3.org/2000/svg">
<path d="M7.04884 1.70901C5.49541 2.43025 3.30395 3.81726 2.19436 4.78815L0.141602 6.59125V69.8105V133.002L2.77689 134.666C9.57318 138.994 17.0352 139.105 25.2185 135.027C28.048 133.612 31.0994 132.309 31.987 132.087C32.847 131.865 35.2326 130.478 37.2299 128.952C39.2272 127.426 41.5018 125.928 42.2785 125.596C46.8834 123.598 52.2927 117.828 52.2927 114.86C52.2927 112.78 52.9029 111.892 55.0667 110.782C60.1708 108.175 63.0003 103.431 62.9448 97.495C62.917 94.4713 63.2499 93.1953 64.8311 89.8388C67.0226 85.1785 67.3277 81.1284 65.7743 76.801C64.8866 74.3321 64.8866 73.9993 65.7743 71.5304C66.9393 68.3126 66.9948 63.4304 65.913 60.4067C65.4969 59.1584 64.9698 56.3289 64.7756 54.082C64.2486 47.6741 63.9989 46.6754 62.4455 44.4008C61.641 43.2357 60.6424 40.6281 60.2263 38.6586C59.2831 34.1647 57.8129 31.252 55.0667 28.3948C53.8461 27.1188 52.4036 24.7886 51.7101 22.9023C50.2954 19.102 47.7156 16.0783 43.4436 13.1379C41.7515 11.9728 39.3659 9.97552 38.1453 8.69948C35.2049 5.64809 31.8206 3.98369 25.8565 2.65218C23.1657 2.06964 20.253 1.32066 19.3931 0.987778C16.5082 -0.121811 10.1557 0.2388 7.04884 1.70901Z" fill="#AF99F0"/>
<path d="M9.98977 0.503967C6.91382 1.23668 4.51515 2.53299 2.11648 4.84383L0 6.87285V69.5753V132.278L1.83428 133.659C8.55057 138.787 18.7661 139.041 25.7081 134.279C27.2884 133.208 29.0663 132.334 29.6589 132.334C31.5214 132.306 35.3875 130.277 37.9273 127.966C39.2536 126.726 41.229 125.458 42.2731 125.092C47.3244 123.373 52.4322 117.37 52.4886 113.115C52.4886 111.959 52.9684 111.452 54.7462 110.635C60.0797 108.239 63.6072 102.152 63.071 96.2344C62.7888 93.1345 62.9017 92.599 64.6231 89.7528C67.5015 84.962 67.6708 80.2276 65.1593 75.3523C64.482 74.056 64.5384 73.6051 65.5261 71.6325C67.3322 67.969 67.4733 64.39 65.9776 60.4728C65.0464 58.0211 64.6795 55.8512 64.6513 52.5822C64.5949 47.9887 63.8329 45.6215 61.5189 43.0007C60.9828 42.3807 60.3901 40.549 60.2208 38.9145C59.7411 34.7437 57.935 31.0238 55.0848 28.3748C53.2788 26.684 52.404 25.275 51.7267 22.9359C50.6543 19.1879 47.2115 15.0453 43.8252 13.3263C42.5271 12.6781 40.2695 10.79 38.7739 9.15549C35.5568 5.54834 31.4932 3.43478 26.4983 2.73026C24.4947 2.44846 21.4752 1.71574 19.7538 1.06758C16.4521 -0.144196 13.489 -0.313278 9.98977 0.503967ZM19.528 6.59103C26.4701 9.74729 25.3977 19.047 18.117 19.047C16.1699 19.047 15.6619 19.2724 15.1258 20.456C13.4044 24.2604 19.782 25.3313 24.4947 22.006C27.9375 19.6106 29.5178 16.1725 29.1792 11.889C28.9252 8.45097 28.9534 8.39461 30.1104 8.9864C32.7348 10.3391 34.8795 12.3118 35.8108 14.2562C36.347 15.3835 37.1936 16.4262 37.7297 16.6234C44.954 19.0188 49.5256 25.2468 44.6153 26.0077C37.7015 27.1349 34.8231 35.0255 39.2254 40.8026C42.386 44.9452 46.0828 41.8453 43.1197 37.5618C40.721 34.0956 42.2731 31.2775 46.9858 30.5166C50.9648 29.8684 54.9437 35.1946 54.6615 40.6899C54.5487 42.7753 54.8026 43.5925 55.9314 44.8325C58.3301 47.4533 58.7816 48.2424 59.2896 50.4123C60.0797 53.9912 59.4871 55.4003 56.8062 56.1048C48.9894 58.1902 44.3331 67.5744 47.8042 74.2815C49.7231 78.0013 53.9843 76.8177 52.6015 72.9288C51.3034 69.4062 51.7267 66.0808 53.7303 63.8264C55.4235 61.8819 56.1572 61.431 59.0356 60.5292C62.3655 59.4865 62.0833 70.2234 58.697 72.3088C57.8222 72.8442 58.0479 75.1833 59.0638 76.0569C62.6195 78.9877 61.6036 90.2318 57.9632 88.2873C53.1095 85.6947 44.5871 88.0619 44.5871 92.0072C44.5871 94.5999 46.5907 95.2198 49.1023 93.4444C54.2382 89.8091 59.5153 93.7263 57.4835 99.6724C56.1572 103.561 55.1413 104.463 48.5379 107.535C48.0017 107.789 47.5502 109.113 47.3526 111.114C46.8165 115.792 42.4706 120.498 38.6328 120.498C38.153 120.498 36.8267 121.484 35.7261 122.724C33.9483 124.697 29.7153 127.261 28.2197 127.261C26.0468 127.261 24.664 122.95 26.0186 120.385C27.0062 118.525 25.7928 116.44 23.8456 116.665C20.4311 117.06 19.1612 124.641 21.8985 128.361L23.0837 129.967L20.1771 131.207C16.5085 132.785 11.1186 132.588 7.47822 130.728L5.07954 129.488V114.411V99.3061L6.71629 96.7134C8.46591 93.9517 11.9369 91.5845 15.1258 90.9082C17.7502 90.3727 18.7097 88.231 17.0729 86.5683C15.5491 85.0747 12.0216 85.892 7.81685 88.7101L5.07954 90.5418V59.8247V29.0794L6.91382 30.6293C12.3602 35.2228 20.6286 34.5465 18.0324 29.7275C17.6091 28.9103 16.8472 28.6285 15.154 28.6285C11.175 28.6285 7.64754 25.5849 5.89792 20.6533C4.68447 17.2152 4.79735 9.32458 6.09545 8.16916C9.05852 5.46381 15.408 4.73109 19.528 6.59103Z" fill="#D9CEF7"/>
<path d="M24.0565 31.1335C16.7646 39.8282 18.0878 45.0224 28.0544 46.6315C35.5153 47.8453 36.7823 49.9626 34.8959 58.1491C34.1076 61.5084 34.8396 62.8916 37.1764 62.6093C39.1472 62.3835 40.0763 60.2381 40.4423 55.0721C41.118 46.4056 38.1618 42.9617 29.0961 41.776C23.4653 41.0421 23.3245 40.3928 27.7166 34.3235C30.5038 30.456 27.1253 27.492 24.0565 31.1335Z" fill="#D9CEF7"/>
<path d="M10.9674 53.3359C7.77676 56.5256 13.424 63.5766 19.9465 64.5279C23.1937 65.0036 25.9043 67.242 25.9043 69.4244C25.9043 71.9706 29.2362 73.0058 30.5915 70.8794C32.9069 67.186 27.7397 60.9465 21.3866 59.7433C17.6029 59.0438 15.9935 58.0086 15.4852 55.994C14.6946 52.8882 12.6616 51.6851 10.9674 53.3359Z" fill="#D9CEF7"/>
<path d="M39.96 71.6952C39.5958 72.061 39.2876 72.9614 39.2876 73.6929C39.2876 75.6343 37.3542 79.0951 35.3088 80.8114L33.5436 82.3308L31.6103 80.0517C29.6209 77.7164 27.7997 77.1537 26.5108 78.448C25.4181 79.5453 25.7263 80.9802 27.4354 82.9498C30.7137 86.7482 31.8345 90.3497 30.6296 93.2477C30.1813 94.3169 29.733 95.2173 29.6209 95.2173C22.336 95.2173 14.0703 101.154 14.0703 106.387C14.0703 109.764 17.7969 109.257 19.534 105.656C22.7002 99.1564 31.162 99.6065 33.8799 106.416C34.9166 109.032 35.533 109.511 37.3262 109.06C40.1281 108.357 39.1194 103.546 35.4209 99.9442L33.6277 98.1997L34.8045 96.1739C35.7571 94.5701 35.9813 93.3603 35.8692 90.3778L35.7291 86.6075L37.8306 85.1444C43.7706 80.9802 46.5725 71.02 41.8093 71.02C41.1648 71.02 40.3243 71.3295 39.96 71.6952Z" fill="#D9CEF7"/>
</svg>
