<svg aria-label="sara bicudo text black, grey and lilac text illustration" width="217" height="90" viewBox="0 0 217 90" fill="none" xmlns="http://www.w3.org/2000/svg">
<path d="M0.5 26.0191L4.38002 20.7355C7.01646 22.6976 9.45215 23.7428 11.8872 23.7428C14.4532 23.7428 15.5639 22.7809 15.5639 21.2799C15.5639 19.3934 12.6797 18.538 9.68483 17.3838C6.11571 16.0264 1.9841 13.6975 1.9841 8.96534C1.9841 3.63492 6.3875 0.00244141 13.1027 0.00244141C17.5616 0.00244141 20.881 1.77476 23.3591 3.62851L19.4999 8.72232C17.4292 7.24239 15.3866 6.27801 13.3732 6.27801C11.1455 6.27801 10.0492 7.13595 10.0492 8.56458C10.0492 10.3901 12.7743 11.089 15.79 12.1682C19.4745 13.509 23.6289 15.55 23.6289 20.7842C23.6289 25.9646 19.4739 30.0177 11.6747 30.0177C7.8364 30.0183 3.44733 28.382 0.5 26.0191Z" fill="#D0D1D4"/>
<path d="M27.7207 21.385C27.7207 15.3531 32.5992 12.0874 44.109 10.8922C43.9369 8.39145 42.6666 6.75379 39.5074 6.75379C37.0652 6.75379 34.6295 7.76499 31.8067 9.33981L28.7433 3.77086C32.4343 1.5529 36.5959 0.00244141 41.1714 0.00244141C48.6114 0.00244141 52.732 4.18444 52.732 12.955V29.3258H45.6973L45.0762 26.3929H44.8618C42.4124 28.5089 39.6658 30.0183 36.3952 30.0183C31.0878 30.0183 27.7207 26.2089 27.7207 21.385ZM44.109 21.0074V16.0059C37.9777 16.8202 35.9774 18.5444 35.9774 20.7085C35.9774 22.554 37.2666 23.4568 39.3158 23.4568C41.2679 23.4574 42.5786 22.5072 44.109 21.0074Z" fill="#D0D1D4"/>
<path d="M59.9714 0.695076H67.006L67.6278 5.69655H67.8389C69.9579 1.87363 73.1392 0 76.1067 0C77.7701 0 78.736 0.21096 79.5781 0.577093L78.1442 7.89912C77.1092 7.64777 76.254 7.43745 75.0039 7.43745C72.8094 7.43745 70.1456 8.82888 68.5937 12.732V29.3259H59.9707L59.9714 0.695076Z" fill="#D0D1D4"/>
<path d="M80.3364 21.385C80.3364 15.3531 85.215 12.0874 96.7253 10.8922C96.5526 8.39145 95.283 6.75379 92.1238 6.75379C89.6816 6.75379 87.2459 7.76499 84.4224 9.33981L81.3591 3.77086C85.052 1.55033 89.2136 0.00244141 93.7884 0.00244141C101.228 0.00244141 105.35 4.18444 105.35 12.955V29.3258H98.3131L97.6906 26.3929H97.4768C95.0268 28.5089 92.2809 30.0183 89.0103 30.0183C83.7042 30.0183 80.3364 26.2089 80.3364 21.385ZM96.7253 21.0074V16.0059C90.5934 16.8202 88.5931 18.5444 88.5931 20.7085C88.5931 22.554 89.883 23.4568 91.9315 23.4568C93.8843 23.4574 95.1943 22.5072 96.7253 21.0074Z" fill="#D0D1D4"/>
<path d="M0.5 26.1113L4.38002 20.8271C7.01581 22.7892 9.45215 23.8344 11.8872 23.8344C14.4532 23.8344 15.5639 22.8726 15.5639 21.3715C15.5639 19.485 12.6797 18.6303 9.68483 17.4761C6.11571 16.118 1.9841 13.7885 1.9841 9.05503C1.9841 3.72525 6.3875 0.0927734 13.1027 0.0927734C17.5616 0.0927734 20.881 1.86509 23.3585 3.71884L19.4993 8.81201C17.4292 7.33209 15.3866 6.36834 13.3726 6.36834C11.1448 6.36834 10.0485 7.22629 10.0485 8.65491C10.0485 10.4804 12.7743 11.1794 15.79 12.2585C19.4745 13.5993 23.6283 15.6397 23.6283 20.8739C23.6283 26.0549 19.4739 30.1074 11.6747 30.1074C7.8364 30.1093 3.44668 28.4736 0.5 26.1113Z" fill="#2E333B"/>
<path d="M27.7197 21.4768C27.7197 15.4443 32.5983 12.1792 44.1086 10.984C43.9359 8.4794 42.6663 6.84494 39.5071 6.84494C37.0649 6.84494 34.6292 7.85614 31.8064 9.4316L28.743 3.86201C32.436 1.64149 36.5976 0.0942383 41.173 0.0942383C48.6124 0.0942383 52.7336 4.27624 52.7336 13.0468V29.417H45.6964L45.0752 26.4847H44.8614C42.4114 28.6007 39.6655 30.1095 36.3949 30.1095C31.0875 30.1095 27.7197 26.3 27.7197 21.4768ZM44.1086 21.0991V16.0977C37.9767 16.9127 35.9764 18.6362 35.9764 20.801C35.9764 22.6464 37.2663 23.5486 39.3155 23.5486C41.2676 23.5467 42.5776 22.5989 44.1086 21.0991Z" fill="#2E333B"/>
<path d="M59.9717 0.786721H67.0063L67.6274 5.78819H67.8393C69.9575 1.96591 73.1395 0.0922852 76.1064 0.0922852C77.7697 0.0922852 78.7363 0.302604 79.5784 0.669378L78.1445 7.99077C77.1095 7.74005 76.2544 7.52909 75.0043 7.52909C72.8104 7.52909 70.1466 8.92053 68.594 12.8236V29.4169H59.9717V0.786721Z" fill="#2E333B"/>
<path d="M80.3364 21.4768C80.3364 15.4443 85.215 12.1792 96.7253 10.984C96.5526 8.4794 95.2823 6.84494 92.1231 6.84494C89.6809 6.84494 87.2453 7.85614 84.4224 9.4316L81.3591 3.86201C85.052 1.64149 89.2136 0.0942383 93.7891 0.0942383C101.229 0.0942383 105.35 4.27624 105.35 13.0468V29.417H98.3131L97.6906 26.4847H97.4762C95.0268 28.6007 92.2809 30.1095 89.0096 30.1095C83.7035 30.1095 80.3364 26.3 80.3364 21.4768ZM96.7253 21.0991V16.0977C90.5934 16.9127 88.5931 18.6362 88.5931 20.801C88.5931 22.6464 89.8823 23.5486 91.9315 23.5486C93.8836 23.5467 95.1943 22.5989 96.7253 21.0991Z" fill="#A18AE5"/>
<path d="M8.17663 84.7415H7.96284L7.24589 87.7969H0.5V47.3677H9.12235V57.2424L8.90857 61.6411C11.1168 59.6931 13.8621 58.4709 16.6086 58.4709C23.6544 58.4709 28.0147 64.2015 28.0147 72.9797C28.0147 82.8544 22.0725 88.4868 15.7724 88.4868C13.1738 88.4894 10.4885 87.1993 8.17663 84.7415ZM19.1793 73.1253C19.1793 67.9866 17.5655 65.4147 14.1234 65.4147C12.3506 65.4147 10.8052 66.195 9.12235 67.9795V79.7362C10.6677 81.0827 12.3089 81.5483 13.765 81.5483C16.7723 81.5483 19.1793 79.0514 19.1793 73.1253Z" fill="#D0D1D4"/>
<path d="M33.4443 50.544C33.4443 47.9432 35.5405 46.1094 38.433 46.1094C41.3256 46.1094 43.4237 47.9432 43.4237 50.544C43.4237 53.1243 41.325 54.9787 38.433 54.9787C35.5411 54.9787 33.4443 53.1243 33.4443 50.544ZM34.1137 59.1658H42.7367V87.7967H34.1137V59.1658Z" fill="#D0D1D4"/>
<path d="M48.6089 73.4891C48.6089 63.9709 55.7315 58.4712 63.7718 58.4712C67.3566 58.4712 70.1071 59.7273 72.2742 61.5535L68.2013 67.007C66.8071 65.8464 65.6418 65.3174 64.2554 65.3174C60.1088 65.3174 57.4457 68.5344 57.4457 73.4891C57.4457 78.4437 60.2196 81.6408 63.9634 81.6408C65.8744 81.6408 67.7027 80.7111 69.2135 79.53L72.5897 85.079C69.7597 87.5368 66.1501 88.4871 62.9968 88.4871C54.8757 88.489 48.6089 82.9893 48.6089 73.4891Z" fill="#D0D1D4"/>
<path d="M77.417 76.94V59.1655H86.0426V75.8531C86.0426 79.9729 87.1676 81.2624 89.6574 81.2624C91.8239 81.2624 93.1483 80.3647 94.8312 78.1134V59.1655H103.454V87.7964H96.4156L95.7945 83.8247H95.5801C93.1515 86.6762 90.4115 88.4889 86.4434 88.4889C80.1153 88.4889 77.417 84.0953 77.417 76.94Z" fill="#D0D1D4"/>
<path d="M109.513 73.4895C109.513 64.1277 115.455 58.4716 121.583 58.4716C124.791 58.4716 126.751 59.6463 128.718 61.459L128.408 57.1231V47.3677H137.031V87.7969H129.995L129.373 84.9595H129.16C127.103 86.9826 124.226 88.4862 121.418 88.4862C114.185 88.4894 109.513 82.8403 109.513 73.4895ZM128.408 78.9828V67.2267C127.093 66.047 125.373 65.3998 123.593 65.4147C120.8 65.4147 118.351 67.9526 118.351 73.3965C118.351 79.0167 120.324 81.5483 123.663 81.5483C125.497 81.5483 126.979 80.8634 128.408 78.9828Z" fill="#D0D1D4"/>
<path d="M142.931 73.4891C142.931 63.9709 149.743 58.4712 157.107 58.4712C164.47 58.4712 171.282 63.9728 171.282 73.4891C171.282 82.9874 164.47 88.4871 157.107 88.4871C149.743 88.4871 142.931 82.9893 142.931 73.4891ZM162.445 73.4891C162.445 68.5344 160.673 65.3174 157.107 65.3174C153.54 65.3174 151.768 68.5363 151.768 73.4891C151.768 78.4418 153.54 81.6408 157.107 81.6408C160.673 81.6408 162.445 78.4457 162.445 73.4891Z" fill="#D0D1D4"/>
<path d="M16.6093 58.5649C13.8634 58.5649 11.1168 59.7865 8.90922 61.7345L9.05978 58.631H0.5V87.8877H7.24328L7.96023 84.8323H8.17467C10.4859 87.2907 13.1705 88.5802 15.7718 88.5802C22.0725 88.5802 28.0141 82.9452 28.0141 73.0737C28.0167 64.2948 23.655 58.5649 16.6093 58.5649ZM13.765 81.639C12.3095 81.639 10.6677 81.171 9.12301 79.8276V68.0709C10.8059 66.2864 12.3506 65.5061 14.1241 65.5061C17.5655 65.5061 19.1799 68.078 19.1799 73.2161C19.1799 79.1422 16.7723 81.639 13.765 81.639Z" fill="#2E333B"/>
<path d="M42.7338 59.2573H34.1108V87.8876H42.7338V59.2573Z" fill="#2E333B"/>
<path d="M48.6089 73.5828C48.6089 64.064 55.7315 58.5649 63.7718 58.5649C67.3566 58.5649 70.1071 59.8204 72.2736 61.6473L68.2006 67.1008C66.8071 65.9402 65.6418 65.4099 64.2548 65.4099C60.1082 65.4099 57.4457 68.6269 57.4457 73.5815C57.4457 78.5362 60.219 81.7327 63.9634 81.7327C65.8744 81.7327 67.7027 80.8029 69.2142 79.6224L72.5897 85.1709C69.7603 87.6286 66.1508 88.5789 62.9968 88.5789C54.8757 88.5802 48.6089 83.0811 48.6089 73.5828Z" fill="#2E333B"/>
<path d="M77.417 77.0312V59.2573H86.0433V75.9443C86.0433 80.0647 87.1676 81.3536 89.658 81.3536C91.8239 81.3536 93.1483 80.4559 94.8312 78.2052V59.2573H103.454V87.8876H96.4163L95.7945 83.9165H95.5807C93.1515 86.768 90.4121 88.5801 86.4441 88.5801C80.1153 88.5801 77.417 84.1871 77.417 77.0312Z" fill="#2E333B"/>
<path d="M128.511 58.6586L128.717 61.5517C126.751 59.7396 124.791 58.5649 121.583 58.5649C115.456 58.5649 109.513 64.2205 109.513 73.5828C109.513 82.9317 114.185 88.5802 121.417 88.5802C124.226 88.5802 127.103 87.0733 129.16 85.0503H129.373L129.995 87.8877H137.03V58.6586H128.511ZM128.408 79.0742C126.98 80.9542 125.497 81.639 123.663 81.639C120.324 81.639 118.351 79.1082 118.351 73.4879C118.351 68.0434 120.8 65.5061 123.593 65.5061C125.373 65.4909 127.093 66.1379 128.408 67.3175V79.0742Z" fill="#2E333B"/>
<path d="M142.931 73.5828C142.931 64.064 149.743 58.5649 157.107 58.5649C164.47 58.5649 171.282 64.0634 171.282 73.5828C171.282 83.0811 164.47 88.5802 157.107 88.5802C149.743 88.5802 142.931 83.0811 142.931 73.5828ZM162.445 73.5828C162.445 68.6282 160.674 65.4112 157.107 65.4112C153.539 65.4112 151.768 68.6282 151.768 73.5828C151.768 78.5375 153.54 81.7339 157.107 81.7339C160.673 81.7339 162.445 78.5375 162.445 73.5828Z" fill="#2E333B"/>
<path d="M0.5 58.3618H187.5" stroke="#A18AE5" stroke-width="2" stroke-miterlimit="10"/>
<path d="M0.5 88.3618H187.5" stroke="#A18AE5" stroke-width="2" stroke-miterlimit="10"/>
<path d="M179.468 62.0629C178.514 63.0067 178.396 63.1882 178.608 63.3966C178.82 63.605 178.991 63.5024 179.626 62.8836L180.256 62.268V73.2469C180.256 79.2884 180.238 84.2309 180.22 84.2309C180.202 84.2309 179.963 83.9918 179.693 83.7C179.009 82.9556 178.5 82.8023 178.5 83.3319C178.5 83.4826 180.36 85.3838 180.575 85.4582C180.697 85.498 182.732 83.5346 182.732 83.3762C182.732 83.2435 182.484 82.9915 182.354 82.9915C182.304 82.9915 181.963 83.2794 181.598 83.625L180.931 84.2662V62.2225L181.583 62.8637C182.326 63.5857 182.731 63.6697 182.731 63.0939C182.731 62.9343 180.79 61.1094 180.62 61.1094C180.504 61.1107 180.077 61.4672 179.468 62.0629Z" fill="#A18AE5"/>
<path d="M189.695 73.2652L188.573 71.4346H189.806L190.151 72.0521C190.257 72.2649 190.372 72.49 190.477 72.7029H190.508C190.591 72.49 190.69 72.2649 190.773 72.0521L191.038 71.4346H192.229L191.111 73.3935L192.303 75.253H191.071L190.689 74.622C190.568 74.404 190.45 74.1732 190.325 73.9577H190.295C190.196 74.1732 190.094 74.3976 189.995 74.622L189.694 75.253H188.503L189.695 73.2652Z" fill="#A18AE5"/>
<path d="M192.611 72.9043H194.533V73.7052H192.611V72.9043Z" fill="#A18AE5"/>
<path d="M195.25 69.8618H196.4V71.1789L196.348 71.8701C196.639 71.6098 197.017 71.3424 197.546 71.3424C198.39 71.3424 198.749 71.9285 198.749 72.8813V75.2538H197.6V73.0288C197.6 72.4793 197.45 72.3074 197.118 72.3074C196.829 72.3074 196.653 72.4395 196.401 72.6787V75.2531H195.251L195.25 69.8618Z" fill="#A18AE5"/>
<path d="M199.49 73.3448C199.49 72.1066 200.388 71.3423 201.32 71.3423C202.428 71.3423 202.973 72.1329 202.973 73.1749C202.974 73.3425 202.958 73.5099 202.925 73.6744H200.604C200.707 74.2284 201.092 74.4823 201.61 74.4823C201.904 74.4823 202.168 74.3945 202.449 74.2329L202.829 74.9145C202.423 75.1866 201.944 75.3362 201.453 75.3447C200.347 75.3447 199.49 74.6118 199.49 73.3448ZM201.991 72.9267C201.991 72.5067 201.805 72.2047 201.346 72.2047C200.983 72.2047 200.669 72.4445 200.591 72.9267H201.991Z" fill="#A18AE5"/>
<path d="M203.678 70.2857C203.678 69.9388 203.957 69.6938 204.343 69.6938C204.729 69.6938 205.009 69.9388 205.009 70.2857C205.009 70.6326 204.728 70.8769 204.343 70.8769C203.958 70.8769 203.678 70.6294 203.678 70.2857ZM203.767 71.4347H204.917V75.2532H203.767V71.4347Z" fill="#A18AE5"/>
<path d="M205.688 75.9078C205.688 75.591 205.883 75.3345 206.238 75.1383V75.1075C206.126 75.0393 206.035 74.9436 205.973 74.8298C205.911 74.7161 205.88 74.5883 205.884 74.4593C205.884 74.1842 206.069 73.9155 206.316 73.7443V73.7142C206.155 73.6019 206.024 73.4535 205.933 73.2813C205.842 73.1091 205.795 72.9181 205.794 72.7241C205.794 71.8078 206.563 71.3423 207.399 71.3423C207.603 71.3412 207.806 71.3724 208 71.4346H209.419V72.2586H208.795C208.883 72.4121 208.928 72.5858 208.926 72.762C208.926 73.6404 208.246 74.0444 207.398 74.0444C207.237 74.0424 207.077 74.0176 206.924 73.9707C206.879 74.0031 206.843 74.0461 206.82 74.0957C206.796 74.1454 206.785 74.2 206.789 74.2547C206.789 74.4426 206.945 74.5343 207.37 74.5343H207.999C208.95 74.5343 209.48 74.8209 209.48 75.5044C209.48 76.2976 208.64 76.8754 207.308 76.8754C206.409 76.8754 205.688 76.5862 205.688 75.9078ZM208.381 75.6974C208.381 75.457 208.171 75.4018 207.79 75.4018H207.387C207.204 75.4094 207.021 75.3928 206.842 75.3525C206.699 75.4724 206.633 75.5897 206.633 75.7276C206.633 76.0168 206.973 76.1655 207.493 76.1655C208.012 76.1655 208.381 75.9616 208.381 75.6974ZM207.93 72.7241C207.93 72.317 207.705 72.1034 207.4 72.1034C207.094 72.1034 206.87 72.3157 206.87 72.7241C206.87 73.1326 207.097 73.3602 207.4 73.3602C207.702 73.3602 207.93 73.1422 207.93 72.7241Z" fill="#A18AE5"/>
<path d="M210.103 69.8618H211.252V71.1789L211.2 71.8701C211.491 71.6098 211.87 71.3424 212.398 71.3424C213.242 71.3424 213.602 71.9285 213.602 72.8813V75.2538H212.452V73.0288C212.452 72.4793 212.302 72.3074 211.971 72.3074C211.681 72.3074 211.505 72.4395 211.254 72.6787V75.2531H210.104L210.103 69.8618Z" fill="#A18AE5"/>
<path d="M214.724 73.8642V72.3253H214.194V71.4783L214.788 71.4347L214.923 70.4209H215.873V71.4347H216.804V72.3221H215.873V73.8508C215.873 74.2836 216.073 74.4573 216.376 74.4573C216.502 74.453 216.627 74.4286 216.745 74.3849L216.926 75.2063C216.648 75.2975 216.357 75.3443 216.064 75.3448C215.105 75.3448 214.724 74.7491 214.724 73.8642Z" fill="#A18AE5"/>
</svg>
