<svg aria-label="sara bicudo text black, grey and lilac text illustration" width="818" height="97" viewBox="0 0 818 97" fill="none" xmlns="http://www.w3.org/2000/svg">
<g clip-path="url(#clip0_85_4535)">
<path d="M26.0801 87.6582L34.9417 75.5909C40.9632 80.0722 46.5261 82.4593 52.0875 82.4593C57.9481 82.4593 60.4847 80.2626 60.4847 76.8342C60.4847 72.5257 53.8976 70.5721 47.0575 67.936C38.9059 64.8357 29.4696 59.5167 29.4696 48.7088C29.4696 36.5346 39.5266 28.2383 54.8637 28.2383C65.0473 28.2383 72.6288 32.2861 78.2884 36.5199L69.4744 48.1538C64.7451 44.7738 60.0798 42.5712 55.4815 42.5712C50.3935 42.5712 47.8896 44.5306 47.8896 47.7935C47.8896 51.9629 54.1135 53.5592 61.0013 56.0239C69.4163 59.0861 78.9047 63.7476 78.9047 75.7022C78.9047 87.5337 69.4149 96.7907 51.6022 96.7907C42.8358 96.7922 32.8116 93.0548 26.0801 87.6582Z" fill="#D0D1D4"/>
<path d="M88.2505 77.0744C88.2505 63.298 99.3927 55.8394 125.68 53.1096C125.287 47.3981 122.386 43.6578 115.17 43.6578C109.593 43.6578 104.03 45.9673 97.5826 49.5641L90.5861 36.845C99.0161 31.7794 108.521 28.2383 118.971 28.2383C135.963 28.2383 145.374 37.7896 145.374 57.8208V95.2105H129.308L127.889 88.512H127.399C121.805 93.3448 115.532 96.7922 108.062 96.7922C95.9406 96.7922 88.2505 88.0917 88.2505 77.0744ZM125.68 76.2118V64.7888C111.677 66.6487 107.108 70.5867 107.108 75.5294C107.108 79.7441 110.053 81.8061 114.733 81.8061C119.191 81.8076 122.185 79.6372 125.68 76.2118Z" fill="#D0D1D4"/>
<path d="M161.908 29.8199H177.974L179.394 41.2429H179.877C184.716 32.5116 191.982 28.2324 198.76 28.2324C202.559 28.2324 204.765 28.7142 206.688 29.5505L203.413 46.2734C201.049 45.6993 199.096 45.219 196.241 45.219C191.229 45.219 185.145 48.3969 181.6 57.3112V95.2105H161.906L161.908 29.8199Z" fill="#D0D1D4"/>
<path d="M208.419 77.0744C208.419 63.298 219.562 55.8394 245.85 53.1096C245.456 47.3981 242.556 43.6578 235.341 43.6578C229.763 43.6578 224.2 45.9673 217.752 49.5641L210.755 36.845C219.189 31.7735 228.694 28.2383 239.143 28.2383C256.135 28.2383 265.548 37.7896 265.548 57.8208V95.2105H249.477L248.055 88.512H247.567C241.971 93.3448 235.7 96.7922 228.23 96.7922C216.111 96.7922 208.419 88.0917 208.419 77.0744ZM245.85 76.2118V64.7888C231.846 66.6487 227.277 70.5867 227.277 75.5294C227.277 79.7441 230.223 81.8061 234.902 81.8061C239.362 81.8076 242.354 79.6372 245.85 76.2118Z" fill="#D0D1D4"/>
<path d="M326.405 88.2324H325.917L324.279 95.2106H308.872V2.87354H328.565V25.4266L328.077 35.4729C333.12 31.0238 339.39 28.2325 345.663 28.2325C361.755 28.2325 371.714 41.3206 371.714 61.3694C371.714 83.9224 358.142 96.7864 343.753 96.7864C337.818 96.7923 331.685 93.8457 326.405 88.2324ZM351.534 61.7018C351.534 49.9654 347.848 44.0914 339.987 44.0914C335.938 44.0914 332.408 45.8737 328.565 49.9493V76.8006C332.094 79.876 335.843 80.9392 339.168 80.9392C346.037 80.9392 351.534 75.2365 351.534 61.7018Z" fill="#D0D1D4"/>
<path d="M384.113 10.1284C384.113 4.18842 388.901 0 395.507 0C402.113 0 406.905 4.18842 406.905 10.1284C406.905 16.0214 402.112 20.2567 395.507 20.2567C388.902 20.2567 384.113 16.0214 384.113 10.1284ZM385.642 29.8198H405.336V95.2104H385.642V29.8198Z" fill="#D0D1D4"/>
<path d="M418.749 62.5335C418.749 40.7948 435.017 28.2339 453.38 28.2339C461.567 28.2339 467.849 31.1028 472.799 35.2737L463.497 47.7291C460.312 45.0784 457.651 43.8702 454.484 43.8702C445.014 43.8702 438.932 51.2175 438.932 62.5335C438.932 73.8496 445.267 81.1515 453.818 81.1515C458.182 81.1515 462.358 79.028 465.808 76.3304L473.519 89.0041C467.056 94.6174 458.812 96.7878 451.61 96.7878C433.062 96.7922 418.749 84.2313 418.749 62.5335Z" fill="#D0D1D4"/>
<path d="M484.544 70.4153V29.8198H504.244V67.933C504.244 77.3423 506.813 80.2874 512.5 80.2874C517.448 80.2874 520.473 78.2371 524.317 73.0953V29.8198H544.009V95.2104H527.935L526.517 86.1394H526.027C520.48 92.652 514.222 96.7921 505.16 96.7921C490.707 96.7921 484.544 86.7574 484.544 70.4153Z" fill="#D0D1D4"/>
<path d="M557.849 62.5336C557.849 41.1522 571.419 28.234 585.415 28.234C592.743 28.234 597.219 30.9169 601.71 35.057L601.003 25.1542V2.87354H620.697V95.2106H604.628L603.208 88.7303H602.72C598.023 93.3507 591.451 96.785 585.038 96.785C568.519 96.7923 557.849 83.8902 557.849 62.5336ZM601.003 75.0798V48.23C597.999 45.5356 594.072 44.0574 590.007 44.0914C583.627 44.0914 578.034 49.8878 578.034 62.3213C578.034 75.1575 582.54 80.9392 590.165 80.9392C594.354 80.9392 597.74 79.3752 601.003 75.0798Z" fill="#D0D1D4"/>
<path d="M634.172 62.5335C634.172 40.7948 649.73 28.2339 666.548 28.2339C683.366 28.2339 698.924 40.7991 698.924 62.5335C698.924 84.2269 683.366 96.7878 666.548 96.7878C649.73 96.7878 634.172 84.2313 634.172 62.5335ZM678.741 62.5335C678.741 51.2175 674.694 43.8702 666.548 43.8702C658.402 43.8702 654.355 51.2219 654.355 62.5335C654.355 73.8452 658.402 81.1515 666.548 81.1515C674.694 81.1515 678.741 73.854 678.741 62.5335Z" fill="#D0D1D4"/>
<path d="M26.0801 87.8691L34.9417 75.8003C40.9617 80.2817 46.5261 82.6688 52.0875 82.6688C57.9481 82.6688 60.4847 80.472 60.4847 77.0437C60.4847 72.7352 53.8976 70.783 47.0575 68.1469C38.9059 65.0452 29.4696 59.7247 29.4696 48.9139C29.4696 36.7411 39.5266 28.4448 54.8637 28.4448C65.0473 28.4448 72.6288 32.4927 78.2869 36.7265L69.4729 48.3589C64.7451 44.9788 60.0798 42.7777 55.48 42.7777C50.392 42.7777 47.8881 44.7372 47.8881 48.0001C47.8881 52.1694 54.1135 53.7657 61.0013 56.2305C69.4163 59.2927 78.9032 63.9527 78.9032 75.9072C78.9032 87.7403 69.4149 96.9958 51.6022 96.9958C42.8358 97.0002 32.8101 93.2643 26.0801 87.8691Z" fill="#2E333B"/>
<path d="M88.249 77.2838C88.249 63.506 99.3912 56.0489 125.68 53.3191C125.286 47.5988 122.386 43.8658 115.17 43.8658C109.593 43.8658 104.03 46.1753 97.5826 49.7735L90.5861 37.0531C99.0206 31.9815 108.525 28.4478 118.975 28.4478C135.966 28.4478 145.379 37.9991 145.379 58.0303V95.4185H129.306L127.888 88.7215H127.399C121.804 93.5543 115.532 97.0002 108.062 97.0002C95.9407 97.0002 88.249 88.2997 88.249 77.2838ZM125.68 76.4213V64.9983C111.675 66.8597 107.107 70.7962 107.107 75.7403C107.107 79.9551 110.053 82.0156 114.733 82.0156C119.191 82.0112 122.183 79.8467 125.68 76.4213Z" fill="#2E333B"/>
<path d="M161.908 30.0294H177.975L179.393 41.4524H179.877C184.715 32.7226 191.982 28.4434 198.759 28.4434C202.558 28.4434 204.765 28.9237 206.688 29.7614L203.413 46.4829C201.05 45.9102 199.097 45.4284 196.241 45.4284C191.231 45.4284 185.147 48.6064 181.601 57.5207V95.4185H161.908V30.0294Z" fill="#2E333B"/>
<path d="M208.419 77.2838C208.419 63.506 219.562 56.0489 245.85 53.3191C245.456 47.5988 242.555 43.8658 235.339 43.8658C229.762 43.8658 224.199 46.1753 217.752 49.7735L210.755 37.0531C219.189 31.9815 228.694 28.4478 239.144 28.4478C256.137 28.4478 265.548 37.9991 265.548 58.0303V95.4185H249.477L248.055 88.7215H247.565C241.971 93.5543 235.7 97.0002 228.228 97.0002C216.11 97.0002 208.419 88.2997 208.419 77.2838ZM245.85 76.4213V64.9983C231.846 66.8597 227.277 70.7962 227.277 75.7403C227.277 79.9551 230.222 82.0156 234.902 82.0156C239.36 82.0112 242.354 79.8467 245.85 76.4213Z" fill="#A18AE5"/>
<path d="M345.663 28.4478C339.391 28.4478 333.118 31.2376 328.077 35.6867L328.42 28.5986H308.871V95.4185H324.272L325.909 88.4403H326.399C331.678 94.0551 337.809 97.0002 343.75 97.0002C358.14 97.0002 371.711 84.1303 371.711 61.5846C371.717 41.5344 361.755 28.4478 345.663 28.4478ZM339.167 81.1472C335.843 81.1472 332.093 80.0781 328.565 77.01V50.1587C332.408 46.0831 335.936 44.3008 339.987 44.3008C347.847 44.3008 351.534 50.1748 351.534 61.9097C351.534 75.4445 346.035 81.1472 339.167 81.1472Z" fill="#2E333B"/>
<path d="M405.329 30.0293H385.635V95.4184H405.329V30.0293Z" fill="#2E333B"/>
<path d="M418.749 62.7474C418.749 41.0072 435.017 28.4478 453.38 28.4478C461.567 28.4478 467.849 31.3152 472.797 35.4875L463.495 47.9429C460.312 45.2922 457.651 44.0811 454.483 44.0811C445.012 44.0811 438.932 51.4284 438.932 62.7445C438.932 74.0605 445.266 81.361 453.818 81.361C458.182 81.361 462.358 79.2375 465.81 76.5414L473.519 89.2135C467.057 94.8269 458.813 96.9973 451.61 96.9973C433.062 97.0002 418.749 84.4408 418.749 62.7474Z" fill="#2E333B"/>
<path d="M484.542 70.6233V30.0293H504.244V68.141C504.244 77.5518 506.812 80.4954 512.499 80.4954C517.446 80.4954 520.471 78.4451 524.315 73.3048V30.0293H544.009V95.4184H527.935L526.515 86.3489H526.026C520.478 92.8615 514.222 97.0001 505.159 97.0001C490.705 97.0001 484.542 86.9669 484.542 70.6233Z" fill="#2E333B"/>
<path d="M601.237 28.6616L601.709 35.2693C597.219 31.1307 592.743 28.4478 585.415 28.4478C571.422 28.4478 557.849 41.3645 557.849 62.7474C557.849 84.0996 568.519 97.0002 585.036 97.0002C591.451 97.0002 598.023 93.5586 602.72 88.9382H603.208L604.627 95.4185H620.695V28.6616H601.237ZM601.003 75.2892C597.742 79.5831 594.355 81.1472 590.165 81.1472C582.54 81.1472 578.034 75.3668 578.034 62.5307C578.034 50.0957 583.627 44.3008 590.005 44.3008C594.071 44.2661 597.999 45.7438 601.003 48.4379V75.2892Z" fill="#2E333B"/>
<path d="M634.171 62.7474C634.171 41.0072 649.728 28.4478 666.547 28.4478C683.365 28.4478 698.922 41.0057 698.922 62.7474C698.922 84.4408 683.365 97.0002 666.547 97.0002C649.728 97.0002 634.171 84.4408 634.171 62.7474ZM678.74 62.7474C678.74 51.4313 674.694 44.084 666.547 44.084C658.399 44.084 654.353 51.4313 654.353 62.7474C654.353 74.0635 658.401 81.3639 666.547 81.3639C674.692 81.3639 678.74 74.0635 678.74 62.7474Z" fill="#2E333B"/>
<path d="M0.5 29.1797H747.795" stroke="#A18AE5" stroke-width="2" stroke-miterlimit="10"/>
<path d="M0.5 96.2046H747.795" stroke="#A18AE5" stroke-width="2" stroke-miterlimit="10"/>
<path d="M731.948 37.0937C729.769 39.2494 729.501 39.6639 729.985 40.1398C730.469 40.6158 730.859 40.3815 732.309 38.9682L733.748 37.5623V62.6372C733.748 76.4356 733.706 87.7238 733.666 87.7238C733.626 87.7238 733.08 87.1775 732.463 86.5112C730.9 84.8109 729.738 84.4609 729.738 85.6706C729.738 86.0147 733.985 90.3569 734.478 90.5268C734.756 90.6176 739.403 86.1334 739.403 85.7716C739.403 85.4685 738.838 84.8929 738.54 84.8929C738.427 84.8929 737.647 85.5505 736.813 86.3399L735.29 87.8043V37.4584L736.779 38.9228C738.476 40.5718 739.4 40.7637 739.4 39.4486C739.4 39.0839 734.969 34.916 734.579 34.916C734.314 34.9189 733.34 35.7332 731.948 37.0937Z" fill="#A18AE5"/>
<path d="M755.306 62.6796L752.744 58.4985H755.559L756.348 59.9088C756.589 60.395 756.851 60.9091 757.092 61.3953H757.164C757.353 60.9091 757.579 60.395 757.768 59.9088L758.374 58.4985H761.094L758.539 62.9725L761.264 67.2195H758.449L757.576 65.7785C757.299 65.2806 757.03 64.7533 756.746 64.2613H756.676C756.449 64.7533 756.217 65.2659 755.992 65.7785L755.303 67.2195H752.583L755.306 62.6796Z" fill="#A18AE5"/>
<path d="M761.966 61.8555H766.354V63.6846H761.966V61.8555Z" fill="#A18AE5"/>
<path d="M767.994 54.9062H770.62V57.9143L770.502 59.493C771.166 58.8984 772.029 58.2877 773.238 58.2877C775.164 58.2877 775.986 59.6263 775.986 61.8025V67.2211H773.36V62.1393C773.36 60.8843 773.018 60.4918 772.26 60.4918C771.601 60.4918 771.197 60.7935 770.623 61.3397V67.2196H767.997L767.994 54.9062Z" fill="#A18AE5"/>
<path d="M777.678 62.8617C777.678 60.0337 779.73 58.2881 781.858 58.2881C784.389 58.2881 785.633 60.0938 785.633 62.4736C785.635 62.8565 785.598 63.2386 785.523 63.6144H780.222C780.457 64.8797 781.337 65.4597 782.521 65.4597C783.19 65.4597 783.793 65.259 784.436 64.89L785.304 66.4467C784.376 67.0683 783.283 67.4098 782.16 67.4294C779.636 67.4294 777.678 65.7555 777.678 62.8617ZM783.39 61.9068C783.39 60.9476 782.966 60.2578 781.918 60.2578C781.087 60.2578 780.371 60.8055 780.192 61.9068H783.39Z" fill="#A18AE5"/>
<path d="M787.243 55.8742C787.243 55.0819 787.881 54.5225 788.763 54.5225C789.644 54.5225 790.282 55.0819 790.282 55.8742C790.282 56.6665 789.642 57.2244 788.763 57.2244C787.883 57.2244 787.243 56.6591 787.243 55.8742ZM787.447 58.4985H790.072V67.2195H787.447V58.4985Z" fill="#A18AE5"/>
<path d="M791.832 68.7148C791.832 67.9913 792.279 67.4055 793.088 66.9574V66.8871C792.834 66.7313 792.625 66.5127 792.484 66.2529C792.342 65.9931 792.272 65.7013 792.28 65.4065C792.28 64.7782 792.704 64.1646 793.267 63.7736V63.7048C792.9 63.4483 792.6 63.1094 792.393 62.7161C792.186 62.3228 792.077 61.8866 792.076 61.4436C792.076 59.3509 793.833 58.2877 795.741 58.2877C796.207 58.2851 796.671 58.3563 797.114 58.4986H800.354V60.3804H798.93C799.13 60.7311 799.233 61.1277 799.227 61.53C799.227 63.5364 797.676 64.459 795.738 64.459C795.371 64.4545 795.006 64.3977 794.656 64.2906C794.553 64.3647 794.471 64.4629 794.418 64.5763C794.364 64.6896 794.34 64.8145 794.348 64.9393C794.348 65.3684 794.705 65.5779 795.674 65.5779H797.111C799.284 65.5779 800.494 66.2325 800.494 67.7936C800.494 69.6052 798.575 70.9247 795.534 70.9247C793.48 70.9247 791.832 70.2642 791.832 68.7148ZM797.984 68.2344C797.984 67.6852 797.505 67.5593 796.634 67.5593H795.713C795.295 67.5766 794.877 67.5387 794.47 67.4465C794.142 67.7204 793.992 67.9884 793.992 68.3033C793.992 68.9637 794.769 69.3035 795.955 69.3035C797.142 69.3035 797.984 68.8378 797.984 68.2344ZM796.953 61.4436C796.953 60.5137 796.441 60.026 795.743 60.026C795.044 60.026 794.534 60.5107 794.534 61.4436C794.534 62.3765 795.052 62.8964 795.743 62.8964C796.433 62.8964 796.953 62.3985 796.953 61.4436Z" fill="#A18AE5"/>
<path d="M801.916 54.9062H804.542V57.9143L804.423 59.493C805.087 58.8984 805.952 58.2877 807.159 58.2877C809.087 58.2877 809.908 59.6263 809.908 61.8025V67.2211H807.282V62.1393C807.282 60.8843 806.94 60.4918 806.182 60.4918C805.521 60.4918 805.118 60.7935 804.545 61.3397V67.2196H801.919L801.916 54.9062Z" fill="#A18AE5"/>
<path d="M812.47 64.0479V60.5331H811.26V58.5985L812.617 58.4989L812.924 56.1836H815.096V58.4989H817.22V60.5258H815.096V64.0171C815.096 65.0056 815.551 65.4025 816.244 65.4025C816.532 65.3927 816.816 65.3368 817.086 65.237L817.5 67.113C816.865 67.3214 816.2 67.4282 815.531 67.4294C813.341 67.4294 812.47 66.0688 812.47 64.0479Z" fill="#A18AE5"/>
</g>
<defs>
<clipPath id="clip0_85_4535">
<rect width="817" height="97" fill="white" transform="translate(0.5)"/>
</clipPath>
</defs>
</svg>
