<svg width="27" height="29" viewBox="0 0 27 29" fill="none" xmlns="http://www.w3.org/2000/svg">
<g clip-path="url(#clip0_9_10798)">
<path d="M18.5801 10.8338C19.6527 9.36406 21.9665 10.5922 21.8705 12.2572C21.854 14.3228 20.3114 14.4619 18.6463 14.3725C17.7327 14.4321 18.1598 11.2708 18.5801 10.8338Z" fill="white"/>
<path d="M18.4278 19.0929C17.2891 19.1127 16.1139 19.212 15.0083 18.8777C12.3932 17.9575 13.9424 14.293 16.4152 14.7697C17.832 14.7829 19.2653 14.7332 20.6622 15.008C22.2478 15.2695 22.506 17.451 21.3739 18.3712C20.5696 19.1028 19.4374 19.02 18.4278 19.0929Z" fill="white"/>
<path d="M11.6352 10.4333C9.84437 9.94338 7.85821 10.0692 6.04749 10.3903C4.42878 10.6319 3.74356 13.4986 5.5907 14.1143C6.7228 14.4288 7.91449 14.3758 9.07639 14.4453C9.74175 14.2831 10.6918 14.5413 11.4267 14.2864C13.0487 13.7204 13.436 11.0556 11.6352 10.4333ZM8.55338 15.8224C8.64936 14.8492 8.19585 14.6638 7.32526 14.7598C4.03155 14.2897 4.08451 19.4769 7.32857 18.8844C8.63945 18.4772 8.52358 16.9379 8.55338 15.8224ZM14.1411 1.22416C17.4083 1.13147 21.4799 0.363492 23.9295 3.08451C26.5579 5.74597 26.0349 9.76464 26.3096 13.194C26.3725 17.9178 27.7231 24.9057 22.2479 27.117C19.9473 27.8419 17.501 27.8055 15.1176 27.9809C10.4171 28.0836 4.03155 28.6463 1.36349 23.8829C0.214835 21.2049 0.228076 18.2124 0.0195312 15.3821C0.27111 2.9157 1.2741 0.7541 14.1411 1.22416ZM18.643 14.3725C20.3081 14.4619 21.8507 14.3229 21.8672 12.2572C21.9632 10.5922 19.6527 9.36409 18.5768 10.8338C18.1598 11.2708 17.7327 14.4321 18.643 14.3725ZM12.817 7.6295C12.7375 6.58017 11.6981 6.0439 10.7216 6.09686C8.176 6.18294 7.53052 10.1221 11.8438 9.74806C13.3168 9.90364 12.8302 8.57291 12.817 7.6295ZM13.1579 16.448C12.9593 15.4384 11.8703 14.8558 11.0394 14.8161C9.38758 14.7068 8.87779 16.6334 8.95061 17.9807C8.92744 19.9834 8.71227 23.7438 11.7941 23.1083C13.6346 22.5455 13.0322 20.1224 13.2473 18.6427C13.0951 18.0237 13.297 17.1432 13.1579 16.448ZM16.4152 14.7664C13.9425 14.2897 12.39 17.9542 15.0084 18.8745C16.114 19.2121 17.2892 19.1095 18.4279 19.0896C19.4375 19.0201 20.5729 19.1028 21.374 18.368C22.5094 17.4477 22.2479 15.263 20.6623 15.0048C19.2654 14.73 17.832 14.7796 16.4152 14.7664ZM17.7691 9.29456C17.8353 7.79171 17.3785 5.80556 15.4122 5.89163C14.6442 5.94788 14.0219 6.30209 13.8034 7.08001C13.4757 8.50341 13.479 9.99303 13.4691 11.4495C12.9957 13.9389 16.4947 15.6006 17.5308 12.9458C17.9214 11.7706 17.7691 10.516 17.7691 9.29456ZM15.7929 23.1546C18.4477 22.9725 18.845 19.0896 14.7601 19.4703C13.0686 19.3478 13.6942 20.5395 13.6876 21.7047C13.7935 22.7143 14.8627 23.1976 15.7929 23.1546Z" fill="black"/>
<path d="M17.5341 12.949C16.4979 15.6038 12.999 13.9421 13.4724 11.4528C13.479 9.99627 13.479 8.50665 13.8067 7.08325C14.0252 6.30864 14.6475 5.95115 15.4155 5.89487C17.3818 5.80879 17.8386 7.79495 17.7724 9.29779C17.7691 10.516 17.9213 11.7706 17.5341 12.949Z" fill="white"/>
<path d="M14.7601 19.4703C18.845 19.0896 18.4477 22.9725 15.7929 23.1546C14.8627 23.1976 13.7935 22.7176 13.6876 21.7047C13.6942 20.5395 13.0686 19.3478 14.7601 19.4703Z" fill="white"/>
<path d="M11.0392 14.8127C11.8701 14.8525 12.9592 15.4351 13.1578 16.4447C13.2968 17.1398 13.0949 18.0204 13.2472 18.6361C13.0287 20.1124 13.6345 22.5389 11.794 23.1016C8.71211 23.7405 8.93059 19.98 8.95045 17.974C8.87763 16.6301 9.38742 14.7068 11.0392 14.8127Z" fill="white"/>
<path d="M10.7216 6.10022C11.6981 6.04397 12.7376 6.58021 12.817 7.6329C12.8302 8.57631 13.3168 9.90704 11.8405 9.75477C7.53051 10.1222 8.17602 6.18298 10.7216 6.10022Z" fill="white"/>
<path d="M6.0508 10.3903C7.86149 10.0725 9.84764 9.94339 11.6385 10.4333C13.4393 11.0556 13.052 13.7204 11.43 14.2864C10.6951 14.5413 9.74834 14.2832 9.07966 14.4453C7.91776 14.3758 6.72607 14.4288 5.59398 14.1143C3.74686 13.4986 4.43208 10.6319 6.0508 10.3903Z" fill="white"/>
<path d="M7.32526 14.7598C8.19917 14.6638 8.65268 14.8459 8.55338 15.8224C8.52358 16.9379 8.63945 18.4772 7.32857 18.8844C4.08451 19.4769 4.03155 14.293 7.32526 14.7598Z" fill="white"/>
</g>
<defs>
<clipPath id="clip0_9_10798">
<rect width="27" height="28" fill="white" transform="translate(0 0.5)"/>
</clipPath>
</defs>
</svg>
